<?xml version="1.0" encoding="utf-8"?>
<!-- Generator: Adobe Illustrator 24.0.0, SVG Export Plug-In . SVG Version: 6.00 Build 0)  -->
<svg version="1.1" xmlns="http://www.w3.org/2000/svg" xmlns:xlink="http://www.w3.org/1999/xlink" x="0px" y="0px"
	 viewBox="0 0 360 504" style="enable-background:new 0 0 360 504;" xml:space="preserve">
<style type="text/css">
	@font-face {
		font-family: Arrow;
		src: url(https://giftlips.s3.amazonaws.com/fonts/Arrow.ttf);
	}
	@font-face {
		font-family: ModernSans-Light;
		src: url(https://giftlips.s3.amazonaws.com/fonts/ModernSans-Light.otf);
	}
	@font-face {
		font-family: Radicalis;
		src: url(https://giftlips.s3.amazonaws.com/fonts/Radicalis.ttf);
	}
	@font-face {
		font-family: Raustila-Regular;
		src: url(https://giftlips.s3.amazonaws.com/fonts/Raustila-Regular.ttf);
	}
	.st0{fill:#94BABE;}
	.st1{fill:#C8E8E8;}
	.st2{clip-path:url(#SVGID_5_);}
	.st3{clip-path:url(#SVGID_6_);fill:#010101;}
	.st4{fill-rule:evenodd;clip-rule:evenodd;fill:#608A91;}
	.st5{fill:#FFFFFF;}
	.st6{font-family:'ModernSans-Light';}
	.st7{font-size:14.1172px;}
	.st8{clip-path:url(#SVGID_11_);}
	.st9{clip-path:url(#SVGID_12_);fill:#010101;}
	.st10{fill:#010101;}
	.st11{fill:none;}
	.st12{font-family:'ModernSans-Light';}
	.st13{font-size:20px;}
	.st14{letter-spacing:8;}
	.st15{font-family:'Radicalis';}
	.st16{font-size:50px;}
	.st17{font-family:'ModernSans-Light';}
	.st18{font-size:13px;}
</style>
<g id="BACKGROUND">
	<rect x="-0.2" class="st0" width="360.2" height="505"/>
</g>
<g id="DESIGN_ELEMENTS">
	<path class="st1" d="M360.7,505.4V335.8c-8.7,5.7-16.4,13.8-21.6,25.5c-21.8,48.1-11.5,105.7-96.9,102.7
		c-49.6-1.8-70.6,18-79.7,41.4H360.7z"/>
	<path class="st1" d="M-0.2,0v169.6c8.7-5.7,16.4-13.8,21.6-25.5C43.2,96,32.9,38.4,118.3,41.4c49.6,1.8,70.6-18,79.7-41.4H-0.2z"/>
	<path class="st1" d="M50.8,240.1c-20.1-1.3-38.6,8.8-51,25.6v96.9c7.9,10.3,18.3,17.8,30.3,21.3c-4.7,0.5-10.2,1.7-9.2,6.2
		c0.5,2.4,3.1,4,6.2,4.9c-4.5,11.8-13.4,40.4-7.8,66.8c2.2,10.3,6.3,21.7,10.7,33.7c1,2.8,2.1,5.7,3.1,8.5h3
		c-1.1-3.2-2.3-6.4-3.4-9.5c-4.3-12-8.4-23.3-10.6-33.4c-5.5-26,3.5-54.3,7.8-65.6c4.3,0.6,8.7,0.2,10.2-1c2.1-1.7-1.5-6.5-3.8-9.2
		c1.7,0.3,3.4,0.5,5.2,0.6c34.1,2.2,63.9-28.7,66.5-68.9C110.4,276.8,84.9,242.3,50.8,240.1z"/>
	<path class="st1" d="M360.1,91V32.2c-9.4-16.4-26-26.4-43.4-24.1c-24.2,3.2-40.7,28.9-36.9,57.4c3.8,28.5,26.4,49,50.6,45.8
		c1.2-0.2,2.5-0.4,3.7-0.7c-1.5,2-3.8,5.7-2.2,6.7c1.1,0.8,4.3,0.9,7.3,0.2c3.6,7.8,11.4,27.5,8.7,46.3c-1,7.3-3.4,15.5-5.9,24.3
		c-5.9,20.6-12.7,44.1-4.5,64.6c0.2,0.4,0.5,0.6,0.9,0.6c0.1,0,0.2,0,0.4-0.1c0.5-0.2,0.8-0.8,0.6-1.3c-7.9-19.9-1.2-42.9,4.6-63.3
		c2.5-8.8,4.9-17.1,6-24.5c2.7-19.1-5-38.9-8.7-47.1c2.2-0.8,3.9-2,4.2-3.8c0.5-3.3-3.5-3.8-6.9-4C347.5,106.2,355,99.6,360.1,91z"
		/>
</g>
<g id="QR_CODE">
	<g id="QR_1_">
		<g>
			<g>
				<g>
					<g>
						<g>
							<g>
								<g>
									<g>
										<defs>
											<polygon id="SVGID_1_" points="102.6,228.2 102.9,228.2 102.6,228.5 											"/>
										</defs>
										<clipPath id="SVGID_2_">
											<use xlink:href="#SVGID_1_"  style="overflow:visible;"/>
										</clipPath>
									</g>
									<g>
										<defs>
											<polygon id="SVGID_3_" points="102.6,228.2 102.9,228.2 102.6,228.5 											"/>
										</defs>
										<defs>
											<polygon id="SVGID_4_" points="102,227.6 101.7,227.6 102,227.3 											"/>
										</defs>
										<clipPath id="SVGID_5_">
											<use xlink:href="#SVGID_3_"  style="overflow:visible;"/>
										</clipPath>
										<clipPath id="SVGID_6_" class="st2">
											<use xlink:href="#SVGID_4_"  style="overflow:visible;"/>
										</clipPath>
										<path id="SvgjsPath1003_1_" class="st3" d="M108.6,227.9h144.1c0,0,6.3,0,6.3,6.3v180c0,0,0,6.3-6.3,6.3H108.6
											c0,0-6.3,0-6.3-6.3v-180C102.3,234.2,102.3,227.9,108.6,227.9 M111.8,234.2h137.7c0,0,3.2,0,3.2,3.2v137.7
											c0,0,0,3.2-3.2,3.2H111.8c0,0-3.2,0-3.2-3.2V237.4C108.6,237.4,108.6,234.2,111.8,234.2z"/>
									</g>
								</g>
							</g>
						</g>
					</g>
				</g>
			</g>
		</g>
		<path id="SvgjsPath165548_1_" class="st4" d="M108.6,227.9h144.1c0,0,6.3,0,6.3,6.3v180c0,0,0,6.3-6.3,6.3H108.6
			c0,0-6.3,0-6.3-6.3v-180C102.3,234.2,102.3,227.9,108.6,227.9 M111.8,234.2h137.7c0,0,3.2,0,3.2,3.2v137.7c0,0,0,3.2-3.2,3.2
			H111.8c0,0-3.2,0-3.2-3.2V237.4C108.6,237.4,108.6,234.2,111.8,234.2z"/>
		<text transform="matrix(1 0 0 1 148.0895 402.2431)" class="st5 st6 st7">SCAN ME</text>
		<g>
			<g>
				<g>
					<g>
						<g>
							<g>
								<g>
									<g>
										<defs>
											<polygon id="SVGID_7_" points="108.9,234.5 109.2,234.5 108.9,234.8 											"/>
										</defs>
										<clipPath id="SVGID_8_">
											<use xlink:href="#SVGID_7_"  style="overflow:visible;"/>
										</clipPath>
									</g>
									<g>
										<defs>
											<polygon id="SVGID_9_" points="108.9,234.5 109.2,234.5 108.9,234.8 											"/>
										</defs>
										<defs>
											<polygon id="SVGID_10_" points="108.3,234 108,234 108.3,233.7 											"/>
										</defs>
										<clipPath id="SVGID_11_">
											<use xlink:href="#SVGID_9_"  style="overflow:visible;"/>
										</clipPath>
										<clipPath id="SVGID_12_" class="st8">
											<use xlink:href="#SVGID_10_"  style="overflow:visible;"/>
										</clipPath>
										<path id="SvgjsPath1004_1_" class="st9" d="M124.9,242.5c0,4.5-3.7,8.1-8.1,8.1c-4.5,0-8.1-3.7-8.1-8.1
											c0-4.5,3.7-8.1,8.1-8.1C121.2,234.3,124.9,238,124.9,242.5z M116.7,236.2c-3.5,0-6.3,2.8-6.3,6.3s2.8,6.3,6.3,6.3
											c3.5,0,6.3-2.8,6.3-6.3S120.3,236.2,116.7,236.2z"/>
									</g>
								</g>
							</g>
						</g>
					</g>
				</g>
			</g>
		</g>
		<rect id="background_1_" x="108.6" y="234.2" class="st5" width="144.1" height="144.1"/>
		<path id="r0C9_1_" class="st10" d="M155.5,240h4.8v4.8h-4.8V240z"/>
		<path id="r0C10_1_" class="st10" d="M160.1,240h4.8v4.8h-4.8V240z"/>
		<path id="r0C13_1_" class="st10" d="M173.8,240h4.8v4.8h-4.8V240z"/>
		<path id="r0C17_1_" class="st10" d="M192.1,240h4.8v4.8h-4.8V240z"/>
		<path id="r0C18_1_" class="st10" d="M196.6,240h4.8v4.8h-4.8V240z"/>
		<path id="r1C9_1_" class="st10" d="M155.5,244.6h4.8v4.8h-4.8V244.6z"/>
		<path id="r1C12_1_" class="st10" d="M169.2,244.6h4.8v4.8h-4.8V244.6z"/>
		<path id="r1C13_1_" class="st10" d="M173.8,244.6h4.8v4.8h-4.8V244.6z"/>
		<path id="r1C14_1_" class="st10" d="M178.3,244.6h4.8v4.8h-4.8V244.6z"/>
		<path id="r1C15_1_" class="st10" d="M182.9,244.6h4.8v4.8h-4.8V244.6z"/>
		<path id="r1C18_1_" class="st10" d="M196.6,244.6h4.8v4.8h-4.8V244.6z"/>
		<path id="r2C9_1_" class="st10" d="M155.5,249.2h4.8v4.8h-4.8V249.2z"/>
		<path id="r2C12_1_" class="st10" d="M169.2,249.2h4.8v4.8h-4.8V249.2z"/>
		<path id="r2C13_1_" class="st10" d="M173.8,249.2h4.8v4.8h-4.8V249.2z"/>
		<path id="r2C14_1_" class="st10" d="M178.3,249.2h4.8v4.8h-4.8V249.2z"/>
		<path id="r2C15_1_" class="st10" d="M182.9,249.2h4.8v4.8h-4.8V249.2z"/>
		<path id="r2C18_1_" class="st10" d="M196.6,249.2h4.8v4.8h-4.8V249.2z"/>
		<path id="r2C19_1_" class="st10" d="M201.2,249.2h4.8v4.8h-4.8V249.2z"/>
		<path id="r2C20_1_" class="st10" d="M205.8,249.2h4.8v4.8h-4.8V249.2z"/>
		<path id="r3C12_1_" class="st10" d="M169.2,253.7h4.8v4.8h-4.8V253.7z"/>
		<path id="r3C13_1_" class="st10" d="M173.8,253.7h4.8v4.8h-4.8V253.7z"/>
		<path id="r3C14_1_" class="st10" d="M178.3,253.7h4.8v4.8h-4.8V253.7z"/>
		<path id="r3C15_1_" class="st10" d="M182.9,253.7h4.8v4.8h-4.8V253.7z"/>
		<path id="r3C16_1_" class="st10" d="M187.5,253.7h4.8v4.8h-4.8V253.7z"/>
		<path id="r3C17_1_" class="st10" d="M192.1,253.7h4.8v4.8h-4.8V253.7z"/>
		<path id="r3C19_1_" class="st10" d="M201.2,253.7h4.8v4.8h-4.8V253.7z"/>
		<path id="r4C8_1_" class="st10" d="M150.9,258.3h4.8v4.8h-4.8V258.3z"/>
		<path id="r4C9_1_" class="st10" d="M155.5,258.3h4.8v4.8h-4.8V258.3z"/>
		<path id="r4C13_1_" class="st10" d="M173.8,258.3h4.8v4.8h-4.8V258.3z"/>
		<path id="r4C16_1_" class="st10" d="M187.5,258.3h4.8v4.8h-4.8V258.3z"/>
		<path id="r4C19_1_" class="st10" d="M201.2,258.3h4.8v4.8h-4.8V258.3z"/>
		<path id="r5C9_1_" class="st10" d="M155.5,262.9h4.8v4.8h-4.8V262.9z"/>
		<path id="r5C11_1_" class="st10" d="M164.7,262.9h4.8v4.8h-4.8V262.9z"/>
		<path id="r5C12_1_" class="st10" d="M169.2,262.9h4.8v4.8h-4.8V262.9z"/>
		<path id="r5C13_1_" class="st10" d="M173.8,262.9h4.8v4.8h-4.8V262.9z"/>
		<path id="r5C14_1_" class="st10" d="M178.3,262.9h4.8v4.8h-4.8V262.9z"/>
		<path id="r5C17_1_" class="st10" d="M192.1,262.9h4.8v4.8h-4.8V262.9z"/>
		<path id="r5C18_1_" class="st10" d="M196.6,262.9h4.8v4.8h-4.8V262.9z"/>
		<path id="r5C19_1_" class="st10" d="M201.2,262.9h4.8v4.8h-4.8V262.9z"/>
		<path id="r5C20_1_" class="st10" d="M205.8,262.9h4.8v4.8h-4.8V262.9z"/>
		<path id="r6C8_1_" class="st10" d="M150.9,267.4h4.8v4.8h-4.8V267.4z"/>
		<path id="r6C10_1_" class="st10" d="M160.1,267.4h4.8v4.8h-4.8V267.4z"/>
		<path id="r6C12_1_" class="st10" d="M169.2,267.4h4.8v4.8h-4.8V267.4z"/>
		<path id="r6C14_1_" class="st10" d="M178.3,267.4h4.8v4.8h-4.8V267.4z"/>
		<path id="r6C16_1_" class="st10" d="M187.5,267.4h4.8v4.8h-4.8V267.4z"/>
		<path id="r6C18_1_" class="st10" d="M196.6,267.4h4.8v4.8h-4.8V267.4z"/>
		<path id="r6C20_1_" class="st10" d="M205.8,267.4h4.8v4.8h-4.8V267.4z"/>
		<path id="r7C8_1_" class="st10" d="M150.9,272h4.8v4.8h-4.8V272z"/>
		<path id="r7C9_1_" class="st10" d="M155.5,272h4.8v4.8h-4.8V272z"/>
		<path id="r7C12_1_" class="st10" d="M169.2,272h4.8v4.8h-4.8V272z"/>
		<path id="r7C15_1_" class="st10" d="M182.9,272h4.8v4.8h-4.8V272z"/>
		<path id="r7C16_1_" class="st10" d="M187.5,272h4.8v4.8h-4.8V272z"/>
		<path id="r7C19_1_" class="st10" d="M201.2,272h4.8v4.8h-4.8V272z"/>
		<path id="r7C20_1_" class="st10" d="M205.8,272h4.8v4.8h-4.8V272z"/>
		<path id="r8C2_1_" class="st10" d="M123.5,276.6h4.8v4.8h-4.8V276.6z"/>
		<path id="r8C3_1_" class="st10" d="M128.1,276.6h4.8v4.8h-4.8V276.6z"/>
		<path id="r8C6_1_" class="st10" d="M141.8,276.6h4.8v4.8h-4.8V276.6z"/>
		<path id="r8C7_1_" class="st10" d="M146.4,276.6h4.8v4.8h-4.8V276.6z"/>
		<path id="r8C8_1_" class="st10" d="M150.9,276.6h4.8v4.8h-4.8V276.6z"/>
		<path id="r8C10_1_" class="st10" d="M160.1,276.6h4.8v4.8h-4.8V276.6z"/>
		<path id="r8C11_1_" class="st10" d="M164.7,276.6h4.8v4.8h-4.8V276.6z"/>
		<path id="r8C12_1_" class="st10" d="M169.2,276.6h4.8v4.8h-4.8V276.6z"/>
		<path id="r8C13_1_" class="st10" d="M173.8,276.6h4.8v4.8h-4.8V276.6z"/>
		<path id="r8C14_1_" class="st10" d="M178.3,276.6h4.8v4.8h-4.8V276.6z"/>
		<path id="r8C18_1_" class="st10" d="M196.6,276.6h4.8v4.8h-4.8V276.6z"/>
		<path id="r8C19_1_" class="st10" d="M201.2,276.6h4.8v4.8h-4.8V276.6z"/>
		<path id="r8C21_1_" class="st10" d="M210.4,276.6h4.8v4.8h-4.8V276.6z"/>
		<path id="r8C22_1_" class="st10" d="M214.9,276.6h4.8v4.8h-4.8V276.6z"/>
		<path id="r8C24_1_" class="st10" d="M224,276.6h4.8v4.8H224V276.6z"/>
		<path id="r9C0_1_" class="st10" d="M114.4,281.1h4.8v4.8h-4.8V281.1z"/>
		<path id="r9C1_1_" class="st10" d="M118.9,281.1h4.8v4.8h-4.8V281.1z"/>
		<path id="r9C5_1_" class="st10" d="M137.2,281.1h4.8v4.8h-4.8V281.1z"/>
		<path id="r9C8_1_" class="st10" d="M150.9,281.1h4.8v4.8h-4.8V281.1z"/>
		<path id="r9C11_1_" class="st10" d="M164.7,281.1h4.8v4.8h-4.8V281.1z"/>
		<path id="r9C12_1_" class="st10" d="M169.2,281.1h4.8v4.8h-4.8V281.1z"/>
		<path id="r9C14_1_" class="st10" d="M178.3,281.1h4.8v4.8h-4.8V281.1z"/>
		<path id="r9C17_1_" class="st10" d="M192.1,281.1h4.8v4.8h-4.8V281.1z"/>
		<path id="r9C18_1_" class="st10" d="M196.6,281.1h4.8v4.8h-4.8V281.1z"/>
		<path id="r9C19_1_" class="st10" d="M201.2,281.1h4.8v4.8h-4.8V281.1z"/>
		<path id="r9C20_1_" class="st10" d="M205.8,281.1h4.8v4.8h-4.8V281.1z"/>
		<path id="r9C22_1_" class="st10" d="M214.9,281.1h4.8v4.8h-4.8V281.1z"/>
		<path id="r9C23_1_" class="st10" d="M219.5,281.1h4.8v4.8h-4.8V281.1z"/>
		<path id="r9C24_1_" class="st10" d="M224,281.1h4.8v4.8H224V281.1z"/>
		<path id="r9C25_1_" class="st10" d="M228.6,281.1h4.8v4.8h-4.8V281.1z"/>
		<path id="r9C26_1_" class="st10" d="M233.2,281.1h4.8v4.8h-4.8V281.1z"/>
		<path id="r9C28_1_" class="st10" d="M242.3,281.1h4.8v4.8h-4.8V281.1z"/>
		<path id="r10C0_1_" class="st10" d="M114.4,285.7h4.8v4.8h-4.8V285.7z"/>
		<path id="r10C1_1_" class="st10" d="M118.9,285.7h4.8v4.8h-4.8V285.7z"/>
		<path id="r10C2_1_" class="st10" d="M123.5,285.7h4.8v4.8h-4.8V285.7z"/>
		<path id="r10C6_1_" class="st10" d="M141.8,285.7h4.8v4.8h-4.8V285.7z"/>
		<path id="r10C7_1_" class="st10" d="M146.4,285.7h4.8v4.8h-4.8V285.7z"/>
		<path id="r10C8_1_" class="st10" d="M150.9,285.7h4.8v4.8h-4.8V285.7z"/>
		<path id="r10C10_1_" class="st10" d="M160.1,285.7h4.8v4.8h-4.8V285.7z"/>
		<path id="r10C11_1_" class="st10" d="M164.7,285.7h4.8v4.8h-4.8V285.7z"/>
		<path id="r10C12_1_" class="st10" d="M169.2,285.7h4.8v4.8h-4.8V285.7z"/>
		<path id="r10C13_1_" class="st10" d="M173.8,285.7h4.8v4.8h-4.8V285.7z"/>
		<path id="r10C15_1_" class="st10" d="M182.9,285.7h4.8v4.8h-4.8V285.7z"/>
		<path id="r10C18_1_" class="st10" d="M196.6,285.7h4.8v4.8h-4.8V285.7z"/>
		<path id="r10C21_1_" class="st10" d="M210.4,285.7h4.8v4.8h-4.8V285.7z"/>
		<path id="r10C22_1_" class="st10" d="M214.9,285.7h4.8v4.8h-4.8V285.7z"/>
		<path id="r10C25_1_" class="st10" d="M228.6,285.7h4.8v4.8h-4.8V285.7z"/>
		<path id="r10C26_1_" class="st10" d="M233.2,285.7h4.8v4.8h-4.8V285.7z"/>
		<path id="r10C27_1_" class="st10" d="M237.8,285.7h4.8v4.8h-4.8V285.7L237.8,285.7z"/>
		<path id="r11C0_1_" class="st10" d="M114.4,290.3h4.8v4.8h-4.8V290.3z"/>
		<path id="r11C4_1_" class="st10" d="M132.7,290.3h4.8v4.8h-4.8V290.3z"/>
		<path id="r11C8_1_" class="st10" d="M150.9,290.3h4.8v4.8h-4.8V290.3z"/>
		<path id="r11C10_1_" class="st10" d="M160.1,290.3h4.8v4.8h-4.8V290.3z"/>
		<path id="r11C12_1_" class="st10" d="M169.2,290.3h4.8v4.8h-4.8V290.3z"/>
		<path id="r11C13_1_" class="st10" d="M173.8,290.3h4.8v4.8h-4.8V290.3z"/>
		<path id="r11C14_1_" class="st10" d="M178.3,290.3h4.8v4.8h-4.8V290.3z"/>
		<path id="r11C17_1_" class="st10" d="M192.1,290.3h4.8v4.8h-4.8V290.3z"/>
		<path id="r11C18_1_" class="st10" d="M196.6,290.3h4.8v4.8h-4.8V290.3z"/>
		<path id="r11C20_1_" class="st10" d="M205.8,290.3h4.8v4.8h-4.8V290.3z"/>
		<path id="r11C21_1_" class="st10" d="M210.4,290.3h4.8v4.8h-4.8V290.3z"/>
		<path id="r11C23_1_" class="st10" d="M219.5,290.3h4.8v4.8h-4.8V290.3z"/>
		<path id="r11C28_1_" class="st10" d="M242.3,290.3h4.8v4.8h-4.8V290.3z"/>
		<path id="r12C2_1_" class="st10" d="M123.5,294.9h4.8v4.8h-4.8V294.9z"/>
		<path id="r12C3_1_" class="st10" d="M128.1,294.9h4.8v4.8h-4.8V294.9z"/>
		<path id="r12C4_1_" class="st10" d="M132.7,294.9h4.8v4.8h-4.8V294.9z"/>
		<path id="r12C5_1_" class="st10" d="M137.2,294.9h4.8v4.8h-4.8V294.9z"/>
		<path id="r12C6_1_" class="st10" d="M141.8,294.9h4.8v4.8h-4.8V294.9z"/>
		<path id="r12C9_1_" class="st10" d="M155.5,294.9h4.8v4.8h-4.8V294.9z"/>
		<path id="r12C10_1_" class="st10" d="M160.1,294.9h4.8v4.8h-4.8V294.9z"/>
		<path id="r12C11_1_" class="st10" d="M164.7,294.9h4.8v4.8h-4.8V294.9z"/>
		<path id="r12C12_1_" class="st10" d="M169.2,294.9h4.8v4.8h-4.8V294.9z"/>
		<path id="r12C13_1_" class="st10" d="M173.8,294.9h4.8v4.8h-4.8V294.9z"/>
		<path id="r12C14_1_" class="st10" d="M178.3,294.9h4.8v4.8h-4.8V294.9z"/>
		<path id="r12C15_1_" class="st10" d="M182.9,294.9h4.8v4.8h-4.8V294.9z"/>
		<path id="r12C17_1_" class="st10" d="M192.1,294.9h4.8v4.8h-4.8V294.9z"/>
		<path id="r12C19_1_" class="st10" d="M201.2,294.9h4.8v4.8h-4.8V294.9z"/>
		<path id="r12C21_1_" class="st10" d="M210.4,294.9h4.8v4.8h-4.8V294.9z"/>
		<path id="r12C25_1_" class="st10" d="M228.6,294.9h4.8v4.8h-4.8V294.9z"/>
		<path id="r12C26_1_" class="st10" d="M233.2,294.9h4.8v4.8h-4.8V294.9z"/>
		<path id="r12C27_1_" class="st10" d="M237.8,294.9h4.8v4.8h-4.8V294.9L237.8,294.9z"/>
		<path id="r12C28_1_" class="st10" d="M242.3,294.9h4.8v4.8h-4.8V294.9z"/>
		<path id="r13C0_1_" class="st10" d="M114.4,299.4h4.8v4.8h-4.8V299.4z"/>
		<path id="r13C3_1_" class="st10" d="M128.1,299.4h4.8v4.8h-4.8V299.4z"/>
		<path id="r13C4_1_" class="st10" d="M132.7,299.4h4.8v4.8h-4.8V299.4z"/>
		<path id="r13C7_1_" class="st10" d="M146.4,299.4h4.8v4.8h-4.8V299.4z"/>
		<path id="r13C8_1_" class="st10" d="M150.9,299.4h4.8v4.8h-4.8V299.4z"/>
		<path id="r13C10_1_" class="st10" d="M160.1,299.4h4.8v4.8h-4.8V299.4z"/>
		<path id="r13C12_1_" class="st10" d="M169.2,299.4h4.8v4.8h-4.8V299.4z"/>
		<path id="r13C13_1_" class="st10" d="M173.8,299.4h4.8v4.8h-4.8V299.4z"/>
		<path id="r13C18_1_" class="st10" d="M196.6,299.4h4.8v4.8h-4.8V299.4z"/>
		<path id="r13C19_1_" class="st10" d="M201.2,299.4h4.8v4.8h-4.8V299.4z"/>
		<path id="r13C22_1_" class="st10" d="M214.9,299.4h4.8v4.8h-4.8V299.4z"/>
		<path id="r13C23_1_" class="st10" d="M219.5,299.4h4.8v4.8h-4.8V299.4z"/>
		<path id="r13C25_1_" class="st10" d="M228.6,299.4h4.8v4.8h-4.8V299.4z"/>
		<path id="r13C26_1_" class="st10" d="M233.2,299.4h4.8v4.8h-4.8V299.4z"/>
		<path id="r13C28_1_" class="st10" d="M242.3,299.4h4.8v4.8h-4.8V299.4z"/>
		<path id="r14C1_1_" class="st10" d="M118.9,304h4.8v4.8h-4.8V304z"/>
		<path id="r14C2_1_" class="st10" d="M123.5,304h4.8v4.8h-4.8V304z"/>
		<path id="r14C4_1_" class="st10" d="M132.7,304h4.8v4.8h-4.8V304z"/>
		<path id="r14C6_1_" class="st10" d="M141.8,304h4.8v4.8h-4.8V304z"/>
		<path id="r14C8_1_" class="st10" d="M150.9,304h4.8v4.8h-4.8V304z"/>
		<path id="r14C13_1_" class="st10" d="M173.8,304h4.8v4.8h-4.8V304z"/>
		<path id="r14C14_1_" class="st10" d="M178.3,304h4.8v4.8h-4.8V304z"/>
		<path id="r14C16_1_" class="st10" d="M187.5,304h4.8v4.8h-4.8V304z"/>
		<path id="r14C19_1_" class="st10" d="M201.2,304h4.8v4.8h-4.8V304z"/>
		<path id="r14C22_1_" class="st10" d="M214.9,304h4.8v4.8h-4.8V304z"/>
		<path id="r14C24_1_" class="st10" d="M224,304h4.8v4.8H224V304z"/>
		<path id="r14C25_1_" class="st10" d="M228.6,304h4.8v4.8h-4.8V304z"/>
		<path id="r14C28_1_" class="st10" d="M242.3,304h4.8v4.8h-4.8V304z"/>
		<path id="r15C0_1_" class="st10" d="M114.4,308.5h4.8v4.8h-4.8V308.5z"/>
		<path id="r15C1_1_" class="st10" d="M118.9,308.5h4.8v4.8h-4.8V308.5z"/>
		<path id="r15C2_1_" class="st10" d="M123.5,308.5h4.8v4.8h-4.8V308.5z"/>
		<path id="r15C3_1_" class="st10" d="M128.1,308.5h4.8v4.8h-4.8V308.5z"/>
		<path id="r15C4_1_" class="st10" d="M132.7,308.5h4.8v4.8h-4.8V308.5z"/>
		<path id="r15C5_1_" class="st10" d="M137.2,308.5h4.8v4.8h-4.8V308.5z"/>
		<path id="r15C7_1_" class="st10" d="M146.4,308.5h4.8v4.8h-4.8V308.5z"/>
		<path id="r15C9_1_" class="st10" d="M155.5,308.5h4.8v4.8h-4.8V308.5z"/>
		<path id="r15C11_1_" class="st10" d="M164.7,308.5h4.8v4.8h-4.8V308.5z"/>
		<path id="r15C12_1_" class="st10" d="M169.2,308.5h4.8v4.8h-4.8V308.5z"/>
		<path id="r15C14_1_" class="st10" d="M178.3,308.5h4.8v4.8h-4.8V308.5z"/>
		<path id="r15C16_1_" class="st10" d="M187.5,308.5h4.8v4.8h-4.8V308.5z"/>
		<path id="r15C19_1_" class="st10" d="M201.2,308.5h4.8v4.8h-4.8V308.5z"/>
		<path id="r15C21_1_" class="st10" d="M210.4,308.5h4.8v4.8h-4.8V308.5z"/>
		<path id="r15C22_1_" class="st10" d="M214.9,308.5h4.8v4.8h-4.8V308.5z"/>
		<path id="r15C25_1_" class="st10" d="M228.6,308.5h4.8v4.8h-4.8V308.5z"/>
		<path id="r16C0_1_" class="st10" d="M114.4,313.2h4.8v4.8h-4.8V313.2z"/>
		<path id="r16C2_1_" class="st10" d="M123.5,313.2h4.8v4.8h-4.8V313.2z"/>
		<path id="r16C4_1_" class="st10" d="M132.7,313.2h4.8v4.8h-4.8V313.2z"/>
		<path id="r16C6_1_" class="st10" d="M141.8,313.2h4.8v4.8h-4.8V313.2z"/>
		<path id="r16C8_1_" class="st10" d="M150.9,313.2h4.8v4.8h-4.8V313.2z"/>
		<path id="r16C11_1_" class="st10" d="M164.7,313.2h4.8v4.8h-4.8V313.2z"/>
		<path id="r16C12_1_" class="st10" d="M169.2,313.2h4.8v4.8h-4.8V313.2z"/>
		<path id="r16C15_1_" class="st10" d="M182.9,313.2h4.8v4.8h-4.8V313.2z"/>
		<path id="r16C17_1_" class="st10" d="M192.1,313.2h4.8v4.8h-4.8V313.2z"/>
		<path id="r16C20_1_" class="st10" d="M205.8,313.2h4.8v4.8h-4.8V313.2z"/>
		<path id="r16C23_1_" class="st10" d="M219.5,313.2h4.8v4.8h-4.8V313.2z"/>
		<path id="r16C24_1_" class="st10" d="M224,313.2h4.8v4.8H224V313.2z"/>
		<path id="r16C25_1_" class="st10" d="M228.6,313.2h4.8v4.8h-4.8V313.2z"/>
		<path id="r16C27_1_" class="st10" d="M237.8,313.2h4.8v4.8h-4.8V313.2L237.8,313.2z"/>
		<path id="r17C4_1_" class="st10" d="M132.7,317.7h4.8v4.8h-4.8V317.7z"/>
		<path id="r17C7_1_" class="st10" d="M146.4,317.7h4.8v4.8h-4.8V317.7z"/>
		<path id="r17C9_1_" class="st10" d="M155.5,317.7h4.8v4.8h-4.8V317.7z"/>
		<path id="r17C10_1_" class="st10" d="M160.1,317.7h4.8v4.8h-4.8V317.7z"/>
		<path id="r17C11_1_" class="st10" d="M164.7,317.7h4.8v4.8h-4.8V317.7z"/>
		<path id="r17C12_1_" class="st10" d="M169.2,317.7h4.8v4.8h-4.8V317.7z"/>
		<path id="r17C13_1_" class="st10" d="M173.8,317.7h4.8v4.8h-4.8V317.7z"/>
		<path id="r17C15_1_" class="st10" d="M182.9,317.7h4.8v4.8h-4.8V317.7z"/>
		<path id="r17C17_1_" class="st10" d="M192.1,317.7h4.8v4.8h-4.8V317.7z"/>
		<path id="r17C20_1_" class="st10" d="M205.8,317.7h4.8v4.8h-4.8V317.7z"/>
		<path id="r17C23_1_" class="st10" d="M219.5,317.7h4.8v4.8h-4.8V317.7z"/>
		<path id="r18C0_1_" class="st10" d="M114.4,322.3h4.8v4.8h-4.8V322.3z"/>
		<path id="r18C4_1_" class="st10" d="M132.7,322.3h4.8v4.8h-4.8V322.3z"/>
		<path id="r18C6_1_" class="st10" d="M141.8,322.3h4.8v4.8h-4.8V322.3z"/>
		<path id="r18C7_1_" class="st10" d="M146.4,322.3h4.8v4.8h-4.8V322.3z"/>
		<path id="r18C9_1_" class="st10" d="M155.5,322.3h4.8v4.8h-4.8V322.3z"/>
		<path id="r18C10_1_" class="st10" d="M160.1,322.3h4.8v4.8h-4.8V322.3z"/>
		<path id="r18C11_1_" class="st10" d="M164.7,322.3h4.8v4.8h-4.8V322.3z"/>
		<path id="r18C14_1_" class="st10" d="M178.3,322.3h4.8v4.8h-4.8V322.3z"/>
		<path id="r18C16_1_" class="st10" d="M187.5,322.3h4.8v4.8h-4.8V322.3z"/>
		<path id="r18C18_1_" class="st10" d="M196.6,322.3h4.8v4.8h-4.8V322.3z"/>
		<path id="r18C20_1_" class="st10" d="M205.8,322.3h4.8v4.8h-4.8V322.3z"/>
		<path id="r18C22_1_" class="st10" d="M214.9,322.3h4.8v4.8h-4.8V322.3z"/>
		<path id="r18C23_1_" class="st10" d="M219.5,322.3h4.8v4.8h-4.8V322.3z"/>
		<path id="r19C7_1_" class="st10" d="M146.4,326.8h4.8v4.8h-4.8V326.8z"/>
		<path id="r19C11_1_" class="st10" d="M164.7,326.8h4.8v4.8h-4.8V326.8z"/>
		<path id="r19C12_1_" class="st10" d="M169.2,326.8h4.8v4.8h-4.8V326.8z"/>
		<path id="r19C13_1_" class="st10" d="M173.8,326.8h4.8v4.8h-4.8V326.8z"/>
		<path id="r19C14_1_" class="st10" d="M178.3,326.8h4.8v4.8h-4.8V326.8z"/>
		<path id="r19C16_1_" class="st10" d="M187.5,326.8h4.8v4.8h-4.8V326.8z"/>
		<path id="r19C19_1_" class="st10" d="M201.2,326.8h4.8v4.8h-4.8V326.8z"/>
		<path id="r19C20_1_" class="st10" d="M205.8,326.8h4.8v4.8h-4.8V326.8z"/>
		<path id="r19C21_1_" class="st10" d="M210.4,326.8h4.8v4.8h-4.8V326.8z"/>
		<path id="r19C22_1_" class="st10" d="M214.9,326.8h4.8v4.8h-4.8V326.8z"/>
		<path id="r19C25_1_" class="st10" d="M228.6,326.8h4.8v4.8h-4.8V326.8z"/>
		<path id="r19C26_1_" class="st10" d="M233.2,326.8h4.8v4.8h-4.8V326.8z"/>
		<path id="r19C27_1_" class="st10" d="M237.8,326.8h4.8v4.8h-4.8V326.8L237.8,326.8z"/>
		<path id="r19C28_1_" class="st10" d="M242.3,326.8h4.8v4.8h-4.8V326.8z"/>
		<path id="r20C1_1_" class="st10" d="M118.9,331.4h4.8v4.8h-4.8V331.4z"/>
		<path id="r20C2_1_" class="st10" d="M123.5,331.4h4.8v4.8h-4.8V331.4z"/>
		<path id="r20C6_1_" class="st10" d="M141.8,331.4h4.8v4.8h-4.8V331.4z"/>
		<path id="r20C7_1_" class="st10" d="M146.4,331.4h4.8v4.8h-4.8V331.4z"/>
		<path id="r20C8_1_" class="st10" d="M150.9,331.4h4.8v4.8h-4.8V331.4z"/>
		<path id="r20C9_1_" class="st10" d="M155.5,331.4h4.8v4.8h-4.8V331.4z"/>
		<path id="r20C11_1_" class="st10" d="M164.7,331.4h4.8v4.8h-4.8V331.4z"/>
		<path id="r20C14_1_" class="st10" d="M178.3,331.4h4.8v4.8h-4.8V331.4z"/>
		<path id="r20C15_1_" class="st10" d="M182.9,331.4h4.8v4.8h-4.8V331.4z"/>
		<path id="r20C19_1_" class="st10" d="M201.2,331.4h4.8v4.8h-4.8V331.4z"/>
		<path id="r20C20_1_" class="st10" d="M205.8,331.4h4.8v4.8h-4.8V331.4z"/>
		<path id="r20C21_1_" class="st10" d="M210.4,331.4h4.8v4.8h-4.8V331.4z"/>
		<path id="r20C22_1_" class="st10" d="M214.9,331.4h4.8v4.8h-4.8V331.4z"/>
		<path id="r20C23_1_" class="st10" d="M219.5,331.4h4.8v4.8h-4.8V331.4z"/>
		<path id="r20C24_1_" class="st10" d="M224,331.4h4.8v4.8H224V331.4z"/>
		<path id="r20C25_1_" class="st10" d="M228.6,331.4h4.8v4.8h-4.8V331.4z"/>
		<path id="r20C26_1_" class="st10" d="M233.2,331.4h4.8v4.8h-4.8V331.4z"/>
		<path id="r20C27_1_" class="st10" d="M237.8,331.4h4.8v4.8h-4.8V331.4L237.8,331.4z"/>
		<path id="r20C28_1_" class="st10" d="M242.3,331.4h4.8v4.8h-4.8V331.4z"/>
		<path id="r21C8_1_" class="st10" d="M150.9,336h4.8v4.8h-4.8V336z"/>
		<path id="r21C14_1_" class="st10" d="M178.3,336h4.8v4.8h-4.8V336z"/>
		<path id="r21C16_1_" class="st10" d="M187.5,336h4.8v4.8h-4.8V336z"/>
		<path id="r21C18_1_" class="st10" d="M196.6,336h4.8v4.8h-4.8V336z"/>
		<path id="r21C19_1_" class="st10" d="M201.2,336h4.8v4.8h-4.8V336z"/>
		<path id="r21C20_1_" class="st10" d="M205.8,336h4.8v4.8h-4.8V336z"/>
		<path id="r21C24_1_" class="st10" d="M224,336h4.8v4.8H224V336z"/>
		<path id="r21C25_1_" class="st10" d="M228.6,336h4.8v4.8h-4.8V336z"/>
		<path id="r21C27_1_" class="st10" d="M237.8,336h4.8v4.8h-4.8V336L237.8,336z"/>
		<path id="r21C28_1_" class="st10" d="M242.3,336h4.8v4.8h-4.8V336z"/>
		<path id="r22C8_1_" class="st10" d="M150.9,340.6h4.8v4.8h-4.8V340.6z"/>
		<path id="r22C9_1_" class="st10" d="M155.5,340.6h4.8v4.8h-4.8V340.6z"/>
		<path id="r22C10_1_" class="st10" d="M160.1,340.6h4.8v4.8h-4.8V340.6z"/>
		<path id="r22C12_1_" class="st10" d="M169.2,340.6h4.8v4.8h-4.8V340.6z"/>
		<path id="r22C13_1_" class="st10" d="M173.8,340.6h4.8v4.8h-4.8V340.6z"/>
		<path id="r22C16_1_" class="st10" d="M187.5,340.6h4.8v4.8h-4.8V340.6z"/>
		<path id="r22C17_1_" class="st10" d="M192.1,340.6h4.8v4.8h-4.8V340.6z"/>
		<path id="r22C18_1_" class="st10" d="M196.6,340.6h4.8v4.8h-4.8V340.6z"/>
		<path id="r22C19_1_" class="st10" d="M201.2,340.6h4.8v4.8h-4.8V340.6z"/>
		<path id="r22C20_1_" class="st10" d="M205.8,340.6h4.8v4.8h-4.8V340.6z"/>
		<path id="r22C22_1_" class="st10" d="M214.9,340.6h4.8v4.8h-4.8V340.6z"/>
		<path id="r22C24_1_" class="st10" d="M224,340.6h4.8v4.8H224V340.6z"/>
		<path id="r22C26_1_" class="st10" d="M233.2,340.6h4.8v4.8h-4.8V340.6z"/>
		<path id="r22C27_1_" class="st10" d="M237.8,340.6h4.8v4.8h-4.8V340.6L237.8,340.6z"/>
		<path id="r23C10_1_" class="st10" d="M160.1,345.1h4.8v4.8h-4.8V345.1z"/>
		<path id="r23C12_1_" class="st10" d="M169.2,345.1h4.8v4.8h-4.8V345.1z"/>
		<path id="r23C15_1_" class="st10" d="M182.9,345.1h4.8v4.8h-4.8V345.1z"/>
		<path id="r23C16_1_" class="st10" d="M187.5,345.1h4.8v4.8h-4.8V345.1z"/>
		<path id="r23C17_1_" class="st10" d="M192.1,345.1h4.8v4.8h-4.8V345.1z"/>
		<path id="r23C20_1_" class="st10" d="M205.8,345.1h4.8v4.8h-4.8V345.1z"/>
		<path id="r23C24_1_" class="st10" d="M224,345.1h4.8v4.8H224V345.1z"/>
		<path id="r23C28_1_" class="st10" d="M242.3,345.1h4.8v4.8h-4.8V345.1z"/>
		<path id="r24C10_1_" class="st10" d="M160.1,349.7h4.8v4.8h-4.8V349.7z"/>
		<path id="r24C12_1_" class="st10" d="M169.2,349.7h4.8v4.8h-4.8V349.7z"/>
		<path id="r24C14_1_" class="st10" d="M178.3,349.7h4.8v4.8h-4.8V349.7z"/>
		<path id="r24C18_1_" class="st10" d="M196.6,349.7h4.8v4.8h-4.8V349.7z"/>
		<path id="r24C20_1_" class="st10" d="M205.8,349.7h4.8v4.8h-4.8V349.7z"/>
		<path id="r24C21_1_" class="st10" d="M210.4,349.7h4.8v4.8h-4.8V349.7z"/>
		<path id="r24C22_1_" class="st10" d="M214.9,349.7h4.8v4.8h-4.8V349.7z"/>
		<path id="r24C23_1_" class="st10" d="M219.5,349.7h4.8v4.8h-4.8V349.7z"/>
		<path id="r24C24_1_" class="st10" d="M224,349.7h4.8v4.8H224V349.7z"/>
		<path id="r24C25_1_" class="st10" d="M228.6,349.7h4.8v4.8h-4.8V349.7z"/>
		<path id="r24C26_1_" class="st10" d="M233.2,349.7h4.8v4.8h-4.8V349.7z"/>
		<path id="r25C8_1_" class="st10" d="M150.9,354.2h4.8v4.8h-4.8V354.2z"/>
		<path id="r25C10_1_" class="st10" d="M160.1,354.2h4.8v4.8h-4.8V354.2z"/>
		<path id="r25C11_1_" class="st10" d="M164.7,354.2h4.8v4.8h-4.8V354.2z"/>
		<path id="r25C14_1_" class="st10" d="M178.3,354.2h4.8v4.8h-4.8V354.2z"/>
		<path id="r25C15_1_" class="st10" d="M182.9,354.2h4.8v4.8h-4.8V354.2z"/>
		<path id="r25C18_1_" class="st10" d="M196.6,354.2h4.8v4.8h-4.8V354.2z"/>
		<path id="r25C19_1_" class="st10" d="M201.2,354.2h4.8v4.8h-4.8V354.2z"/>
		<path id="r25C20_1_" class="st10" d="M205.8,354.2h4.8v4.8h-4.8V354.2z"/>
		<path id="r25C21_1_" class="st10" d="M210.4,354.2h4.8v4.8h-4.8V354.2z"/>
		<path id="r25C24_1_" class="st10" d="M224,354.2h4.8v4.8H224V354.2z"/>
		<path id="r25C27_1_" class="st10" d="M237.8,354.2h4.8v4.8h-4.8V354.2L237.8,354.2z"/>
		<path id="r26C8_1_" class="st10" d="M150.9,358.8h4.8v4.8h-4.8V358.8z"/>
		<path id="r26C9_1_" class="st10" d="M155.5,358.8h4.8v4.8h-4.8V358.8z"/>
		<path id="r26C10_1_" class="st10" d="M160.1,358.8h4.8v4.8h-4.8V358.8z"/>
		<path id="r26C16_1_" class="st10" d="M187.5,358.8h4.8v4.8h-4.8V358.8z"/>
		<path id="r26C19_1_" class="st10" d="M201.2,358.8h4.8v4.8h-4.8V358.8z"/>
		<path id="r26C21_1_" class="st10" d="M210.4,358.8h4.8v4.8h-4.8V358.8z"/>
		<path id="r26C28_1_" class="st10" d="M242.3,358.8h4.8v4.8h-4.8V358.8z"/>
		<path id="r27C10_1_" class="st10" d="M160.1,363.4h4.8v4.8h-4.8V363.4z"/>
		<path id="r27C11_1_" class="st10" d="M164.7,363.4h4.8v4.8h-4.8V363.4z"/>
		<path id="r27C12_1_" class="st10" d="M169.2,363.4h4.8v4.8h-4.8V363.4z"/>
		<path id="r27C14_1_" class="st10" d="M178.3,363.4h4.8v4.8h-4.8V363.4z"/>
		<path id="r27C15_1_" class="st10" d="M182.9,363.4h4.8v4.8h-4.8V363.4z"/>
		<path id="r27C16_1_" class="st10" d="M187.5,363.4h4.8v4.8h-4.8V363.4z"/>
		<path id="r27C20_1_" class="st10" d="M205.8,363.4h4.8v4.8h-4.8V363.4z"/>
		<path id="r27C22_1_" class="st10" d="M214.9,363.4h4.8v4.8h-4.8V363.4z"/>
		<path id="r27C24_1_" class="st10" d="M224,363.4h4.8v4.8H224V363.4z"/>
		<path id="r27C25_1_" class="st10" d="M228.6,363.4h4.8v4.8h-4.8V363.4z"/>
		<path id="r27C27_1_" class="st10" d="M237.8,363.4h4.8v4.8h-4.8V363.4L237.8,363.4z"/>
		<path id="r28C10_1_" class="st10" d="M160.1,368h4.8v4.8h-4.8V368z"/>
		<path id="r28C12_1_" class="st10" d="M169.2,368h4.8v4.8h-4.8V368z"/>
		<path id="r28C14_1_" class="st10" d="M178.3,368h4.8v4.8h-4.8V368z"/>
		<path id="r28C15_1_" class="st10" d="M182.9,368h4.8v4.8h-4.8V368z"/>
		<path id="r28C16_1_" class="st10" d="M187.5,368h4.8v4.8h-4.8V368z"/>
		<path id="r28C17_1_" class="st10" d="M192.1,368h4.8v4.8h-4.8V368z"/>
		<path id="r28C19_1_" class="st10" d="M201.2,368h4.8v4.8h-4.8V368z"/>
		<path id="r28C20_1_" class="st10" d="M205.8,368h4.8v4.8h-4.8V368z"/>
		<path id="r28C22_1_" class="st10" d="M214.9,368h4.8v4.8h-4.8V368z"/>
		<path id="r28C23_1_" class="st10" d="M219.5,368h4.8v4.8h-4.8V368z"/>
		<path id="r28C27_1_" class="st10" d="M237.8,368h4.8v4.8h-4.8V368L237.8,368z"/>
		<path id="outerEye_3_" class="st10" d="M114.4,240v32h32v-32H114.4z M141.8,267.4h-22.9v-22.9h22.9V272V267.4L141.8,267.4z"/>
		<path id="outerEye_2_" class="st10" d="M114.4,340.6v32h32v-32H114.4z M141.8,368h-22.9v-22.9h22.9v27.4V368L141.8,368z"/>
		<path id="outerEye_1_" class="st10" d="M214.9,240v32h32v-32H214.9z M242.3,267.4h-22.9v-22.9h22.9V272V267.4z"/>
		<path id="innerEye_3_" class="st10" d="M123.5,249.2v13.7h13.7v-13.7L123.5,249.2L123.5,249.2z"/>
		<path id="innerEye_2_" class="st10" d="M224,249.2v13.7h13.7v-13.7L224,249.2L224,249.2z"/>
		<path id="innerEye_1_" class="st10" d="M123.5,349.7v13.7h13.7v-13.7H123.5z"/>
	</g>
</g>
<g id="TEXT_1">
	<rect x="0" y="109.7" class="st11" width="361" height="14.9"/>
	<text id="TEXT_2_1_" transform="matrix(1 0 0 1 130.2162 123.6778)" class="st5 st12 st13 st14">HAPPY</text>
</g>
<g id="TEXT_2_2_">
	<rect x="-0.1" y="134.9" class="st11" width="361.2" height="69.4"/>
	<text id="TEX_1" transform="matrix(1 0 0 1 57.3134 189.0395)" class="st5 st15 st16">Birthday!</text>
</g>
<g id="TEXT_3">
	<rect x="-0.4" y="207.4" class="st11" width="361" height="14.9"/>
	<text id="TEXT_2" transform="matrix(1 0 0 1 101.1866 216.4835)" class="st5 st17 st18">SCAN TO SEE SURPRISE!</text>
</g>
</svg>
