<?xml version="1.0" encoding="UTF-8"?>
<svg width="24px" height="24px" viewBox="0 0 24 24" version="1.1" xmlns="http://www.w3.org/2000/svg" xmlns:xlink="http://www.w3.org/1999/xlink">
    <title>0BD7540E-642D-400B-8D63-C7DFD8518924</title>
    <g id="Styleguide" stroke="none" stroke-width="1" fill="none" fill-rule="evenodd">
        <g id="10.03-Icone" transform="translate(-231.000000, -373.000000)" fill="#1D4ED8" fill-rule="nonzero">
            <g id="icon/arrow/arrow_multiple_right" transform="translate(231.000000, 373.000000)">
                <path d="M11.7071068,6.29289322 C12.0675907,6.65337718 12.0953203,7.22060824 11.7902954,7.61289944 L11.7071068,7.70710678 L7.415,12 L11.7071068,16.2928932 C12.0675907,16.6533772 12.0953203,17.2206082 11.7902954,17.6128994 L11.7071068,17.7071068 C11.3466228,18.0675907 10.7793918,18.0953203 10.3871006,17.7902954 L10.2928932,17.7071068 L5.29289322,12.7071068 C4.93240926,12.3466228 4.90467972,11.7793918 5.20970461,11.3871006 L5.29289322,11.2928932 L10.2928932,6.29289322 C10.6834175,5.90236893 11.3165825,5.90236893 11.7071068,6.29289322 Z M18.7071068,6.29289322 C19.0675907,6.65337718 19.0953203,7.22060824 18.7902954,7.61289944 L18.7071068,7.70710678 L14.415,12 L18.7071068,16.2928932 C19.0675907,16.6533772 19.0953203,17.2206082 18.7902954,17.6128994 L18.7071068,17.7071068 C18.3466228,18.0675907 17.7793918,18.0953203 17.3871006,17.7902954 L17.2928932,17.7071068 L12.2928932,12.7071068 C11.9324093,12.3466228 11.9046797,11.7793918 12.2097046,11.3871006 L12.2928932,11.2928932 L17.2928932,6.29289322 C17.6834175,5.90236893 18.3165825,5.90236893 18.7071068,6.29289322 Z" id="Combined-Shape" transform="translate(12.000000, 12.000000) scale(-1, 1) translate(-12.000000, -12.000000) "></path>
            </g>
        </g>
    </g>
</svg>