<?xml version="1.0" encoding="UTF-8"?>
<svg width="40px" height="40px" viewBox="0 0 40 40" version="1.1" xmlns="http://www.w3.org/2000/svg" xmlns:xlink="http://www.w3.org/1999/xlink">
    <title>276B0B75-1E37-4E15-B457-BFF69570522E</title>
    <g id="Styleguide" stroke="none" stroke-width="1" fill="none" fill-rule="evenodd">
        <g id="10.03-Icone" transform="translate(-1058.000000, -343.000000)" fill="#1D4ED8" fill-rule="nonzero">
            <g id="icon-/-big-/big_match_automatic" transform="translate(1058.000000, 343.000000)">
                <path d="M22.4,3 C25.0887547,3 27.2818181,5.12230671 27.3953805,7.78311038 L27.4,8 L27.4,12.6 L32,12.6 C34.6887547,12.6 36.8818181,14.7223067 36.9953805,17.3831104 L37,17.6 L37,32 C37,34.6887547 34.8776933,36.8818181 32.2168896,36.9953805 L32,37 L17.6,37 C14.9112453,37 12.7181819,34.8776933 12.6046195,32.2168896 L12.6,32 L12.6,27.4 L8,27.4 C5.3112453,27.4 3.11818189,25.2776933 3.00461951,22.6168896 L3,22.4 L3,8 C3,5.3112453 5.12230671,3.11818189 7.78311038,3.00461951 L8,3 L22.4,3 Z M32,14.6 L17.6,14.6 C16.0023191,14.6 14.6963391,15.84892 14.6050927,17.4237272 L14.6,17.6 L14.6,32 C14.6,33.5976809 15.84892,34.9036609 17.4237272,34.9949073 L17.6,35 L32,35 C33.5976809,35 34.9036609,33.75108 34.9949073,32.1762728 L35,32 L35,17.6 C35,16.0023191 33.75108,14.6963391 32.1762728,14.6050927 L32,14.6 Z M26.0176589,18.1382498 L30.709645,30.5366742 C30.8841255,30.9977334 30.6518076,31.5129401 30.1907484,31.6874206 C30.0897997,31.7256231 29.982759,31.7451995 29.8748235,31.7451995 L29.2914449,31.7451995 C28.8668387,31.7451995 28.488528,31.4770567 28.3478907,31.0764177 L27.4177452,28.4266755 L27.4177452,28.4266755 L21.8966609,28.4266755 L20.9751954,31.0739363 C20.8352945,31.4758552 20.4563453,31.7451995 20.0307738,31.7451995 L19.4542663,31.7451995 C18.9628484,31.7451995 18.5644755,31.3468266 18.5644755,30.8554087 C18.5644755,30.7479927 18.5839252,30.6414642 18.6218834,30.5409784 L23.3067677,18.1388119 C23.4537593,17.7496851 23.8262851,17.4921875 24.2422493,17.4921875 L25.0823899,17.4921875 C25.4981343,17.4921875 25.8705113,17.749417 26.0176589,18.1382498 Z M24.657203,20.5170369 L22.591691,26.4296875 L26.7227151,26.4296875 L24.657203,20.5170369 Z M22.4,5 L8,5 C6.40231912,5 5.09633912,6.24891996 5.00509269,7.82372721 L5,8 L5,22.4 C5,23.9976809 6.24891996,25.3036609 7.82372721,25.3949073 L8,25.4 L12.6,25.4 L12.6,17.6 C12.6,14.9112453 14.7223067,12.7181819 17.3831104,12.6046195 L17.6,12.6 L25.4,12.6 L25.4,8 C25.4,6.40231912 24.15108,5.09633912 22.5762728,5.00509269 L22.4,5 Z" id="Shape"></path>
            </g>
        </g>
    </g>
</svg>