<?xml version="1.0" encoding="UTF-8"?>
<svg width="40px" height="40px" viewBox="0 0 40 40" version="1.1" xmlns="http://www.w3.org/2000/svg" xmlns:xlink="http://www.w3.org/1999/xlink">
    <title>3B74A64F-8CB3-4054-B0A5-F7341C694129</title>
    <g id="Styleguide" stroke="none" stroke-width="1" fill="none" fill-rule="evenodd">
        <g id="10.03-Icone" transform="translate(-1058.000000, -288.000000)" fill="#1D4ED8" fill-rule="nonzero">
            <g id="icon-/-big-/-big_match" transform="translate(1058.000000, 288.000000)">
                <path d="M22.4,3 C25.0887547,3 27.2818181,5.12230671 27.3953805,7.78311038 L27.4,8 L27.4,12.599 L32,12.6 C34.6887547,12.6 36.8818181,14.7223067 36.9953805,17.3831104 L37,17.6 L37,32 C37,34.6887547 34.8776933,36.8818181 32.2168896,36.9953805 L32,37 L17.6,37 C14.9112453,37 12.7181819,34.8776933 12.6046195,32.2168896 L12.6,32 L12.6,27.4 L8,27.4 C5.3112453,27.4 3.11818189,25.2776933 3.00461951,22.6168896 L3,22.4 L3,8 C3,5.3112453 5.12230671,3.11818189 7.78311038,3.00461951 L8,3 L22.4,3 Z M32,14.6 L27.4,14.599 L27.4,22.4 C27.4,25.0887547 25.2776933,27.2818181 22.6168896,27.3953805 L22.4,27.4 L14.6,27.4 L14.6,32 C14.6,33.5976809 15.84892,34.9036609 17.4237272,34.9949073 L17.6,35 L32,35 C33.5976809,35 34.9036609,33.75108 34.9949073,32.1762728 L35,32 L35,17.6 C35,16.0023191 33.75108,14.6963391 32.1762728,14.6050927 L32,14.6 Z M22.4,5 L8,5 C6.40231912,5 5.09633912,6.24891996 5.00509269,7.82372721 L5,8 L5,22.4 C5,23.9976809 6.24891996,25.3036609 7.82372721,25.3949073 L8,25.4 L12.6,25.4 L12.6,17.6 C12.6,14.9112453 14.7223067,12.7181819 17.3831104,12.6046195 L17.6,12.6 L25.4,12.599 L25.4,8 C25.4,6.40231912 24.15108,5.09633912 22.5762728,5.00509269 L22.4,5 Z M25.4,14.599 L17.6,14.6 C16.0023191,14.6 14.6963391,15.84892 14.6050927,17.4237272 L14.6,17.6 L14.6,25.4 L22.4,25.4 C23.9976809,25.4 25.3036609,24.15108 25.3949073,22.5762728 L25.4,22.4 L25.4,14.599 Z" id="Shape"></path>
            </g>
        </g>
    </g>
</svg>