<?xml version="1.0" encoding="UTF-8"?>
<svg width="40px" height="40px" viewBox="0 0 40 40" version="1.1" xmlns="http://www.w3.org/2000/svg" xmlns:xlink="http://www.w3.org/1999/xlink">
    <title>3C595295-F489-400C-8216-432358FC3AD1</title>
    <g id="Styleguide" stroke="none" stroke-width="1" fill="none" fill-rule="evenodd">
        <g id="10.03-Icone" transform="translate(-1058.000000, -233.000000)" fill="#1D4ED8" fill-rule="nonzero">
            <g id="icon-/-big-/-big_confirm" transform="translate(1058.000000, 233.000000)">
                <path d="M27.3260283,3.55916686 C27.8305008,3.78394667 28.0572365,4.37512245 27.8324567,4.87959493 C27.6076769,5.38406741 27.0165011,5.61080313 26.5120286,5.38602333 C20.0395883,2.50207243 12.4411667,4.21883533 7.83732335,9.6053261 C3.23347996,14.9918169 2.72092658,22.7648841 6.57761655,28.7092595 C10.4343065,34.6536349 17.7415123,37.3532698 24.5365984,35.344175 C31.2202896,33.3680162 35.8424493,27.2992835 35.9960547,20.3583118 L35.9999942,20.0105512 L35.9999942,18.4465556 C35.9999942,17.8942709 36.4477153,17.4465556 36.9999942,17.4465556 C37.5128358,17.4465556 37.9355072,17.8325958 37.9932723,18.3299345 L37.9999942,18.4465556 L37.9999942,20.011123 C37.9954419,27.9827363 32.748143,35.0018664 25.1036686,37.2620987 C17.4591942,39.5223311 9.2385849,36.4852409 4.89980724,29.7978163 C0.561029579,23.1103917 1.13765232,14.3656882 6.31697786,8.30588407 C11.4963034,2.24607993 20.0445305,0.314721026 27.3260283,3.55916686 Z M37.7067533,5.70312955 C38.0674174,6.06343332 38.0954304,6.63065045 37.7906016,7.02309404 L37.7074601,7.11734294 L20.7075081,24.1342949 C20.347077,24.4950864 19.7796177,24.5229745 19.3871826,24.2178636 L19.2929412,24.1346484 L14.1929556,19.0346628 C13.8024313,18.6441385 13.8024313,18.0109735 14.1929556,17.6204492 C14.5534396,17.2599652 15.1206706,17.2322357 15.5129618,17.5372606 L15.6071692,17.6204492 L19.999,22.012 L36.2925399,5.70383631 C36.682869,5.3131169 37.3160339,5.31280048 37.7067533,5.70312955 Z" id="Shape"></path>
            </g>
        </g>
    </g>
</svg>