<?xml version="1.0" encoding="UTF-8"?>
<svg width="24px" height="24px" viewBox="0 0 24 24" version="1.1" xmlns="http://www.w3.org/2000/svg" xmlns:xlink="http://www.w3.org/1999/xlink">
    <title>4C6548B3-0F7D-4E0E-9945-0D7AB477FB8D</title>
    <g id="Styleguide" stroke="none" stroke-width="1" fill="none" fill-rule="evenodd">
        <g id="10.03-Icone" transform="translate(-60.000000, -178.000000)" fill="#1D4ED8" fill-rule="nonzero">
            <g id="icon/system/calendar" transform="translate(60.000000, 178.000000)">
                <path d="M16,1 C16.5128358,1 16.9355072,1.38604019 16.9932723,1.88337887 L17,2 L17,3 L19,3 C20.5976809,3 21.9036609,4.24891996 21.9949073,5.82372721 L22,6 L22,20 C22,21.6568542 20.6568542,23 19,23 L19,23 L5,23 C3.34314575,23 2,21.6568542 2,20 L2,20 L2,6 C2,4.34314575 3.34314575,3 5,3 L5,3 L7,3 L7,2 C7,1.44771525 7.44771525,1 8,1 C8.51283584,1 8.93550716,1.38604019 8.99327227,1.88337887 L9,2 L9,3 L15,3 L15,2 C15,1.44771525 15.4477153,1 16,1 Z M20,11 L4,11 L4,20 C4,20.5128358 4.38604019,20.9355072 4.88337887,20.9932723 L5,21 L19,21 C19.5522847,21 20,20.5522847 20,20 L20,20 L20,11 Z M7,5 L5,5 C4.44771525,5 4,5.44771525 4,6 L4,6 L4,9 L20,9 L20,6 C20,5.48716416 19.6139598,5.06449284 19.1166211,5.00672773 L19,5 L17,5 L17,6 C17,6.55228475 16.5522847,7 16,7 C15.4871642,7 15.0644928,6.61395981 15.0067277,6.11662113 L15,6 L15,5 L9,5 L9,6 C9,6.55228475 8.55228475,7 8,7 C7.48716416,7 7.06449284,6.61395981 7.00672773,6.11662113 L7,6 L7,5 Z" id="Combined-Shape"></path>
            </g>
        </g>
    </g>
</svg>