<?xml version="1.0" encoding="UTF-8"?>
<svg width="24px" height="24px" viewBox="0 0 24 24" version="1.1" xmlns="http://www.w3.org/2000/svg" xmlns:xlink="http://www.w3.org/1999/xlink">
    <title>41C65B17-4C30-442E-8AD7-931C17281E1D</title>
    <g id="Styleguide" stroke="none" stroke-width="1" fill="none" fill-rule="evenodd">
        <g id="10.03-Icone" transform="translate(-231.000000, -502.000000)" fill="#94A3B8">
            <g id="icon/checkbox/checkbox_off" transform="translate(231.000000, 502.000000)">
                <path d="M19,2 L5,2 C3.34314575,2 2,3.34314575 2,5 L2,19 C2,20.6568542 3.34314575,22 5,22 L19,22 C20.6568542,22 22,20.6568542 22,19 L22,5 C22,3.34314575 20.6568542,2 19,2 Z M5,4 L19,4 C19.5522847,4 20,4.44771525 20,5 L20,19 C20,19.5522847 19.5522847,20 19,20 L5,20 C4.44771525,20 4,19.5522847 4,19 L4,5 C4,4.44771525 4.44771525,4 5,4 Z" id="Rectangle"></path>
            </g>
        </g>
    </g>
</svg>