<?xml version="1.0" encoding="UTF-8"?>
<svg width="24px" height="24px" viewBox="0 0 24 24" version="1.1" xmlns="http://www.w3.org/2000/svg" xmlns:xlink="http://www.w3.org/1999/xlink">
    <title>8A9B97E8-7924-4E0C-B327-526748F71ECC</title>
    <g id="Styleguide" stroke="none" stroke-width="1" fill="none" fill-rule="evenodd">
        <g id="10.03-Icone" transform="translate(-60.000000, -373.000000)" fill="#1D4ED8" fill-rule="nonzero">
            <g id="icon/system/edit" transform="translate(60.000000, 373.000000)">
                <path d="M11,3.12132031 C11.5522847,3.12132031 12,3.56903556 12,4.12132031 C12,4.63415615 11.6139598,5.05682747 11.1166211,5.11459258 L11,5.12132031 L4,5.12132031 C3.48716416,5.12132031 3.06449284,5.5073605 3.00672773,6.00469919 L3,6.12132031 L3,20.1213203 C3,20.6341562 3.38604019,21.0568275 3.88337887,21.1145926 L4,21.1213203 L18,21.1213203 C18.5128358,21.1213203 18.9355072,20.7352801 18.9932723,20.2379414 L19,20.1213203 L19,13.1213203 C19,12.5690356 19.4477153,12.1213203 20,12.1213203 C20.5128358,12.1213203 20.9355072,12.5073605 20.9932723,13.0046992 L21,13.1213203 L21,20.1213203 C21,21.7190012 19.75108,23.0249812 18.1762728,23.1162276 L18,23.1213203 L4,23.1213203 C2.40231912,23.1213203 1.09633912,21.8724003 1.00509269,20.2975931 L1,20.1213203 L1,6.12132031 C1,4.52363943 2.24891996,3.21765943 3.82372721,3.12641301 L4,3.12132031 L11,3.12132031 Z M17.7928932,1.91421352 C19.0118447,0.695262145 20.9881553,0.695262166 22.2071068,1.91421355 C23.3791754,3.08628223 23.424255,4.95857212 22.3423455,6.18450397 L22.2071068,6.32842709 L12.7071068,15.8284271 C12.6109877,15.9245462 12.4966317,15.9997178 12.3712819,16.049841 L12.2425356,16.0914628 L8.24253563,17.0914628 C7.54677418,17.2654032 6.91327413,16.6753882 7.0086447,15.9880272 L7.0298575,15.8787847 L8.0298575,11.8787847 C8.06282609,11.7469103 8.12221005,11.6236156 8.20390849,11.5161433 L8.29289322,11.4142135 L17.7928932,1.91421352 Z M20.7928932,3.32842714 C20.3862691,2.92180307 19.7450473,2.89275849 19.3049093,3.24129337 L19.2071068,3.32842709 L9.903,12.632 L9.374,14.747 L11.488,14.218 L20.7928932,4.91421355 C21.1682385,4.53886826 21.2218592,3.96362898 20.9537555,3.53117113 L20.8800269,3.42622958 L20.7928932,3.32842714 Z" id="Shape"></path>
            </g>
        </g>
    </g>
</svg>