<?xml version="1.0" encoding="UTF-8"?>
<svg width="24px" height="24px" viewBox="0 0 24 24" version="1.1" xmlns="http://www.w3.org/2000/svg" xmlns:xlink="http://www.w3.org/1999/xlink">
    <title>A060E2D8-D7D7-44D6-A018-59D97DFBCE98</title>
    <g id="Styleguide" stroke="none" stroke-width="1" fill="none" fill-rule="evenodd">
        <g id="10.03-Icone" transform="translate(-463.000000, -178.000000)" fill="#1D4ED8" fill-rule="nonzero">
            <g id="icon-/-menu-/-home" transform="translate(463.000000, 178.000000)">
                <path d="M5,23 C3.34314575,23 2,21.6568542 2,20 L2,20 L2,9 C2,8.69140957 2.14247284,8.40010398 2.38605939,8.21064778 L2.38605939,8.21064778 L11.3860594,1.21064778 C11.7471699,0.929784072 12.2528301,0.929784072 12.6139406,1.21064778 L12.6139406,1.21064778 L21.6139406,8.21064778 C21.8575272,8.40010398 22,8.69140957 22,9 L22,9 L22,20 C22,21.6568542 20.6568542,23 19,23 L19,23 Z M12,3.266 L4,9.488 L4,20 C4,20.5128358 4.38604019,20.9355072 4.88337887,20.9932723 L4.88337887,20.9932723 L5,21 L8,21 L8,12 C8,11.4871642 8.38604019,11.0644928 8.88337887,11.0067277 L9,11 L15,11 C15.5128358,11 15.9355072,11.3860402 15.9932723,11.8833789 L16,12 L16,21 L19,21 C19.5128358,21 19.9355072,20.6139598 19.9932723,20.1166211 L20,20 L20,9.489 L12,3.266 Z M14,13 L10,13 L10,21 L14,21 L14,13 Z" id="Combined-Shape"></path>
            </g>
        </g>
    </g>
</svg>