<?xml version="1.0" encoding="UTF-8"?>
<svg width="24px" height="24px" viewBox="0 0 24 24" version="1.1" xmlns="http://www.w3.org/2000/svg" xmlns:xlink="http://www.w3.org/1999/xlink">
    <title>BEC02535-04A4-4C73-B9B6-0B33D11C8E97</title>
    <g id="Styleguide" stroke="none" stroke-width="1" fill="none" fill-rule="evenodd">
        <g id="10.03-Icone" transform="translate(-60.000000, -451.000000)" fill="#1D4ED8" fill-rule="nonzero">
            <g id="icon/system/info" transform="translate(60.000000, 451.000000)">
                <path d="M12,1 C18.0751322,1 23,5.92486775 23,12 C23,18.0751322 18.0751322,23 12,23 C5.92486775,23 1,18.0751322 1,12 C1,5.92486775 5.92486775,1 12,1 Z M12,3 C7.02943725,3 3,7.02943725 3,12 C3,16.9705627 7.02943725,21 12,21 C16.9705627,21 21,16.9705627 21,12 C21,7.02943725 16.9705627,3 12,3 Z M12,11 C12.5128358,11 12.9355072,11.3860402 12.9932723,11.8833789 L13,12 L13,16 C13,16.5522847 12.5522847,17 12,17 C11.4871642,17 11.0644928,16.6139598 11.0067277,16.1166211 L11,16 L11,12 C11,11.4477153 11.4477153,11 12,11 Z M12.01,7 C12.5622847,7 13.01,7.44771525 13.01,8 C13.01,8.51283584 12.6239598,8.93550716 12.1266211,8.99327227 L12,9 C11.4477153,9 11,8.55228475 11,8 C11,7.48716416 11.3860402,7.06449284 11.8833789,7.00672773 L12.01,7 Z" id="Shape"></path>
            </g>
        </g>
    </g>
</svg>