<?xml version="1.0" encoding="UTF-8"?>
<svg width="24px" height="24px" viewBox="0 0 24 24" version="1.1" xmlns="http://www.w3.org/2000/svg" xmlns:xlink="http://www.w3.org/1999/xlink">
    <title>8B890DD7-EDC7-468E-8F54-F32054EE6BCD</title>
    <g id="Styleguide" stroke="none" stroke-width="1" fill="none" fill-rule="evenodd">
        <g id="10.03-Icone" transform="translate(-642.000000, -178.000000)" fill="#1D4ED8" fill-rule="nonzero">
            <g id="icon/match/match_vaild" transform="translate(642.000000, 178.000000)">
                <path d="M14,1 C15.5976809,1 16.9036609,2.24891996 16.9949073,3.82372721 L17,4 L17,7 L20,7 C21.5976809,7 22.9036609,8.24891996 22.9949073,9.82372721 L23,10 L23,20 C23,21.5976809 21.75108,22.9036609 20.1762728,22.9949073 L20,23 L10,23 C8.40231912,23 7.09633912,21.75108 7.00509269,20.1762728 L7,20 L7,17 L4,17 C2.40231912,17 1.09633912,15.75108 1.00509269,14.1762728 L1,14 L1,4 C1,2.40231912 2.24891996,1.09633912 3.82372721,1.00509269 L4,1 L14,1 Z M20,9 L10,9 C9.48716416,9 9.06449284,9.38604019 9.00672773,9.88337887 L9,10 L9,20 C9,20.5128358 9.38604019,20.9355072 9.88337887,20.9932723 L10,21 L20,21 C20.5128358,21 20.9355072,20.6139598 20.9932723,20.1166211 L21,20 L21,10 C21,9.48716416 20.6139598,9.06449284 20.1166211,9.00672773 L20,9 Z M19.7071068,11.2928932 C20.0675907,11.6533772 20.0953203,12.2206082 19.7902954,12.6128994 L19.7071068,12.7071068 L14.2071068,18.2071068 C13.8466228,18.5675907 13.2793918,18.5953203 12.8871006,18.2902954 L12.7928932,18.2071068 L10.2928932,15.7071068 C9.90236893,15.3165825 9.90236893,14.6834175 10.2928932,14.2928932 C10.6533772,13.9324093 11.2206082,13.9046797 11.6128994,14.2097046 L11.7071068,14.2928932 L13.5,16.085 L18.2928932,11.2928932 C18.6834175,10.9023689 19.3165825,10.9023689 19.7071068,11.2928932 Z M14,3 L4,3 C3.48716416,3 3.06449284,3.38604019 3.00672773,3.88337887 L3,4 L3,14 C3,14.5128358 3.38604019,14.9355072 3.88337887,14.9932723 L4,15 L7,15 L7,10 C7,8.40231912 8.24891996,7.09633912 9.82372721,7.00509269 L10,7 L15,7 L15,4 C15,3.48716416 14.6139598,3.06449284 14.1166211,3.00672773 L14,3 Z" id="Shape"></path>
            </g>
        </g>
    </g>
</svg>