<?xml version="1.0" encoding="UTF-8"?>
<svg width="24px" height="24px" viewBox="0 0 24 24" version="1.1" xmlns="http://www.w3.org/2000/svg" xmlns:xlink="http://www.w3.org/1999/xlink">
    <title>041545C3-63E4-4019-9E4B-0E668A49E977</title>
    <g id="Styleguide" stroke="none" stroke-width="1" fill="none" fill-rule="evenodd">
        <g id="10.03-Icone" transform="translate(-642.000000, -256.000000)" fill="#1D4ED8" fill-rule="nonzero">
            <g id="icon/match/match_manual" transform="translate(642.000000, 256.000000)">
                <path d="M20,7 C21.5976809,7 22.9036609,8.24891996 22.9949073,9.82372721 L23,10 L23,20 C23,21.5976809 21.75108,22.9036609 20.1762728,22.9949073 L20,23 L10,23 C8.40231912,23 7.09633912,21.75108 7.00509269,20.1762728 L7,20 L7,10 C7,8.40231912 8.24891996,7.09633912 9.82372721,7.00509269 L10,7 L20,7 Z M20,9 L16.999,8.999 L17,9.75413016 L15,9.75413016 L14.999,8.999 L10,9 C9.48716416,9 9.06449284,9.38604019 9.00672773,9.88337887 L9,10 L9,15 L10.0614675,15 L10.0614675,17 L9,17 L9,20 C9,20.5128358 9.38604019,20.9355072 9.88337887,20.9932723 L10,21 L20,21 C20.5128358,21 20.9355072,20.6139598 20.9932723,20.1166211 L21,20 L21,10 C21,9.48716416 20.6139598,9.06449284 20.1166211,9.00672773 L20,9 Z M13.5614675,15 L13.5614675,17 L11.0614675,17 L11.0614675,15 L13.5614675,15 Z M6.56146746,15 L6.56146746,17 L4.06146746,17 L4.06146746,15 L6.56146746,15 Z M17,14 C17,15.3888378 16.048875,16.5862477 14.7175507,16.9134044 L14.2402745,14.9711872 C14.6825176,14.8625114 15,14.4628199 15,14 L17,14 Z M3,13.6229349 L3,14 C3,14.3793757 3.21250471,14.7202047 3.54441063,14.8906643 L2.63071019,16.6697516 C1.63816891,16.160004 1,15.136467 1,14 L1,13.6229349 L3,13.6229349 Z M17,10.7541302 L17,13.2541302 L15,13.2541302 L15,10.7541302 L17,10.7541302 Z M3,10.1229349 L3,12.6229349 L1,12.6229349 L1,10.1229349 L3,10.1229349 Z M3,6.62293492 L3,9.12293492 L1,9.12293492 L1,6.62293492 L3,6.62293492 Z M16.9741851,3.605547 C16.9901543,3.72673592 16.9987559,3.84918909 16.9999158,3.9814217 L17,6.25409313 L15,6.2541672 L14.9999571,3.9905398 C14.9995773,3.94871629 14.9966788,3.90745368 14.9913259,3.86683047 L16.9741851,3.605547 Z M1.28830348,2.71566516 L3.09542789,3.57257902 C3.03284603,3.70455634 3,3.84895064 3,4 L3,5.62293492 L1,5.62293492 L1,4 C1,3.55097877 1.09938595,3.11406866 1.28830348,2.71566516 Z M14,1 C14.9709742,1 15.865901,1.46572293 16.4263042,2.23537769 L14.809486,3.41261986 C14.6215805,3.15455139 14.3245967,3 14,3 L13.3155976,3 L13.3155976,1 L14,1 Z M5.31559762,1 L5.31559762,3 L4,3 C3.79666372,3 3.60482136,3.05974558 3.44100229,3.1705876 L2.32022236,1.51412983 C2.81238853,1.18112408 3.3939758,1 4,1 L5.31559762,1 Z M8.81559762,1 L8.81559762,3 L6.31559762,3 L6.31559762,1 L8.81559762,1 Z M12.3155976,1 L12.3155976,3 L9.81559762,3 L9.81559762,1 L12.3155976,1 Z" id="Shape"></path>
            </g>
        </g>
    </g>
</svg>