<?xml version="1.0" encoding="UTF-8"?>
<svg width="24px" height="24px" viewBox="0 0 24 24" version="1.1" xmlns="http://www.w3.org/2000/svg" xmlns:xlink="http://www.w3.org/1999/xlink">
    <title>456E7C76-5268-4DBA-93DA-D30413C1A582</title>
    <g id="Styleguide" stroke="none" stroke-width="1" fill="none" fill-rule="evenodd">
        <g id="10.03-Icone" transform="translate(-642.000000, -217.000000)" fill="#1D4ED8" fill-rule="nonzero">
            <g id="icon/match/match_automatic" transform="translate(642.000000, 217.000000)">
                <path d="M14,1 C15.5976809,1 16.9036609,2.24891996 16.9949073,3.82372721 L17,4 L17,7 L20,7 C21.5976809,7 22.9036609,8.24891996 22.9949073,9.82372721 L23,10 L23,20 C23,21.5976809 21.75108,22.9036609 20.1762728,22.9949073 L20,23 L10,23 C8.40231912,23 7.09633912,21.75108 7.00509269,20.1762728 L7,20 L7,17 L4,17 C2.40231912,17 1.09633912,15.75108 1.00509269,14.1762728 L1,14 L1,4 C1,2.40231912 2.24891996,1.09633912 3.82372721,1.00509269 L4,1 L14,1 Z M20,9 L10,9 C9.48716416,9 9.06449284,9.38604019 9.00672773,9.88337887 L9,10 L9,20 C9,20.5128358 9.38604019,20.9355072 9.88337887,20.9932723 L10,21 L20,21 C20.5128358,21 20.9355072,20.6139598 20.9932723,20.1166211 L21,20 L21,10 C21,9.48716416 20.6139598,9.06449284 20.1166211,9.00672773 L20,9 Z M16.0477817,11.1494405 L18.6704244,18.1559871 C18.7958972,18.4911951 18.6258732,18.8646507 18.2906651,18.9901235 C18.2180077,19.0173202 18.1410573,19.03125 18.0634766,19.03125 L17.847391,19.03125 C17.4180634,19.03125 17.036645,18.7572067 16.8996597,18.3503195 L16.5371094,17.2734375 L16.5371094,17.2734375 L13.4550781,17.2734375 L13.0970647,18.3474778 C12.9609507,18.7558199 12.5788118,19.03125 12.1483814,19.03125 L11.9345703,19.03125 C11.5759572,19.03125 11.2852438,18.7405366 11.2852438,18.3819234 C11.2852438,18.3045874 11.2990592,18.2278733 11.3260391,18.155396 L13.9333945,11.1511348 C14.0791249,10.7596525 14.4528406,10.5 14.8705674,10.5 L15.1112412,10.5 C15.5283061,10.5 15.9015756,10.7588423 16.0477817,11.1494405 Z M14.9902344,12.65625 L13.9296875,15.8496094 L16.0625,15.8496094 L14.9902344,12.65625 Z M14,3 L4,3 C3.48716416,3 3.06449284,3.38604019 3.00672773,3.88337887 L3,4 L3,14 C3,14.5128358 3.38604019,14.9355072 3.88337887,14.9932723 L4,15 L7,15 L7,10 C7,8.40231912 8.24891996,7.09633912 9.82372721,7.00509269 L10,7 L15,7 L15,4 C15,3.48716416 14.6139598,3.06449284 14.1166211,3.00672773 L14,3 Z" id="Shape"></path>
            </g>
        </g>
    </g>
</svg>