<?xml version="1.0" encoding="UTF-8"?>
<svg width="24px" height="24px" viewBox="0 0 24 24" version="1.1" xmlns="http://www.w3.org/2000/svg" xmlns:xlink="http://www.w3.org/1999/xlink">
    <title>397C9C66-F7AD-4A0B-880B-522B70DBD7C3</title>
    <g id="Styleguide" stroke="none" stroke-width="1" fill="none" fill-rule="evenodd">
        <g id="10.03-Icone" transform="translate(-463.000000, -217.000000)" fill="#1D4ED8" fill-rule="nonzero">
            <g id="icon/menu/match" transform="translate(463.000000, 217.000000)">
                <path d="M14,1 C15.5976809,1 16.9036609,2.24891996 16.9949073,3.82372721 L17,4 L17,7 L20,7 C21.5976809,7 22.9036609,8.24891996 22.9949073,9.82372721 L23,10 L23,20 C23,21.5976809 21.75108,22.9036609 20.1762728,22.9949073 L20,23 L10,23 C8.40231912,23 7.09633912,21.75108 7.00509269,20.1762728 L7,20 L7,17 L4,17 C2.40231912,17 1.09633912,15.75108 1.00509269,14.1762728 L1,14 L1,4 C1,2.40231912 2.24891996,1.09633912 3.82372721,1.00509269 L4,1 L14,1 Z M20,9 L17,9 L17,14 C17,15.5976809 15.75108,16.9036609 14.1762728,16.9949073 L14,17 L9,17 L9,20 C9,20.5128358 9.38604019,20.9355072 9.88337887,20.9932723 L10,21 L20,21 C20.5128358,21 20.9355072,20.6139598 20.9932723,20.1166211 L21,20 L21,10 C21,9.48716416 20.6139598,9.06449284 20.1166211,9.00672773 L20,9 Z M14,3 L4,3 C3.48716416,3 3.06449284,3.38604019 3.00672773,3.88337887 L3,4 L3,14 C3,14.5128358 3.38604019,14.9355072 3.88337887,14.9932723 L4,15 L7,15 L7,10 C7,8.40231912 8.24891996,7.09633912 9.82372721,7.00509269 L10,7 L15,7 L15,4 C15,3.48716416 14.6139598,3.06449284 14.1166211,3.00672773 L14,3 Z M15,9 L10,9 C9.48716416,9 9.06449284,9.38604019 9.00672773,9.88337887 L9,10 L9,15 L14,15 C14.5128358,15 14.9355072,14.6139598 14.9932723,14.1166211 L15,14 L15,9 Z" id="Shape"></path>
            </g>
        </g>
    </g>
</svg>