<?xml version="1.0" encoding="UTF-8"?>
<svg width="24px" height="24px" viewBox="0 0 24 24" version="1.1" xmlns="http://www.w3.org/2000/svg" xmlns:xlink="http://www.w3.org/1999/xlink">
    <title>72E933B8-A413-4723-9B81-A3C62A7D66A2</title>
    <g id="Styleguide" stroke="none" stroke-width="1" fill="none" fill-rule="evenodd">
        <g id="10.03-Icone" transform="translate(-60.000000, -646.000000)" fill="#1D4ED8" fill-rule="nonzero">
            <g id="icon/system/pin" transform="translate(60.000000, 646.000000)">
                <path d="M12,0 C17.5228475,0 22,4.47715246 22,10 C22,13.3716046 20.1975984,16.6760075 17.2259527,19.8127446 C16.2070021,20.8883036 15.118253,21.8681778 14.0291768,22.7354051 L13.6565722,23.0275577 L13.6565722,23.0275577 L13.4775129,23.1646462 L12.9722093,23.5391949 L12.5547002,23.8320503 C12.2561229,24.0311018 11.8771884,24.0532186 11.560754,23.8984008 L11.4452998,23.8320503 L11.0277907,23.5391949 L10.5224871,23.1646462 C10.3459631,23.0305855 10.1617123,22.8874094 9.97082322,22.7354051 C8.88174698,21.8681778 7.7929979,20.8883036 6.77404732,19.8127446 C3.80240157,16.6760075 2,13.3716046 2,10 C2,4.47715246 6.47715251,0 12,0 Z M12,2 C7.58172201,2 4,5.58172197 4,10 C4,12.7533954 5.57259843,15.6364925 8.22595268,18.4372554 C9.1757521,19.4398214 10.196378,20.3583847 11.2166768,21.1708449 L11.5641242,21.4432901 L11.5641242,21.4432901 L12,21.772 L12.5209935,21.3773367 L12.7833232,21.1708449 C13.803622,20.3583847 14.8242479,19.4398214 15.7740473,18.4372554 C18.4274016,15.6364925 20,12.7533954 20,10 C20,5.58172197 16.418278,2 12,2 Z M12,5.99999987 C14.209139,5.99999987 16,7.79086087 16,9.99999987 C16,12.2091389 14.209139,13.9999999 12,13.9999999 C9.790861,13.9999999 8,12.2091389 8,9.99999987 C8,7.79086087 9.790861,5.99999987 12,5.99999987 Z M12,7.99999987 C10.8954305,7.99999987 10,8.89543037 10,9.99999987 C10,11.1045694 10.8954305,11.9999999 12,11.9999999 C13.1045695,11.9999999 14,11.1045694 14,9.99999987 C14,8.89543037 13.1045695,7.99999987 12,7.99999987 Z" id="Shape"></path>
            </g>
        </g>
    </g>
</svg>