<svg width="40" height="40" viewBox="0 0 40 40" fill="none" xmlns="http://www.w3.org/2000/svg">
    <g id="Icons/edit">
        <path id="Vector"
              d="M18.333 6.66663H6.66634C5.78229 6.66663 4.93444 7.01782 4.30932 7.64294C3.6842 8.26806 3.33301 9.1159 3.33301 9.99996V33.3333C3.33301 34.2173 3.6842 35.0652 4.30932 35.6903C4.93444 36.3154 5.78229 36.6666 6.66634 36.6666H29.9997C30.8837 36.6666 31.7316 36.3154 32.3567 35.6903C32.9818 35.0652 33.333 34.2173 33.333 33.3333V21.6666"
              stroke="white" stroke-width="3" stroke-linecap="round" stroke-linejoin="round"/>
        <path id="Vector_2"
              d="M30.833 4.16664C31.496 3.5036 32.3953 3.1311 33.333 3.1311C34.2707 3.1311 35.17 3.5036 35.833 4.16664C36.496 4.82968 36.8685 5.72896 36.8685 6.66664C36.8685 7.60432 36.496 8.5036 35.833 9.16664L19.9997 25L13.333 26.6666L14.9997 20L30.833 4.16664Z"
              stroke="white" stroke-width="3" stroke-linecap="round" stroke-linejoin="round"/>
    </g>
</svg>
