<svg xmlns="http://www.w3.org/2000/svg" viewBox="0 0 60 60" preserveAspectRatio="xMidYMid meet" focusable="false"
     class="style-scope gl-icon" style="pointer-events: none; display: block; width: 100%; height: 100%;">
    <g class="style-scope gl-icon">
        <g fill="none" fill-rule="evenodd" class="style-scope gl-icon">
            <path d="M28.4863253 59.9692983c-6.6364044-.569063-11.5630204-2.3269561-16.3219736-5.8239327C4.44376366 48.4721168 3e-7 39.6467924 3e-7 29.9869344c0-14.8753747 10.506778-27.18854591 25.2744118-29.61975392 6.0281072-.9924119 12.7038532.04926445 18.2879399 2.85362966C57.1386273 10.0389054 63.3436516 25.7618627 58.2050229 40.3239688 54.677067 50.3216743 45.4153135 57.9417536 34.81395 59.5689067c-2.0856252.3201125-5.0651487.5086456-6.3276247.4003916z"
                  fill="#BD081C" fill-rule="nonzero" class="style-scope gl-icon"></path>
            <path d="M30 14c-8.8359111 0-16 7.1714944-16 16.0165392 0 6.5927634 3.9804444 12.254788 9.6650667 14.7135047-.0408889-1.1165307-.0010667-2.448039.2812444-3.6553302.3104-1.3030344 2.0682667-8.7589113 2.0682667-8.7589113s-.5134222-1.02755-.5134222-2.5444942c0-2.3797018 1.3806222-4.160741 3.0965333-4.160741 1.4609778 0 2.1671111 1.1005142 2.1671111 2.41565 0 1.4692506-.9365333 3.6667197-1.4200889 5.7022439-.4003555 1.7048716.8576 3.0968868 2.5372445 3.0968868 3.04 0 5.0876444-3.9112388 5.0876444-8.547849 0-3.5211471-2.3669333-6.159605-6.6794667-6.159605-4.8693333 0-7.9072 3.6364662-7.9072 7.6993283 0 1.3998456.4138667 2.3889558 1.0613334 3.1524109.2968889.3512961.3370666.4929535.2286222.897638-.0782222.2939925-.2510222 1.0058387-.3253333 1.2902212-.1063112.4068201-.4373334.5495453-.8046223.4000576-2.2421333-.9150783-3.2888889-3.3748628-3.2888889-6.1393174 0-4.5672052 3.8474667-10.042726 11.4766223-10.042726 6.1326222 0 10.1667555 4.4422761 10.1667555 9.2070185 0 6.3090928-3.5029333 11.0179553-8.6641778 11.0179553-1.7340444 0-3.3660444-.9385692-3.9217777-2.0020674 0 0-.9354667 3.7001765-1.1306667 4.4177174-.3370667 1.2211722-.9863111 2.4412765-1.5879111 3.4019129 1.3984.4000576 2.8768.6150352 4.4071111.6150352 8.8359111 0 16-7.1714944 16-16.0165392S38.8359111 14 30 14"
                  fill="#FFF" class="style-scope gl-icon"></path>
        </g>
    </g>
</svg>
