<svg id="Layer_1" data-name="Layer 1" xmlns="http://www.w3.org/2000/svg" viewBox="0 0 500 500"><g id="_05_Calendar" data-name="05 Calendar"><path d="M12.77,406.37a66.63,66.63,0,0,0,66.56,66.55H420.61a66.68,66.68,0,0,0,66.66-66.55c0-28.62,0,84.45,0-289a66.66,66.66,0,0,0-66.58-66.58h-46V34.87a11.3,11.3,0,0,0-22.6,0v15.9H148V34.87a11.3,11.3,0,0,0-22.6,0v15.9h-46a66.66,66.66,0,0,0-66.58,66.58C12.73,147.09,12.71,10,12.77,406.37Zm451.91,0a44.06,44.06,0,0,1-44.07,43.95H79.33a44,44,0,0,1-44-43.95V193.24H464.68Zm-429.35-289a44,44,0,0,1,44-44h46V89.28a11.3,11.3,0,0,0,22.6,0V73.37H352V89.28a11.3,11.3,0,0,0,22.59,0V73.37h46.05a44,44,0,0,1,44,44v53.24H35.33ZM250,416.92a95.14,95.14,0,1,0-95.13-95.13A95.25,95.25,0,0,0,250,416.92Zm0-167.67a72.54,72.54,0,1,1-72.53,72.54A72.62,72.62,0,0,1,250,249.25Zm-33.78,84.39a11.29,11.29,0,1,1,16-16l6.64,6.62,29-29a11.3,11.3,0,0,1,16,16l-37,37a11.29,11.29,0,0,1-16,0Z" style="fill:#767676"/></g></svg>