<svg id="Layer_1" data-name="Layer 1" xmlns="http://www.w3.org/2000/svg" viewBox="0 0 500 500"><path d="M473.5,340.24V274.13a38.83,38.83,0,0,0-38.73-38.73H407.39V164a9.35,9.35,0,0,0-9.34-9.35H354a9.35,9.35,0,0,0-9.34,9.35V235.4H282.52V149.26a9.35,9.35,0,0,0-9.35-9.35H229.1a9.35,9.35,0,0,0-9.34,9.35V235.4H157.65V164a9.36,9.36,0,0,0-9.35-9.35H104.23A9.35,9.35,0,0,0,94.88,164V235.4H67.5a38.84,38.84,0,0,0-38.73,38.73v66.08a44.52,44.52,0,0,0,22,39.18v76.38H38.12a9.35,9.35,0,1,0,0,18.69h426a9.35,9.35,0,0,0,0-18.69H451.47v-76.3A46.35,46.35,0,0,0,473.5,340.24ZM139,173.29V235.4H113.57V173.29Zm99.5,62.11V158.6h25.38v76.8Zm124.87,0V173.29H388.7V235.4ZM69.5,385.93l.56.06A46.56,46.56,0,0,0,90,383.68a47.21,47.21,0,0,0,5.66-2.42l.82-.43.39-.2a47.75,47.75,0,0,0,4.31-2.65l.39-.26.94-.65a44.9,44.9,0,0,0,18.45-36.83V310.85a12.63,12.63,0,0,1,3.72-9,12.77,12.77,0,0,1,2-1.65l.12-.06.37-.2a12.64,12.64,0,0,1,1.91-1l.28-.08.36-.11a13.25,13.25,0,0,1,1.88-.47,4.57,4.57,0,0,1,.52-.05l.42,0a14.36,14.36,0,0,1,1.58-.06,12.2,12.2,0,0,1,1.24.13,10.65,10.65,0,0,1,1.42.26l.15.05.2.06a14.09,14.09,0,0,1,9.18,13.38v42.83a46.08,46.08,0,0,0,92.15,0V310.86a12.57,12.57,0,0,1,5.81-10.64,2.43,2.43,0,0,0,.36-.2,12.89,12.89,0,0,1,2-1l.22-.07.34-.1a12.67,12.67,0,0,1,1.84-.49c.2,0,.4,0,.6-.06l.38,0a10.45,10.45,0,0,1,1.57-.06,12.2,12.2,0,0,1,1.24.13,11,11,0,0,1,1.42.26l.15.05.2.07a14.07,14.07,0,0,1,9.24,13.37v13.45a46.07,46.07,0,0,0,92.14,0v-14.7a12.66,12.66,0,0,1,5.76-10.6l.1-.06a3.48,3.48,0,0,0,.38-.2,13.23,13.23,0,0,1,1.92-1,3.37,3.37,0,0,1,.34-.09l.34-.1a13.06,13.06,0,0,1,1.84-.47,4.57,4.57,0,0,1,.52-.05l.43,0a14.09,14.09,0,0,1,1.57-.06,12.37,12.37,0,0,1,1.25.13,10.52,10.52,0,0,1,1.41.26l.15.05.2.06a14.09,14.09,0,0,1,9.18,13.38v28.14a45.8,45.8,0,0,0,13.51,32.66,48.56,48.56,0,0,0,4.87,4.14l1.18.79.33.22a45.88,45.88,0,0,0,4,2.44c.54.29,1.08.58,1.61.84a47.39,47.39,0,0,0,4.76,2.05l.33.12a6.19,6.19,0,0,0,.63.24A45.78,45.78,0,0,0,432.09,386l.72-.08v69.85H69.5Zm338.57-26.27a27.26,27.26,0,0,1-8-19.42V310.85A31.12,31.12,0,0,0,382.74,283l-.55-.3a30.32,30.32,0,0,0-3.85-1.5L378,281c-.62-.21-1.25-.42-2-.59a28.08,28.08,0,0,0-3-.54c-.22,0-.44-.08-.66-.12a9.82,9.82,0,0,0-1.39-.23h-.15l-.59,0a2.17,2.17,0,0,1-.36,0l-.29,0a10.06,10.06,0,0,0-2.65.07c-.27,0-.55.07-.83.09l-.6.05a20.82,20.82,0,0,0-2.09.23,30.13,30.13,0,0,0-4,1l-.65.19a14.71,14.71,0,0,0-1.49.47,30.6,30.6,0,0,0-4.21,2.1,5.12,5.12,0,0,1-.52.27,10.74,10.74,0,0,0-1,.53,30.82,30.82,0,0,0-5.08,4.1,31.38,31.38,0,0,0-9.21,22.2v14.69a27.38,27.38,0,1,1-54.76,0v-14.7A31.12,31.12,0,0,0,265.21,283l-.55-.3a29.74,29.74,0,0,0-3.85-1.5l-.35-.12c-.62-.21-1.25-.42-2-.59a28.36,28.36,0,0,0-3-.54c-.23,0-.45-.08-.66-.12a10,10,0,0,0-1.4-.23h-.15l-.59,0a2.17,2.17,0,0,1-.36,0l-.29,0a10.06,10.06,0,0,0-2.65.07c-.27,0-.54.07-.83.09l-.6.05a20.82,20.82,0,0,0-2.09.23,29.84,29.84,0,0,0-4,1l-.65.18c-.47.13-1,.27-1.51.48a30.19,30.19,0,0,0-4.18,2.09L235,284a9.42,9.42,0,0,0-1,.52,30.93,30.93,0,0,0-5.09,4.09,31.36,31.36,0,0,0-9.2,22.22v44.07a27.39,27.39,0,0,1-54.77,0V310.85a31.11,31.11,0,0,0-17.3-27.9l-.56-.3a29.74,29.74,0,0,0-3.85-1.5l-.35-.12c-.61-.21-1.25-.42-2-.59a29,29,0,0,0-3-.54c-.23,0-.44-.08-.66-.12a10.07,10.07,0,0,0-1.39-.23c-.67-.05-1.47-.08-2.3-.08a31.42,31.42,0,0,0-31.38,31.39v29.38a27.23,27.23,0,0,1-7.93,19.33,28.3,28.3,0,0,1-25.65,7.28,27.92,27.92,0,0,1-4.75-1.47,28.21,28.21,0,0,1-8.42-5.72,27.35,27.35,0,0,1-8-19.42V274.13a20.06,20.06,0,0,1,20-20H434.77a20.06,20.06,0,0,1,20,20v66.1a27.58,27.58,0,0,1-16.35,25.12A28,28,0,0,1,408.07,359.66Z" style="fill:#fff"/><path d="M251.13,129.22h0a38.83,38.83,0,0,0,38.72-38.73c0-7.8-4.6-20-13.67-36.27-7.18-12.89-15.1-24.54-17.36-27.81l-.06-.08a9.64,9.64,0,0,0-15.26,0l-.06.08c-5.18,7.5-31,45.8-31,64.08A38.84,38.84,0,0,0,251.13,129.22Zm-20-38.73c0-6.85,9.8-25.44,20-41.75,10.23,16.31,20,34.9,20,41.75a20,20,0,1,1-40.07,0Z" style="fill:#fff"/><path d="M376,143.91h0a38.84,38.84,0,0,0,38.73-38.73c0-7.8-4.6-20-13.67-36.27C393.88,56,386,44.37,383.7,41.11l-.06-.09a9.63,9.63,0,0,0-15.26,0l-.06.08c-5.18,7.49-31,45.79-31,64.08A38.84,38.84,0,0,0,376,143.91Zm-20-38.73c0-6.85,9.81-25.43,20-41.75,10.23,16.32,20,34.9,20,41.75a20,20,0,0,1-40.08,0Z" style="fill:#fff"/><path d="M126.26,143.91h0A38.83,38.83,0,0,0,165,105.18c0-7.8-4.6-20-13.67-36.27C144.13,56,136.21,44.37,134,41.11L133.9,41a9.64,9.64,0,0,0-15.27,0l0,.08c-5.19,7.49-31,45.78-31,64.08A38.83,38.83,0,0,0,126.26,143.91Zm-20-38.73c0-6.85,9.8-25.43,20-41.75,10.24,16.31,20,34.9,20,41.75a20,20,0,1,1-40.07,0Z" style="fill:#fff"/></svg>