<svg id="Layer_1" data-name="Layer 1" xmlns="http://www.w3.org/2000/svg" viewBox="0 0 500 500"><path d="M421.55,116.45c26.4,0,47.88-20.79,47.88-46.35S448,23.76,421.55,23.76a48.41,48.41,0,0,0-36.4,16.29A289.78,289.78,0,0,0,272.29,9.62c-44.46-2.57-84.43,5.82-115.59,24.27C115,58.56,92,99.46,89.79,152.47a28.21,28.21,0,0,0-19.13,26.67v18.18a27.92,27.92,0,0,0,1.62,9.4c-20.45,4.71-35.71,22.53-35.71,43.76,0,22,16.35,40.29,37.89,44.2,0,1.3.05,2.61.1,3.94.49,15.32-2.54,22.16-6,30.08-3.43,7.76-7.33,16.56-7.33,32,0,43.37,36.58,78.65,81.55,78.65,4.59,0,12.85,1.06,16.56,8.18,13.95,26.72,41.87,43.31,72.87,43.31s58.91-16.59,72.86-43.31c3.71-7.12,12-8.18,16.57-8.18,45,0,81.54-35.28,81.54-78.65,0-15.42-3.89-24.22-7.33-32-3.5-7.92-6.53-14.76-6-30.08,0-1.33.07-2.64.09-3.94,21.54-3.91,37.89-22.24,37.89-44.2,0-21.23-15.26-39-35.71-43.76a27.92,27.92,0,0,0,1.62-9.4V179.14a28.21,28.21,0,0,0-19.22-26.7,132.37,132.37,0,0,0-6.61-33.53c8.08-3.79,16.33-7.81,24.64-12A48.63,48.63,0,0,0,421.55,116.45Zm0-72.69c15.37,0,27.88,11.81,27.88,26.34s-12.51,26.35-27.88,26.35S393.67,84.63,393.67,70.1,406.18,43.76,421.55,43.76Zm-365,206.72c0-13.78,11.87-25,26.46-25H84c-4.24,11.95-7.82,28.44-9.07,48.75C64.27,271,56.57,261.57,56.57,250.48Zm324.73-25c14.59,0,26.46,11.21,26.46,25,0,11.09-7.7,20.51-18.32,23.76-1.24-20.31-4.83-36.8-9.06-48.75Zm-3.78,111.3c3.14,7.1,5.62,12.7,5.62,23.89,0,32.34-27.61,58.65-61.54,58.65-15.52,0-28,6.9-34.3,18.92-10.49,20.09-31.61,32.57-55.13,32.57S187.52,458.34,177,438.25c-6.27-12-18.77-18.92-34.29-18.92-33.94,0-61.55-26.31-61.55-58.65,0-11.19,2.48-16.79,5.62-23.89,3.93-8.87,8.38-18.93,7.74-38.82-.92-28.47,3.48-57.09,10.9-72.48h3.46c-2.34,34.78.36,60.33,17.25,72.6,6.41,4.66,14.34,7,24.2,7,14.39,0,32.89-5,56.75-15.17a64.47,64.47,0,0,1,50.12,0c40.19,17.11,65.16,19.63,80.95,8.16,16.88-12.27,19.58-37.82,17.24-72.6h3.46c7.42,15.38,11.83,44,10.91,72.48C369.15,317.86,373.6,327.92,377.52,336.79ZM129,225.49H335.38c1.68,23.69,1.43,48.87-9,56.42-9.06,6.58-29.71,3.09-61.36-10.39a84.57,84.57,0,0,0-65.79,0c-31.65,13.48-52.29,17-61.36,10.39C127.53,274.36,127.27,249.18,129,225.49Zm231.15-125A135.92,135.92,0,0,0,342,73.52a10,10,0,0,0-15.17,13A114.84,114.84,0,0,1,354.28,151H274.39a10,10,0,0,0,0,20H365.5a8.18,8.18,0,0,1,8.17,8.17v18.18a8.18,8.18,0,0,1-8.17,8.17H98.83a8.19,8.19,0,0,1-8.17-8.17V179.14A8.19,8.19,0,0,1,98.83,171H190a10,10,0,0,0,0-20H109.87c1.21-22,6.45-41.42,15.63-57.93C135.1,75.78,149,61.67,166.89,51.1c27.73-16.41,63.78-23.85,104.25-21.51a269.43,269.43,0,0,1,104.33,28A44.69,44.69,0,0,0,379,91.3C372.63,94.48,366.31,97.54,360.1,100.46Z" style="fill:#fff"/><path d="M288.47,266.09a10,10,0,1,0,0-20h0a10,10,0,0,0,0,20Z" style="fill:#fff"/><path d="M175.87,266.09a10,10,0,1,0,0-20h0a10,10,0,0,0,0,20Z" style="fill:#fff"/><path d="M265.32,306.82a10,10,0,0,0-13.66,3.66,22.51,22.51,0,0,1-39,0,10,10,0,1,0-17.32,10,42.51,42.51,0,0,0,73.62,0A10,10,0,0,0,265.32,306.82Z" style="fill:#fff"/><path d="M232.17,151h0a10,10,0,1,0,10,10A10,10,0,0,0,232.17,151Z" style="fill:#fff"/></svg>