<svg id="Layer_1" data-name="Layer 1" xmlns="http://www.w3.org/2000/svg" viewBox="0 0 500 500"><path d="M460.48,125.73h0c-17.57-59.29-47.9-96.19-85.41-103.92-27.84-5.82-57.11,3.81-87,28.61-23.78,19.73-47.51,49.27-66.91,83.27-23.81-22.7-60-47.51-98.82-39.24-37,7.62-67.17,44.72-84.87,104.48-14,50.27-16.9,108.84-7.67,152.86,8.74,41.1,27.31,73,55.19,94.79,24.17,18.9,54,28.89,86.16,28.89a152.3,152.3,0,0,0,31.33-3.3c42.38-8.83,77.7-34.84,97-71.42a152.91,152.91,0,0,0,26.77,2.62c27.52,0,53.77-7.42,75.9-21.45,33.78-21.6,56.6-57,66-102.22C477.81,235.11,474.87,176.11,460.48,125.73ZM311.94,292.93c-10-47.62-40.07-104.54-76.77-145.22,17.77-32.52,40.05-61.08,62.79-80.47,18.14-15.48,45.7-32.74,74-27.09,41.23,8.58,61.7,61.59,68.85,85.13C419,130.8,403.36,150.69,403.36,173A49.12,49.12,0,0,0,452.42,222a14.71,14.71,0,0,0,2.85-.2,248.37,248.37,0,0,1-4.38,53.61c-8.71,40.85-28.77,72.17-58,90.57-24.4,15.38-54.52,21.57-84.95,17.5C317.7,355.84,319,325.37,311.94,292.93Zm140.48-89.82a30.71,30.71,0,0,1-30.68-30.68,30.17,30.17,0,0,1,23.92-30,338.7,338.7,0,0,1,9,60.64Zm-395-5.79c11.28-35,32.35-77.51,69.18-85.08l.07,0c3.69-1,7.43-1,11.75-1,18.52,0,48.41,9,86,51.35Zm187.21,53-43.46-24.14a8.68,8.68,0,0,0-11.67,2.45L159.4,268.35,115.93,244.2a8.67,8.67,0,0,0-11.66,2.45L74.2,285.83,43.85,269.09a435.63,435.63,0,0,1,8-52.12l185-39.06A302.9,302.9,0,0,1,265,222ZM84,303.57l30.06-39.73L157.54,288a8.67,8.67,0,0,0,11.67-2.45l30.06-39.72L242.74,270a8.68,8.68,0,0,0,11.67-2.45L274.7,241c2.38,5.25,4.78,10.63,6.74,15.93l-27.55,36.55-43.47-24.15a8.69,8.69,0,0,0-11.67,2.45L168.69,311.5l-43.47-24.15a8.67,8.67,0,0,0-11.67,2.45L83.49,329.52,43.21,307.26a116.43,116.43,0,0,1-.08-17.42L72.39,306a11,11,0,0,0,4.27,1.2A8.78,8.78,0,0,0,84,303.57ZM44.62,328.85l36.51,20.34a11.08,11.08,0,0,0,4.27,1.2,8.77,8.77,0,0,0,7.35-3.68L122.81,307l43.47,24.15A8.68,8.68,0,0,0,178,328.69L208,289l43.47,24.15a8.68,8.68,0,0,0,11.67-2.46l25-33.37c1.49,5,2.71,10,3.9,14.86.33,1.34.66,2.66,1,3.93,3.74,17.06,4.86,33.06,3.34,47.56L63.53,392.49a173.93,173.93,0,0,1-16.47-44.9c-.45-5-1.29-10.79-2.17-16.91Zm249.14,34.41a133.27,133.27,0,0,1-7.74,22.3l-.09.2v.54c-16.06,34.45-48.62,59.89-87.14,68.06h0a130.37,130.37,0,0,1-27,2.8c-33.19,0-70.73-12.42-97.2-47.59Z" style="fill:#767676"/><path d="M332.92,262.91a47.11,47.11,0,0,0,6.7,34.6,45.56,45.56,0,0,0,29.07,19.55l1.22.2a46.8,46.8,0,0,0,8.23.9c21.77,0,40.79-15.26,45.22-36.32a47.14,47.14,0,0,0-6.72-34.63,51.22,51.22,0,0,0-29.53-20h0a45.79,45.79,0,0,0-34.7,6.75A45.19,45.19,0,0,0,332.92,262.91Zm38.88,36.34a28.51,28.51,0,0,1-17.41-11.59,26.1,26.1,0,0,1-3.67-20.55A27.54,27.54,0,0,1,377.59,245a21.74,21.74,0,0,1,5.8.52,28.53,28.53,0,0,1,17.4,11.59,29.25,29.25,0,0,1,3.68,21.08,27.61,27.61,0,0,1-32.67,21.08Z" style="fill:#767676"/><path d="M360,146.43v0a47.23,47.23,0,0,0-6.16-33.51c-6.83-10.25-16.5-16.82-27.94-19A44.47,44.47,0,0,0,273.39,128a43.78,43.78,0,0,0,6.43,33.39A44.57,44.57,0,0,0,308,180.51a47.26,47.26,0,0,0,8.93,1.11C337.49,181.62,355.59,166.82,360,146.43Zm-18.33-3.72h0A26.33,26.33,0,0,1,330,159.47a24.61,24.61,0,0,1-18.8,3.24A26.33,26.33,0,0,1,294.43,151a24.61,24.61,0,0,1-3.24-18.8,25.73,25.73,0,0,1,25.23-20.52,18,18,0,0,1,5.24.52c7.13,1.65,12.77,5.46,16.31,11A25.45,25.45,0,0,1,341.67,142.71Z" style="fill:#767676"/><circle cx="375.96" cy="87.23" r="9.19" style="fill:#767676"/><circle cx="336.09" cy="210.66" r="9.19" style="fill:#767676"/></svg>