<svg id="Layer_1" data-name="Layer 1" xmlns="http://www.w3.org/2000/svg" viewBox="0 0 500 500"><path d="M229.54,66.44l-89-17.37a9.22,9.22,0,0,0-9.75,4.43C129.41,55.79,98,110.59,84.3,180.67a224.28,224.28,0,0,0-4.23,47.48,169,169,0,0,0,4.28,35.64q1.16,4.95,2.67,9.81c7.6,24.25,20.65,40.83,37.25,47.68L105,424.93l-41.42-8.08a22.82,22.82,0,0,0-25.3,13.71,29,29,0,0,0-1.43,5.2,41.31,41.31,0,0,0-.81,5.06,22.64,22.64,0,0,0,18.24,23.72l101,19.71a23,23,0,0,0,23.07-9.55,21.66,21.66,0,0,0,3-6.31,39.13,39.13,0,0,0,1.54-8.58,22.62,22.62,0,0,0-18.26-23.25l-41.5-8.1,19.24-103.68c17-.15,34.23-9.53,49.7-27.13,1.26-1.44,2.47-2.91,3.67-4.41,11.35-14.17,20.86-32,27.83-52a231.51,231.51,0,0,0,8.55-31.71c13.67-70.07,5.13-132.67,4.76-135.3A9.22,9.22,0,0,0,229.54,66.44Zm-65.76,390a4.91,4.91,0,0,1,.57,3.52,15.81,15.81,0,0,1-.77,3.4,4.18,4.18,0,0,1-4.7,2.79l-101-19.71A4.23,4.23,0,0,1,55,444.31c-.8-1.48-.36-3-.07-4.57.27-1.39.47-2.76,1.57-3.76a4.22,4.22,0,0,1,3.61-1l101,19.71A4.19,4.19,0,0,1,163.78,456.43Zm-20.18-388,75.77,14.78c1.76,17.55,5.28,68.31-5.33,122.73-.85,4.34-1.83,8.61-2.91,12.8H98.52a211.78,211.78,0,0,1,3.88-34.58C113,129.88,135.38,84.08,143.6,68.47Zm54,187.4a138.07,138.07,0,0,1-17.12,27c-9.91,12-20.36,19.63-30.42,22.34a29.63,29.63,0,0,1-15.47.11c-8.56-2.39-16-9-21.93-18.83-6.81-11.44-10.42-24.7-12.37-37.79-.57-3.8-1-7.64-1.28-11.48H205.44A181.59,181.59,0,0,1,197.56,255.87Z" style="fill:#767676"/><path d="M197.86,174.38c.29,0,.57,0,.85,0a9.24,9.24,0,0,0,9.18-8.39,448.61,448.61,0,0,0,1.43-58.27,9.22,9.22,0,1,0-18.43.73,429.23,429.23,0,0,1-1.38,55.86A9.24,9.24,0,0,0,197.86,174.38Z" style="fill:#767676"/><path d="M458.22,438a34.56,34.56,0,0,0-3-9.86,22,22,0,0,0-5.73-6.78,22.68,22.68,0,0,0-18.42-4.52l-41.47,8.09-20.23-103.7c35.56-14.78,53-73.68,39.91-140.57C395.6,110.59,364.15,55.79,362.82,53.5a9.21,9.21,0,0,0-9.75-4.43L264,66.44a9.24,9.24,0,0,0-7.36,7.77c-.37,2.63-8.91,65.23,4.76,135.3,13.05,66.9,51.33,114.93,89.83,115.26l20.24,103.71L330,436.56a23,23,0,0,0-17.72,17.16c-1.18,5.07-.4,10.51,1.21,15.41a22.63,22.63,0,0,0,25.81,15.12l101-19.71A22.82,22.82,0,0,0,458.22,438Zm-184-354.76L350,68.47c8.22,15.62,30.6,61.42,41.19,115.73.47,2.41.89,4.81,1.28,7.2H277C269.55,142.77,272.61,99.23,274.19,83.25ZM439.48,444.67a4.16,4.16,0,0,1-2.65,1.76l-101,19.71a4.22,4.22,0,0,1-3.6-1c-1.1-1-1.32-2.41-1.58-3.79s-.67-2.89-.06-4.27a4.19,4.19,0,0,1,3-2.4l101-19.72a4.26,4.26,0,0,1,4.7,2.8C440.06,439.69,440.74,442.8,439.48,444.67ZM349.87,306.28c-8-.47-15.4-4.12-21.74-8.77A86.63,86.63,0,0,1,311.5,280.9a127.39,127.39,0,0,1-8.11-11.73,169.15,169.15,0,0,1-12.86-25.73,205.9,205.9,0,0,1-10.21-33.59H394.56c1.18,16.78.44,34-3.46,50.37a109.27,109.27,0,0,1-4.22,13.8c-6.47,16.92-16.19,27.9-27.55,31.22A28,28,0,0,1,349.87,306.28Z" style="fill:#767676"/><path d="M254.63,23.49a9.22,9.22,0,1,0-18.44,0v30a9.22,9.22,0,1,0,18.44,0Z" style="fill:#767676"/><path d="M208,49.17a9.22,9.22,0,1,0,15.77-9.57L212.4,20.88a9.22,9.22,0,1,0-15.76,9.58Z" style="fill:#767676"/><path d="M272,52.27a9.23,9.23,0,0,0,12.68-3.1L296,30.46a9.22,9.22,0,1,0-15.76-9.58L268.88,39.6A9.22,9.22,0,0,0,272,52.27Z" style="fill:#767676"/><path d="M343.55,129.13q5.26,14.42,9.46,29.22c1.1,3.89,1.7,8,5.46,10.26a9.22,9.22,0,0,0,13.66-10.29c-1.21-4.79-2.64-9.53-4.1-14.25q-2.25-7.32-4.77-14.57c-.82-2.39-1.57-4.85-2.57-7.18a9.23,9.23,0,0,0-17.14,6.81Z" style="fill:#767676"/><path d="M202.77,201.73a9.26,9.26,0,1,1-9.26-9.27A9.27,9.27,0,0,1,202.77,201.73Z" style="fill:#767676"/><path d="M347.58,92a9.26,9.26,0,1,1-9.26-9.26A9.27,9.27,0,0,1,347.58,92Z" style="fill:#767676"/></svg>