<svg id="Layer_1" data-name="Layer 1" xmlns="http://www.w3.org/2000/svg" viewBox="0 0 500 500"><path d="M372,370.11H331.6a8.46,8.46,0,0,0-8.46,8.46v88.9a8.45,8.45,0,0,0,8.46,8.45H372a32.17,32.17,0,0,0,32.14-32.13V402.25A32.18,32.18,0,0,0,372,370.11Zm15.22,73.67A15.24,15.24,0,0,1,372,459H340.05V387H372a15.24,15.24,0,0,1,15.22,15.23Z" style="fill:#fff"/><path d="M372,477.42H331.6a10,10,0,0,1-10-9.95v-88.9a10,10,0,0,1,10-10H372a33.68,33.68,0,0,1,33.64,33.64v41.54A33.67,33.67,0,0,1,372,477.42ZM331.6,371.61a7,7,0,0,0-7,7v88.9a7,7,0,0,0,7,6.95H372a30.67,30.67,0,0,0,30.64-30.63V402.25A30.68,30.68,0,0,0,372,371.61ZM372,460.51H338.55v-75H372a16.75,16.75,0,0,1,16.72,16.73v41.53A16.74,16.74,0,0,1,372,460.51Zm-30.43-3H372a13.74,13.74,0,0,0,13.72-13.73V402.25A13.74,13.74,0,0,0,372,388.52H341.55Z" style="fill:#fff"/><path d="M145.17,370.11H104.79a8.46,8.46,0,0,0-8.46,8.46v88.9a8.45,8.45,0,0,0,8.46,8.45h40.38a32.16,32.16,0,0,0,32.14-32.13V402.25A32.17,32.17,0,0,0,145.17,370.11Zm15.23,73.67A15.24,15.24,0,0,1,145.17,459H113.24V387h31.93a15.24,15.24,0,0,1,15.23,15.23Z" style="fill:#fff"/><path d="M145.17,477.42H104.79a10,10,0,0,1-10-9.95v-88.9a10,10,0,0,1,10-10h40.38a33.68,33.68,0,0,1,33.64,33.64v41.54A33.67,33.67,0,0,1,145.17,477.42ZM104.79,371.61a7,7,0,0,0-7,7v88.9a7,7,0,0,0,7,6.95h40.38a30.67,30.67,0,0,0,30.64-30.63V402.25a30.67,30.67,0,0,0-30.64-30.64Zm40.38,88.9H111.74v-75h33.43a16.76,16.76,0,0,1,16.73,16.73v41.53A16.75,16.75,0,0,1,145.17,460.51Zm-30.43-3h30.43a13.75,13.75,0,0,0,13.73-13.73V402.25a13.75,13.75,0,0,0-13.73-13.73H114.74Z" style="fill:#fff"/><path d="M286.6,448.07l0-.07-31.51-72.79-.07-.14c-.08-.18-.17-.37-.27-.55l-.12-.2c-.1-.18-.21-.35-.32-.52l-.13-.18a6.12,6.12,0,0,0-.39-.5l-.11-.13c-.15-.17-.3-.33-.47-.49l-.08-.08a6.44,6.44,0,0,0-.56-.48l0,0c-.21-.15-.42-.3-.64-.44h0a9,9,0,0,0-1.18-.64,8.51,8.51,0,0,0-3.43-.69h-.09l-.71,0-.25,0a5,5,0,0,0-.54.08l-.36.09-.43.11-.41.14-.36.13-.15.06-.28.14-.32.16a4.49,4.49,0,0,0-.42.24l-.29.18-.4.28-.26.2-.38.33-.23.22c-.12.12-.24.24-.35.37l-.21.24c-.11.13-.21.27-.31.4l-.18.26c-.1.15-.2.3-.29.46l-.14.24c-.09.18-.18.35-.26.53l-.07.15-38.49,88.9a8.46,8.46,0,0,0,15.52,6.72l4.78-11h51.89l4.78,11a8.45,8.45,0,1,0,15.51-6.72Zm-57.92-5.19,18.62-43,18.63,43Z" style="fill:#fff"/><path d="M285.79,477.42a9.94,9.94,0,0,1-9.14-6l-4.39-10.13H222.34L218,471.42a10,10,0,1,1-18.27-7.91l38.57-89.08c.09-.2.19-.41.3-.61l.14-.24c.14-.24.25-.41.36-.59l.22-.3c.12-.16.24-.32.37-.47l.25-.3.4-.42.29-.27c.13-.12.28-.26.43-.38l.3-.23c.17-.13.32-.24.48-.34l.34-.22.5-.28.38-.19.32-.16.19-.07.43-.16.47-.16.5-.13.43-.1.62-.1.31,0c.27,0,.55,0,.83-.05h.12a10.31,10.31,0,0,1,4,.81,10.07,10.07,0,0,1,1.39.75l.1.06c.18.12.43.29.67.48s.5.41.71.61l.09.09c.2.19.38.38.56.58l.12.15a6.15,6.15,0,0,1,.47.6l.15.2.38.61.13.24c.12.22.23.43.33.66l.08.15,31.5,72.79-1.34.67,1.38-.6,6.94,16a9.94,9.94,0,0,1-9.13,13.91Zm-65.42-19.13h53.86l5.17,11.94a7,7,0,1,0,12.76-5.53l-6.94-16,1.38-.6-1.38.59L253.68,375.8a.61.61,0,0,1-.05-.11c-.07-.15-.15-.3-.23-.45l-.07-.13c-.11-.19-.2-.33-.29-.47l-.09-.12c-.12-.16-.22-.3-.33-.43l-.09-.1q-.19-.23-.39-.42c-.22-.2-.37-.33-.53-.45a5.42,5.42,0,0,0-.56-.4,6.53,6.53,0,0,0-3.8-1.1h-.1l-.55,0-.23,0-.42.07-.22.05-.43.11L245,372l-.31.11-.35.16-.27.13-.35.2-.23.15a3.53,3.53,0,0,0-.34.24l-.21.16-.3.26-.2.19c-.09.09-.19.19-.28.3a1.63,1.63,0,0,0-.17.2l-.26.33-.15.21-.24.38-.11.2a3.42,3.42,0,0,0-.21.43l-.07.14L202.44,464.7a7,7,0,1,0,12.76,5.53Zm47.84-13.91H226.4l20.9-48.3Zm-37.25-3h32.68L247.3,403.63Z" style="fill:#fff"/><path d="M234.79,148a8.46,8.46,0,0,0,8.46-8.46v-39h23.91A32.2,32.2,0,0,0,267,36.1H234.79a8.46,8.46,0,0,0-8.45,8.46v95A8.45,8.45,0,0,0,234.79,148Zm8.46-95H267a15.08,15.08,0,0,1,14.91,15.2,15.26,15.26,0,0,1-15.1,15.39H243.25Z" style="fill:#fff"/><path d="M234.79,149.5a10,10,0,0,1-9.95-10v-95a10,10,0,0,1,9.95-10H267a33.7,33.7,0,0,1,.21,67.4H244.75v37.53A10,10,0,0,1,234.79,149.5Zm0-111.9a7,7,0,0,0-6.95,7v95a7,7,0,1,0,13.91,0V99h25.39A30.7,30.7,0,0,0,267,37.6Zm32,47.5h-25V51.51H267a16.57,16.57,0,0,1,16.41,16.7A16.77,16.77,0,0,1,266.78,85.1Zm-22-3h22a13.76,13.76,0,0,0,13.6-13.89A13.58,13.58,0,0,0,267,54.51H244.75Z" style="fill:#fff"/><path d="M323.94,92.08v47.46A8.46,8.46,0,0,0,332.4,148h47a8.78,8.78,0,0,0,8.65-8.65,8.68,8.68,0,0,0-10.25-8.26h-37V100.51h38.77a8.46,8.46,0,1,0,0-16.91H340.85V53h38.77a8.46,8.46,0,1,0,0-16.91H332.4a8.46,8.46,0,0,0-8.46,8.46V92.08Z" style="fill:#fff"/><path d="M379.43,149.5h-47a10,10,0,0,1-10-10v-95a10,10,0,0,1,10-10h47.22a10,10,0,1,1,0,19.91H342.35V82.1h37.27a10,10,0,1,1,0,19.91H342.35v27.58h35.33a10,10,0,0,1,8.14,2.13,9.83,9.83,0,0,1,3.76,7.63,10.28,10.28,0,0,1-10.15,10.15Zm-54-57.42v47.46a7,7,0,0,0,7,7h47a7.29,7.29,0,0,0,7.15-7.15,6.85,6.85,0,0,0-2.64-5.29,7.06,7.06,0,0,0-5.8-1.51l-.31,0H339.35V99h40.27a7,7,0,0,0,7-7,7,7,0,0,0-7-7H339.35V51.51h40.27a7,7,0,1,0,0-13.91H332.4a7,7,0,0,0-7,7Z" style="fill:#fff"/><path d="M100.52,128.18v-25A19.64,19.64,0,0,0,80.9,83.6H36.1a2.71,2.71,0,0,1-2.71-2.72V55.73A2.72,2.72,0,0,1,36.1,53h56a8.46,8.46,0,0,0,0-16.91h-56A19.64,19.64,0,0,0,16.48,55.73V80.88A19.64,19.64,0,0,0,36.1,100.51H80.9a2.71,2.71,0,0,1,2.71,2.71v25a3,3,0,0,1-2.91,2.91H24.93a8.46,8.46,0,0,0,0,16.91H80.7A19.84,19.84,0,0,0,100.52,128.18Z" style="fill:#fff"/><path d="M80.7,149.5H24.93a10,10,0,1,1,0-19.91H80.7a1.45,1.45,0,0,0,1.41-1.41v-25A1.21,1.21,0,0,0,80.9,102H36.1A21.15,21.15,0,0,1,15,80.88V55.73A21.15,21.15,0,0,1,36.1,34.6h56a10,10,0,0,1,0,19.91h-56a1.22,1.22,0,0,0-1.21,1.22V80.88A1.22,1.22,0,0,0,36.1,82.1H80.9A21.14,21.14,0,0,1,102,103.22v25A21.34,21.34,0,0,1,80.7,149.5ZM24.93,132.59a7,7,0,1,0,0,13.91H80.7A18.34,18.34,0,0,0,99,128.18v-25A18.14,18.14,0,0,0,80.9,85.1H36.1a4.22,4.22,0,0,1-4.21-4.22V55.73a4.23,4.23,0,0,1,4.21-4.22h56a7,7,0,0,0,0-13.91h-56A18.15,18.15,0,0,0,18,55.73V80.88A18.14,18.14,0,0,0,36.1,99H80.9a4.22,4.22,0,0,1,4.21,4.21v25a4.47,4.47,0,0,1-4.41,4.41Z" style="fill:#fff"/><path d="M140.69,148h33.18A23.12,23.12,0,0,0,197,124.94c0-20.63,0-62.48,0-80.4a8.45,8.45,0,0,0-8.46-8.44h0A8.46,8.46,0,0,0,180,44.56c0,17.91.05,59.74,0,80.37a6.17,6.17,0,0,1-6.17,6.16H140.69a6.18,6.18,0,0,1-6.18-6.18V44.85a8.65,8.65,0,0,0-7.89-8.73,8.45,8.45,0,0,0-9,8.44v80.35A23.09,23.09,0,0,0,140.69,148Z" style="fill:#fff"/><path d="M173.87,149.5H140.69a24.62,24.62,0,0,1-24.59-24.59V44.56a10,10,0,0,1,3.15-7.27,9.9,9.9,0,0,1,7.47-2.67A10.13,10.13,0,0,1,136,44.85v80.06a4.69,4.69,0,0,0,4.68,4.68h33.18a4.67,4.67,0,0,0,4.67-4.66c0-20.63,0-62.46,0-80.37a10,10,0,0,1,10-10h0a10,10,0,0,1,9.95,9.94c0,17.92.05,59.77,0,80.41A24.6,24.6,0,0,1,173.87,149.5ZM126.05,37.6a7,7,0,0,0-7,7v80.35a21.61,21.61,0,0,0,21.59,21.59h33.18a21.59,21.59,0,0,0,21.58-21.56c0-20.63,0-62.48,0-80.39a6.95,6.95,0,0,0-6.95-6.95h0a7,7,0,0,0-7,7c0,17.91.05,59.74,0,80.37a7.68,7.68,0,0,1-7.67,7.66H140.69a7.69,7.69,0,0,1-7.68-7.68V44.85a7.12,7.12,0,0,0-6.49-7.23Z" style="fill:#fff"/><path d="M473.59,92A32.35,32.35,0,0,0,484,68.21,32,32,0,0,0,452.15,36.1H418.38a8.46,8.46,0,0,0-8.45,8.46v95a8.46,8.46,0,1,0,16.91,0v-39h25.3a15.07,15.07,0,0,1,14.92,15.19v23.84a8.46,8.46,0,1,0,16.91,0V115.7A32.16,32.16,0,0,0,473.59,92Zm-46.75-8.4V53h25.3a15.08,15.08,0,0,1,14.92,15.2A15.26,15.26,0,0,1,452,83.6Z" style="fill:#fff"/><path d="M475.52,149.5a10,10,0,0,1-10-10V115.7A13.57,13.57,0,0,0,452.14,102h-23.8v37.53a10,10,0,1,1-19.91,0v-95a10,10,0,0,1,9.95-10h33.76a33.51,33.51,0,0,1,33.33,33.61A34.07,34.07,0,0,1,475.74,92a33.82,33.82,0,0,1,9.73,23.7v23.84A10,10,0,0,1,475.52,149.5ZM425.34,99h26.8a16.57,16.57,0,0,1,16.42,16.69v23.84a7,7,0,1,0,13.91,0V115.7a30.83,30.83,0,0,0-9.9-22.6l-1.2-1.1,1.2-1.1a31,31,0,0,0,9.9-22.69A30.5,30.5,0,0,0,452.14,37.6H418.38a7,7,0,0,0-6.95,7v95a7,7,0,1,0,13.91,0ZM452,85.1H425.34V51.51h26.8a16.58,16.58,0,0,1,16.42,16.7A16.77,16.77,0,0,1,452,85.1Zm-23.61-3H452a13.76,13.76,0,0,0,13.61-13.89,13.58,13.58,0,0,0-13.42-13.7h-23.8Z" style="fill:#fff"/><path d="M441.62,274.19c-37.65-2.65-58.24-26.8-76.4-48.13-10.66-12.51-20.73-24.31-33.08-30-24.54-11.32-43.39-6.68-54.87-.79s-20.77,15.62-27,27.69c-6.27-12.07-15.67-21.87-27-27.69s-30.33-10.53-54.87.79c-12.35,5.69-22.42,17.49-33.08,30-18.16,21.32-38.76,45.48-76.4,48.13a8.44,8.44,0,0,0-7.71,10.05c1.76,9,8.2,17.11,19.14,24,24.92,15.8,69.18,23.54,100.74,23.54,10.33,0,19.3-.83,25.78-2.47,27-6.85,44.2-21.24,53.44-38.25,9.25,17,26.46,31.39,53.45,38.24,6.48,1.65,15.45,2.48,25.77,2.48,31.56,0,75.82-7.74,100.74-23.54,10.95-6.93,17.39-15,19.14-24a8.45,8.45,0,0,0-7.7-10.05ZM192.62,313c-22.43,5.7-84.67-.81-113.3-19a43.32,43.32,0,0,1-6.2-4.67c36.49-7.14,57.64-31.95,75-52.29,9.83-11.54,18.32-21.49,27.28-25.62,14.54-6.7,28.41-7.09,40.09-1.1,12.65,6.48,22.07,20,25.2,36.09C246.8,277.86,227.94,304,192.62,313Zm228.51-19c-28.63,18.15-90.87,24.66-113.3,18.95-35.32-9-54.18-35.09-48.06-66.54,3.14-16.13,12.56-29.61,25.21-36.09a38.61,38.61,0,0,1,17.8-4.22h0a53.43,53.43,0,0,1,22.28,5.31c9,4.13,17.46,14.09,27.29,25.63,17.34,20.34,38.48,45.15,75,52.29A43.19,43.19,0,0,1,421.13,294Z" style="fill:#fff"/><path d="M171,333.32c-30.84,0-75.73-7.44-101.5-23.77-11.31-7.17-18-15.59-19.81-25a9.95,9.95,0,0,1,9.08-11.83c37-2.61,57.39-26.51,75.36-47.6,10.76-12.63,20.93-24.56,33.59-30.4,25.11-11.57,44.41-6.79,56.19-.75a64.16,64.16,0,0,1,26.35,25.88c6.5-11.44,15.57-20.36,26.36-25.88,11.78-6.05,31.08-10.82,56.19.76,12.66,5.83,22.82,17.76,33.59,30.39,18,21.09,38.33,45,75.36,47.6a9.95,9.95,0,0,1,9.08,11.83c-1.84,9.44-8.51,17.86-19.81,25-25.77,16.33-70.7,23.77-101.55,23.77-10.62,0-19.66-.88-26.14-2.53-24.17-6.13-42.46-18.78-53.08-36.65-10.61,17.87-28.9,30.52-53.07,36.66-6.49,1.65-15.53,2.52-26.15,2.52Zm26.67-142.68c-8.35,0-17.95,1.83-28.7,6.78-12.05,5.56-22,17.24-32.56,29.62C118,248.57,97.22,273,58.94,275.68A6.95,6.95,0,0,0,52.6,284c1.67,8.6,7.88,16.36,18.47,23.07,25.26,16,69.47,23.3,99.89,23.3h0c10.37,0,19.16-.84,25.41-2.43,24.37-6.19,42.52-19.15,52.5-37.5l1.31-2.43,1.32,2.43c10,18.34,28.12,31.31,52.49,37.49,6.25,1.6,15,2.44,25.41,2.44,30.43,0,74.68-7.29,99.94-23.3,10.58-6.71,16.8-14.47,18.47-23.07a7,7,0,0,0-6.34-8.27h0c-38.29-2.69-59.09-27.1-77.44-48.64-10.54-12.38-20.5-24.06-32.56-29.62-24-11.07-42.38-6.55-53.56-.81-11,5.63-20.12,15-26.39,27l-1.34,2.55-1.33-2.56c-6.27-12.06-15.4-21.41-26.39-27A54.16,54.16,0,0,0,197.63,190.64Zm-26.31,125.8c-28.66,0-70.66-7.14-92.81-21.18a44.47,44.47,0,0,1-6.4-4.83l-2.17-2,2.9-.57c36-7,57.13-31.86,74.12-51.79,9.94-11.67,18.53-21.75,27.8-26,15-6.9,29.29-7.27,41.39-1.07,13.06,6.69,22.77,20.58,26,37.14,6.29,32.31-13,59.11-49.16,68.29h0C187.67,315.76,180.12,316.44,171.32,316.44ZM76.44,290.16c1.11.87,2.34,1.72,3.68,2.57,28.36,18,89.95,24.42,112.13,18.77h0c34.48-8.75,52.91-34.19,46.95-64.8-3-15.67-12.18-28.77-24.41-35-11.26-5.77-24.66-5.37-38.78,1.13-8.66,4-17,13.83-26.77,25.23C132.42,257.74,111.6,282.17,76.44,290.16Zm252.72,26.27c-8.82,0-16.37-.67-21.7-2-36.15-9.17-55.45-36-49.16-68.28,3.22-16.56,12.94-30.45,26-37.14,12-6.16,26.5-5.79,41.4,1.07,9.27,4.27,17.86,14.35,27.8,26,17,19.94,38.14,44.75,74.12,51.8l2.9.57-2.17,2a44,44,0,0,1-6.41,4.83h0C399.8,309.3,357.82,316.43,329.16,316.43ZM302.78,207.6a37.22,37.22,0,0,0-17.12,4.05c-12.24,6.28-21.37,19.38-24.42,35-6,30.61,12.47,56.05,46.95,64.79,22.19,5.65,83.77-.78,112.14-18.76h0c1.33-.85,2.57-1.71,3.68-2.57-35.17-8-56-32.42-72.81-52.15-9.71-11.4-18.1-21.24-26.76-25.23A52,52,0,0,0,302.78,207.6Z" style="fill:#fff"/></svg>