<svg id="Layer_1" data-name="Layer 1" xmlns="http://www.w3.org/2000/svg" viewBox="0 0 500 500"><path d="M288.14,480H213.39V425.23H158.64V350.48h54.75V310.93A146.92,146.92,0,0,1,103.9,168.87C103.9,87.9,169.77,22,250.74,22S397.63,87.89,397.63,168.87A146.92,146.92,0,0,1,288.14,310.93v39.55h54.74v74.75H288.14Zm-54.75-20h34.75V405.23h54.74V370.48H268.14V294.82l8-1.62C335,281.26,377.63,229,377.63,168.87a126.87,126.87,0,1,0-253.73,0c0,60.1,42.68,112.39,101.48,124.33l8,1.62v75.66H178.64v34.75h54.75Zm17.37-199h0a92.12,92.12,0,1,1,92.13-92.12A92.24,92.24,0,0,1,250.75,261Zm0-164.24a72.12,72.12,0,0,0,0,144.24v0a72.12,72.12,0,0,0,0-144.24Z" style="fill:#fff"/></svg>