<svg id="Layer_1" data-name="Layer 1" xmlns="http://www.w3.org/2000/svg" viewBox="0 0 500 500"><path d="M222.75,396.71h0l8.94,0a9.27,9.27,0,1,0,0-18.53h-9a5.36,5.36,0,0,0-5.35,5.35v7.86a5.34,5.34,0,0,0,5.35,5.35Z" style="fill:#767676"/><path d="M235.94,416.57H222.75a5.35,5.35,0,0,0-5.35,5.35v14.39a5.34,5.34,0,0,0,5.35,5.35h0l13.17,0a12.53,12.53,0,0,0,0-25.06Zm0,14.36-7.84,0v-3.67h7.84a1.83,1.83,0,0,1,0,3.65Z" style="fill:#767676"/><path d="M429.37,396.62c4.39-.7,8.83-3,12.42-8.17,8.4-12,2.31-23.09-2.09-27.24l-.23-.21c-8.74-7.34-29.49-18-51.87-11.23-15.36,4.63-26.25,16.9-28.42,32A36.6,36.6,0,0,0,375.54,418c.39.26.79.5,1.19.72a20.63,20.63,0,0,0-17.26,34.39c11,12.17,27.2,19.15,44.37,19.15,22.53,0,41.53-14.76,45.16-35.1C451.26,424.55,447,407.59,429.37,396.62Zm9.09,38.7c-2.72,15.23-17.28,26.28-34.62,26.28-14.16,0-27.44-5.7-36.44-15.64a9.93,9.93,0,0,1,14.72-13.34,29.42,29.42,0,0,0,21.72,9.11c13.89,0,15.1-8.23,15.15-10.75.12-7.06-5.34-9-9.32-10.34-.62-.22-1.3-.45-2-.72-13.17-4.86-24.77-10-24.89-10.1a9.22,9.22,0,0,1-1.38-.75,26,26,0,0,1-11.61-25.76c1.57-10.95,9.59-19.88,20.92-23.29,17.88-5.39,34.58,3.1,41.75,9.05.75.77,5.56,6.1.57,13.26-4.56,6.54-11.7,2.92-13.48,1.87-2.13-1.63-12.5-8.9-23.48-5.6-4.29,1.3-7,4.85-6.65,8.7.47,7.87,9,9.86,16.5,11.61a72.28,72.28,0,0,1,8.62,2.37C435.31,409,440.41,424.41,438.46,435.32Zm-49.94-11.41c4.36,1.8,9.75,4,15.42,6l2.21.79a2.42,2.42,0,0,1,.35.12,20.2,20.2,0,0,1-2.66.16,18.52,18.52,0,0,1-13.79-5.59Q389.32,424.63,388.52,423.91Z" style="fill:#767676"/><path d="M457.33,242h0a50.11,50.11,0,0,0-38.64-17.43H395.75a20.62,20.62,0,0,0-20.63,20.72v14.61a62.28,62.28,0,0,0-69.9-35.16,61.42,61.42,0,0,0,12.1-17.6L389.4,125a8.57,8.57,0,0,0,.74-1c4.5-6.84,6.18-14.81,4.59-21.86a23.28,23.28,0,0,0-11.06-15c-17.76-10.79-33.54,6.53-38.93,12.55L329.44,115a23.07,23.07,0,0,0-9.81-12.55L314.08,99h0a22.8,22.8,0,0,0-16.19-3.09,23.24,23.24,0,0,0-10.66-17.13l-5.52-3.5a22.83,22.83,0,0,0-16.85-3.09,23.39,23.39,0,0,0-10.81-16.9l-5.24-3.27a23.2,23.2,0,0,0-32.1,7.65L197.5,91.17,191.2,80c-7.37-15.41-22.14-23.51-36-19.71l-3,.84A28.09,28.09,0,0,0,134.49,75a29.38,29.38,0,0,0-1.57,23.4,8.72,8.72,0,0,0,.51,1.22l16.25,31.84,4.77,15.21a152.39,152.39,0,0,0,3.48,25.15c3.93,16.19,8.46,30.49,22.17,39.55l-6,17.33a62.58,62.58,0,0,0-35.91,44.42,20.68,20.68,0,0,0-13.93-7.89,20.64,20.64,0,0,0-3.52-31.2A62.36,62.36,0,1,0,85.85,348.09c16.15,0,30.69-6.28,41-17.69A60.45,60.45,0,0,0,140,305.23a62.46,62.46,0,0,0,59.22,42.86c1.55,0,3.08-.07,4.6-.19A20.68,20.68,0,0,0,187.09,365a20.64,20.64,0,0,0-40.78.11,20.63,20.63,0,0,0-39.95-3.22l-9.83,29.61-10.43-30a20.63,20.63,0,1,0-39,13.53l28.52,82.17.06.17a22.55,22.55,0,0,0,21.21,15h.16A22.56,22.56,0,0,0,118.25,457l0-.09,27.25-82c.21-.65.39-1.31.54-2v78.74a20.64,20.64,0,0,0,41,3.22,20.84,20.84,0,0,0,5.81,11.41,20.55,20.55,0,0,0,14.56,6h.1c.22,0,22.32-.1,28.38-.1a43.16,43.16,0,0,0,42.58-36.46v15.54a20.66,20.66,0,0,0,20.64,20.64H334a20.64,20.64,0,0,0,0-41.27H319.79v-.07h11.64a20.64,20.64,0,0,0,0-41.28H319.79v-.07H334A20.64,20.64,0,0,0,334,348H322.21a62.46,62.46,0,0,0,52.91-36.43v13.38a19.8,19.8,0,0,0,.26,3.17A20.61,20.61,0,0,0,396,346.86h.39c6.43,0,18-.08,23.33-.17C450,346.15,472,320.51,472,285.73,472,268.57,466.81,253.05,457.33,242ZM85.85,337.39a51.66,51.66,0,1,1,28.89-94.49,9.94,9.94,0,0,1-11.12,16.47,31.79,31.79,0,1,0-17.77,58.15c10.3,0,18.06-4.92,22.43-14.23a5.36,5.36,0,0,0-4.85-7.63H96.91a9.93,9.93,0,1,1,0-19.86h25a9.94,9.94,0,0,1,9.93,9.93C131.8,316.15,112.91,337.39,85.85,337.39Zm6-31.65a15.28,15.28,0,0,1-6,1.08,21.09,21.09,0,1,1,6.4-41.19,20.64,20.64,0,0,0-.41,40.11Zm43.53,65.76h0l-27.26,82.08a11.84,11.84,0,0,1-11.07,8h-.12a11.86,11.86,0,0,1-11.16-7.93l-28.53-82.2A9.93,9.93,0,1,1,76,365l15.58,44.91a5.36,5.36,0,0,0,5.06,3.59h0a5.36,5.36,0,0,0,5-3.66l14.8-44.56a9.93,9.93,0,1,1,18.85,6.26Zm41.27,80.16a9.94,9.94,0,1,1-19.87,0V368.22a9.94,9.94,0,1,1,19.87,0ZM297.49,116a5.28,5.28,0,0,1,3.27-2.41,5.15,5.15,0,0,1,3.92.64l5.55,3.45a5.48,5.48,0,0,1,1.75,7.5l-22,36.21a8.76,8.76,0,0,1-10.76,3.24l-.19-.09a8.59,8.59,0,0,1-4.61-5.26,8.77,8.77,0,0,1,1.07-7.08ZM265,92.1a5.27,5.27,0,0,1,3.29-2.38,5.14,5.14,0,0,1,3.91.68l5.52,3.49a5.48,5.48,0,0,1,1.69,7.52l-22.29,36a8.74,8.74,0,0,1-10.79,3.14l-.18-.08a8.57,8.57,0,0,1-4.56-5.3,8.72,8.72,0,0,1,1.12-7.07ZM210,105l22-36a5.36,5.36,0,0,1,3.39-2.48,5.28,5.28,0,0,1,4,.66l5.25,3.27a5.68,5.68,0,0,1,1.79,7.76l-22,36a8.77,8.77,0,0,1-10.81,3.2l-.15-.07a8.57,8.57,0,0,1-4.59-5.27A8.75,8.75,0,0,1,210,105Zm-34.69,62.61a136.53,136.53,0,0,1-3.05-22.87,9.25,9.25,0,0,0-.4-2.33l-5.35-17a9.27,9.27,0,0,0-.56-1.38L149.66,92.16a11.34,11.34,0,0,1,.58-8.76,10.34,10.34,0,0,1,6.58-5.06l3.05-.84c6-1.65,12.39,4.12,15.33,10.38a5,5,0,0,0,.31.61l16,28.39c.11.19.23.37.35.54a26.17,26.17,0,0,0,13.78,16l.15.07A25.1,25.1,0,0,0,216.9,136a27.26,27.26,0,0,0,6.61-.82,26.13,26.13,0,0,0,14.67,21.31l.18.08a25.24,25.24,0,0,0,11.25,2.6,27.5,27.5,0,0,0,6.69-.84,25.66,25.66,0,0,0,1,6,26.21,26.21,0,0,0,13.89,16.26l.19.09a25.17,25.17,0,0,0,11.05,2.5,26.78,26.78,0,0,0,22.78-12.51l16.67-27.45,2.46-.33a8.91,8.91,0,0,0,5.09-2.54l28.09-28.18.33-.34c11.27-12.59,15.1-10.26,16.54-9.38a5.55,5.55,0,0,1,2.92,3.64c.48,2.13-.22,5.09-1.79,7.68L303,196.42a9,9,0,0,0-1.46,2.28c-2.81,6.38-11.05,21.28-26.75,21.79a8.92,8.92,0,0,0-8.2,6.17l-10.7,33.09a62.46,62.46,0,0,0-56.67-36.38c-1.52,0-3,.08-4.5.18l4.68-13.49a8.91,8.91,0,0,0-4.9-11.11h0C183.48,194.18,179.87,186.59,175.27,167.61Zm24,169.78a51.66,51.66,0,1,1,51.65-51.66A51.71,51.71,0,0,1,199.26,337.39ZM235.94,461.5c-6.08,0-28.21.09-28.47.1a9.85,9.85,0,0,1-7-2.9,10,10,0,0,1-2.93-7V368.22a10,10,0,0,1,9.94-9.94h24.24a29.17,29.17,0,0,1,29.13,29.14,28.86,28.86,0,0,1-2.94,12.75,5.35,5.35,0,0,0,1,6.12,32.38,32.38,0,0,1-23,55.21Zm42.58-92.9v53.89a42.74,42.74,0,0,0-9.53-21,39.85,39.85,0,0,0-37.28-53.88H207a62.52,62.52,0,0,0,51.8-43.35A62.49,62.49,0,0,0,314.53,348H299.16A20.66,20.66,0,0,0,278.52,368.6ZM334,358.66a9.94,9.94,0,0,1,0,19.87H314.44a5.36,5.36,0,0,0-5.35,5.35v10.78a5.36,5.36,0,0,0,5.35,5.35h17a9.93,9.93,0,0,1,0,19.86h-17a5.36,5.36,0,0,0-5.35,5.35V436a5.36,5.36,0,0,0,5.35,5.35H334a9.93,9.93,0,1,1,0,19.86H299.16a9.94,9.94,0,0,1-9.94-9.93V368.6a10,10,0,0,1,9.94-9.94Zm-15.63-21.27A51.66,51.66,0,1,1,370,285.73,51.71,51.71,0,0,1,318.37,337.39ZM419.54,336c-5.27.1-16.79.16-23.19.18h-.43A9.9,9.9,0,0,1,386,327c0-.15,0-.3,0-.45a9.41,9.41,0,0,1-.16-1.64V245.26a9.94,9.94,0,0,1,9.93-9.95h22.94c25.1,0,42.63,20.73,42.63,50.42C461.32,314.42,443.75,335.55,419.54,336Z" style="fill:#767676"/><path d="M418.69,255.18h-7.62a5.34,5.34,0,0,0-5.35,5.36c0,9.27,0,20.23,0,25.1,0,5.74,0,16.32.05,25.23a5.37,5.37,0,0,0,1.59,3.78,5.3,5.3,0,0,0,3.76,1.55h.05c3.11,0,6-.05,8-.09h0c15.38-.27,22.27-15.45,22.27-30.38C441.46,271,435.48,255.18,418.69,255.18Zm.31,50.23-2.51,0c0-7.48,0-15.2,0-19.81,0-3.95,0-11.93,0-19.76h2.26c10.89,0,12.07,13.88,12.07,19.85C430.76,293,428.28,305.25,419,305.41Z" style="fill:#767676"/><path d="M199.26,253.94a31.79,31.79,0,1,0,31.79,31.79A31.82,31.82,0,0,0,199.26,253.94Zm0,52.88a21.09,21.09,0,1,1,21.09-21.09A21.11,21.11,0,0,1,199.26,306.82Z" style="fill:#767676"/><path d="M318.37,253.94a31.79,31.79,0,1,0,31.79,31.79A31.82,31.82,0,0,0,318.37,253.94Zm0,52.88a21.09,21.09,0,1,1,21.09-21.09A21.11,21.11,0,0,1,318.37,306.82Z" style="fill:#767676"/><path d="M393,160.36l-13.58,6.12a2.71,2.71,0,0,0,0,4.78L393,177.38a2.44,2.44,0,0,1,1.27,1.43l5.44,15.28a2.2,2.2,0,0,0,4.25,0l5.43-15.28a2.49,2.49,0,0,1,1.28-1.43l13.58-6.12a2.71,2.71,0,0,0,0-4.78l-13.58-6.12a2.49,2.49,0,0,1-1.28-1.43L404,143.65a2.2,2.2,0,0,0-4.25,0l-5.44,15.28A2.44,2.44,0,0,1,393,160.36Z" style="fill:#767676"/><path d="M125.84,194.28a16,16,0,1,0-20.91-8.65A16,16,0,0,0,125.84,194.28Z" style="fill:#767676"/><path d="M88.8,139.28a6.9,6.9,0,1,0-5.7-7.92A6.9,6.9,0,0,0,88.8,139.28Z" style="fill:#767676"/></svg>