<svg id="Layer_1" data-name="Layer 1" xmlns="http://www.w3.org/2000/svg" viewBox="0 0 500 500"><path d="M347.9,130.79a8,8,0,0,1-7.76-6l-11.47-45.8a8,8,0,0,1,15.52-3.88l11.47,45.79a8,8,0,0,1-5.81,9.7A7.77,7.77,0,0,1,347.9,130.79Z" style="fill:#fff"/><path d="M293.87,124.2a7.89,7.89,0,0,1-4.39-1.33,8,8,0,0,1-2.28-11.08l27.67-41.93a8,8,0,0,1,13.36,8.81L300.56,120.6A8,8,0,0,1,293.87,124.2Z" style="fill:#fff"/><path d="M231.88,393.71h-27.8a8,8,0,0,1-8-8v-66a8,8,0,0,1,8-8h27.8a8,8,0,0,1,0,16h-19.8v50h19.8a8,8,0,0,1,0,16Z" style="fill:#fff"/><path d="M229.83,360.72H204.08a8,8,0,0,1,0-16h25.75a8,8,0,1,1,0,16Z" style="fill:#fff"/><path d="M133.66,358.17a8,8,0,0,1-8-8V319.74a8,8,0,0,1,8-8h19.16a23.18,23.18,0,0,1,0,46.36c-4.15,0-19.13.07-19.13.07Zm8-30.43v14.39l11.16,0a7.18,7.18,0,0,0,0-14.36Z" style="fill:#fff"/><path d="M133.66,393.71a8,8,0,0,1-8-8V350.12a8,8,0,0,1,8-8h22.51a25.76,25.76,0,0,1,0,51.51c-4.86,0-22.48.08-22.48.08Zm8-35.59v19.55l14.51,0a9.76,9.76,0,0,0,0-19.51Z" style="fill:#fff"/><path d="M281.59,393.71c-11.07,0-21.88-4.64-28.92-12.41a8,8,0,1,1,11.86-10.74,23.2,23.2,0,0,0,17.06,7.15c6.5,0,11.09-3.92,11.76-7.71.91-5.08-5.85-8.16-8.8-9.25-2.75-1-5.1-1.83-7.18-2.55-5.72-2-9.85-3.42-13.81-6.17a21.17,21.17,0,0,1-8.92-20.84c1.36-8.61,7.54-15.37,16.52-18.07,17.89-5.39,32.63,6.76,33.25,7.28a8,8,0,0,1-10.26,12.28c-.24-.2-9-7.09-18.38-4.24-3,.9-4.94,2.82-5.33,5.25a5.22,5.22,0,0,0,2.25,5.2c2.15,1.5,4.91,2.45,9.92,4.19,2.15.75,4.59,1.59,7.48,2.66,16.5,6.08,20.64,18,19,27.08C306.94,384.92,295.37,393.71,281.59,393.71Z" style="fill:#fff"/><path d="M363.33,327.74H326.9a8,8,0,0,1,0-16h36.43a8,8,0,0,1,0,16Z" style="fill:#fff"/><path d="M345,393.71a8,8,0,0,1-8-8V321.85a8,8,0,0,1,16,0v63.86A8,8,0,0,1,345,393.71Z" style="fill:#fff"/><path d="M156.1,489.83a9.47,9.47,0,0,1-9-6.46l-.09-.29-11.08-37.54-6.71,37.2a8,8,0,0,1-15.75-2.84l11.6-64.24a9.49,9.49,0,0,1,18.33-1.32l.09.28L156,457l12.05-42.27c0-.09,0-.18.08-.28a9.49,9.49,0,0,1,18.33,1l12.3,64.36a8,8,0,0,1-15.72,3l-7.13-37.33L165.21,483a2.76,2.76,0,0,1-.08.27,9.47,9.47,0,0,1-9,6.56Z" style="fill:#fff"/><path d="M340.89,489.83h-.05a9.47,9.47,0,0,1-9-6.56,2.76,2.76,0,0,1-.08-.27l-10.69-37.51L314,482.82a8,8,0,1,1-15.71-3l12.28-64.26a9.49,9.49,0,0,1,18.34-1.14l.09.28L341,457l12.49-42.35.09-.28a9.49,9.49,0,0,1,18.32,1.23l11.61,64.33a8,8,0,0,1-15.75,2.84l-6.71-37.19L350,483.08a1.61,1.61,0,0,1-.09.29A9.47,9.47,0,0,1,340.89,489.83Z" style="fill:#fff"/><path d="M248.5,489.83a41,41,0,1,1,41-41A41,41,0,0,1,248.5,489.83Zm0-66a25,25,0,1,0,25,25A25,25,0,0,0,248.5,423.87Z" style="fill:#fff"/><path d="M332.12,85.51A26.85,26.85,0,1,1,359,58.66,26.87,26.87,0,0,1,332.12,85.51Zm0-37.69A10.85,10.85,0,1,0,343,58.66,10.86,10.86,0,0,0,332.12,47.82Z" style="fill:#fff"/><path d="M149.09,130.79a7.64,7.64,0,0,1-1.94-.24,8,8,0,0,1-5.82-9.7L152.8,75.06a8,8,0,0,1,15.52,3.88l-11.47,45.8A8,8,0,0,1,149.09,130.79Z" style="fill:#fff"/><path d="M203.12,124.2a8,8,0,0,1-6.69-3.6L168.76,78.67a8,8,0,0,1,13.36-8.81l27.67,41.93a8,8,0,0,1-6.67,12.41Z" style="fill:#fff"/><path d="M164.87,85.51a26.85,26.85,0,1,1,26.85-26.85A26.88,26.88,0,0,1,164.87,85.51Zm0-37.69a10.85,10.85,0,1,0,10.85,10.84A10.86,10.86,0,0,0,164.87,47.82Z" style="fill:#fff"/><path d="M380.44,267.66a8.22,8.22,0,0,1-1.55-.15,8,8,0,0,1-6.31-9.39l15.72-80.23A8,8,0,0,1,404,181l-15.72,80.22A8,8,0,0,1,380.44,267.66Z" style="fill:#fff"/><path d="M402.43,155.4a8.22,8.22,0,0,1-1.55-.15,8,8,0,0,1-6.31-9.39L405.4,90.58a8,8,0,0,1,15.7,3.08l-10.83,55.27A8,8,0,0,1,402.43,155.4Z" style="fill:#fff"/><path d="M177.69,148.24a26.88,26.88,0,0,1-16.68-5.8L93.83,89.23a8,8,0,1,1,9.93-12.54l67.18,53.2a10.84,10.84,0,0,0,15.95-2.77L228.1,60.88a8,8,0,0,1,13.59,8.45l-41.21,66.25a26.8,26.8,0,0,1-22.79,12.66Z" style="fill:#fff"/><path d="M102,193.29a8,8,0,0,1-7.84-6.46L75.89,93.66a8,8,0,0,1,15.7-3.08l18.25,93.17a8,8,0,0,1-7.86,9.54Z" style="fill:#fff"/><path d="M116.55,267.66a8,8,0,0,1-7.84-6.47l-8.29-42.32a8,8,0,1,1,15.7-3.08l8.29,42.33a8,8,0,0,1-6.31,9.39A8.22,8.22,0,0,1,116.55,267.66Z" style="fill:#fff"/><path d="M319.3,148.24a26.8,26.8,0,0,1-22.79-12.66L255.3,69.33a8,8,0,1,1,13.59-8.45l41.21,66.24A10.85,10.85,0,0,0,326,129.9l67.19-53.22a8,8,0,0,1,9.94,12.55L336,142.44A26.88,26.88,0,0,1,319.3,148.24Z" style="fill:#fff"/><path d="M248.5,77.06a33.45,33.45,0,1,1,33.44-33.45A33.49,33.49,0,0,1,248.5,77.06Zm0-50.9a17.45,17.45,0,1,0,17.44,17.45A17.47,17.47,0,0,0,248.5,26.16Z" style="fill:#fff"/><path d="M418.13,100.59a33.45,33.45,0,1,1,33.45-33.44A33.48,33.48,0,0,1,418.13,100.59Zm0-50.89a17.45,17.45,0,1,0,17.45,17.45A17.46,17.46,0,0,0,418.13,49.7Z" style="fill:#fff"/><path d="M78.86,100.59a33.45,33.45,0,1,1,33.45-33.44A33.48,33.48,0,0,1,78.86,100.59Zm0-50.89A17.45,17.45,0,1,0,96.31,67.15,17.46,17.46,0,0,0,78.86,49.7Z" style="fill:#fff"/><path d="M248.5,235.61a17.32,17.32,0,0,1-13.61-6.54h0L213,201.75A17.32,17.32,0,0,1,213,180l21.86-27.32a17.42,17.42,0,0,1,27.21,0L284,180a17.32,17.32,0,0,1,0,21.77L262.1,229.07A17.31,17.31,0,0,1,248.5,235.61Zm-1.12-16.53a1.44,1.44,0,0,0,2.23,0l21.86-27.32a1.44,1.44,0,0,0,0-1.78l-21.86-27.33a1.44,1.44,0,0,0-2.23,0L225.53,190a1.41,1.41,0,0,0,0,1.78Z" style="fill:#fff"/><path d="M324.2,214a23.08,23.08,0,1,1,23.08-23.08A23.11,23.11,0,0,1,324.2,214Zm0-30.16a7.08,7.08,0,1,0,7.08,7.08A7.09,7.09,0,0,0,324.2,183.79Z" style="fill:#fff"/><path d="M172.79,214a23.08,23.08,0,1,1,23.08-23.08A23.11,23.11,0,0,1,172.79,214Zm0-30.16a7.08,7.08,0,1,0,7.08,7.08A7.09,7.09,0,0,0,172.79,183.79Z" style="fill:#fff"/><path d="M391.74,297.81H310.21a8,8,0,0,1,0-16h81.08V267.66H105.7v14.15H277.56a8,8,0,0,1,0,16H105.25A15.56,15.56,0,0,1,89.7,282.27V267.19a15.56,15.56,0,0,1,15.55-15.53H391.74a15.56,15.56,0,0,1,15.55,15.53v15.08A15.56,15.56,0,0,1,391.74,297.81Z" style="fill:#fff"/></svg>