<svg id="Layer_1" data-name="Layer 1" xmlns="http://www.w3.org/2000/svg" viewBox="0 0 500 500"><path d="M475.26,164V107.86a10,10,0,0,0-13.94-9.19L264.46,183a10,10,0,0,0-6.06,9.19V393.82l-.47-.38c-12.35-9.25-28.6-14.35-45.77-14.35s-33.43,5.1-45.78,14.35c-13.2,9.91-20.47,23.34-20.47,37.83s7.27,27.93,20.47,37.83c12.35,9.26,28.6,14.36,45.78,14.36s33.42-5.1,45.77-14.36c13.2-9.9,20.47-23.33,20.47-37.83V255.07l176.86-75.8V309.45c-.16-.12-.31-.25-.48-.37-12.34-9.26-28.59-14.36-45.77-14.36s-33.42,5.1-45.77,14.36c-13.2,9.9-20.47,23.33-20.47,37.83s7.27,27.92,20.47,37.82c12.35,9.26,28.6,14.36,45.77,14.36s33.43-5.1,45.77-14.36c13.21-9.9,20.48-23.33,20.48-37.82V164ZM212.16,463.46c-25.07,0-46.25-14.74-46.25-32.19s21.18-32.18,46.25-32.18,46.24,14.74,46.24,32.18S237.22,463.46,212.16,463.46ZM278.4,233.31V198.83L455.26,123v34.48ZM409,379.09c-25.06,0-46.24-14.74-46.24-32.18S384,314.72,409,314.72s46.25,14.74,46.25,32.19S434.08,379.09,409,379.09Z" style="fill:#fff"/><path d="M152.67,57.64c7.14,8.13,15.76,18.43,24.32,29.86,26.2,35,40,64.43,40,85.2,0,9.43-4.21,20.78-12.17,32.81a119.19,119.19,0,0,1-13,16.37A10,10,0,1,0,206,236a136.34,136.34,0,0,0,15.31-19.1C231.74,201.25,237,186.38,237,172.7,237,113,153.3,28.58,149.74,25l-.13-.11a6.44,6.44,0,0,0-.61-.55c-.11-.1-.23-.18-.35-.27s-.29-.22-.43-.31l-.41-.25-.44-.26-.41-.2-.48-.22-.38-.14-.54-.19-.35-.09-.6-.15-.36-.05-.61-.09-.46,0c-.17,0-.34,0-.51,0s-.36,0-.54,0l-.43,0c-.22,0-.43.06-.64.09l-.33.05c-.21,0-.42.1-.63.16l-.32.08-.58.2-.35.13-.52.24-.37.18-.48.28-.36.22-.5.37-.29.21a9.82,9.82,0,0,0-1.4,1.41l-.24.31-.34.47c-.09.13-.17.27-.25.4s-.17.29-.26.44-.13.28-.19.42a4,4,0,0,0-.22.47c-.06.13-.1.26-.15.4s-.13.35-.19.53l-.09.37c-.05.19-.1.38-.14.58s0,.27-.06.4-.07.37-.09.56,0,.43,0,.64,0,.23,0,.34V233.68l-.48-.38C119.85,224.05,103.59,219,86.42,219S53,224.05,40.65,233.3c-13.2,9.91-20.47,23.34-20.47,37.83S27.45,299.06,40.65,309c12.34,9.26,28.6,14.36,45.77,14.36s33.43-5.1,45.77-14.36c13.2-9.9,20.48-23.34,20.48-37.83ZM86.42,303.32c-25.07,0-46.24-14.74-46.24-32.19S61.35,239,86.42,239s46.25,14.74,46.25,32.18S111.49,303.32,86.42,303.32Z" style="fill:#fff"/></svg>