<svg id="Layer_1" data-name="Layer 1" xmlns="http://www.w3.org/2000/svg" viewBox="0 0 500 500"><path d="M384,408.28H371.58V395.91a9.94,9.94,0,0,0-19.88,0v12.37H339.33a9.94,9.94,0,1,0,0,19.88H351.7v12.37a9.94,9.94,0,0,0,19.88,0V428.16H384a9.94,9.94,0,0,0,0-19.88Z" style="fill:#fff"/><path d="M263.43,152.13H275.8v12.36a9.94,9.94,0,0,0,19.88,0V152.13h12.37a9.94,9.94,0,0,0,0-19.88H295.68V119.88a9.94,9.94,0,0,0-19.88,0v12.37H263.43a9.94,9.94,0,0,0,0,19.88Z" style="fill:#fff"/><path d="M378.4,102.77h12.37v12.37a9.94,9.94,0,1,0,19.88,0V102.77H423a9.94,9.94,0,0,0,0-19.88H410.65V70.52a9.94,9.94,0,1,0-19.88,0V82.89H378.4a9.94,9.94,0,0,0,0,19.88Z" style="fill:#fff"/><path d="M464.4,158.17a10,10,0,0,0-8.16-2.14L339.76,177.49a10,10,0,0,0-8.14,9.78v95l-4.27-2a41.26,41.26,0,0,0-21.17-3.81l-2.31.18-.76-2.19a138.37,138.37,0,0,0-118-92.18l-2.73-.25V126.68H201.3a44.06,44.06,0,0,0,44-44V58.48a10,10,0,0,0-9.94-9.94H109.49a10,10,0,0,0-9.94,9.94V82.67a44.06,44.06,0,0,0,44,44h18.93V182l-2.73.25A138.56,138.56,0,0,0,34.05,320c0,76.31,62.08,138.38,138.37,138.38a138.46,138.46,0,0,0,131.84-96.29l.71-2.21,2.31.13a42,42,0,0,0,44.22-41.85V249.55l96.6-17.39v50.06l-4.28-2a41.9,41.9,0,1,0,24.16,38V165.8A9.94,9.94,0,0,0,464.4,158.17ZM212.78,208.55a117.6,117.6,0,0,1,71.9,73.38l.67,2-1.66,1.31A42.22,42.22,0,0,0,269,307.81l-.58,2.25H228.64l-.11-2.89c-1.32-37.25-8.42-71.69-19.47-94.49l-3.21-6.63ZM143.56,106.8a24.16,24.16,0,0,1-24.14-24.13V68.42h106V82.67A24.15,24.15,0,0,1,201.3,106.8Zm28.87,94.71c7.44,0,16.64,12.19,23.46,31.06,7.28,20.17,11.69,45.89,12.75,74.38l.12,3.11H136.1l.12-3.11c1.05-28.5,5.46-54.22,12.75-74.38C155.78,213.7,165,201.51,172.43,201.51ZM54.68,306.73a119.34,119.34,0,0,1,77.37-98.13l6.95-2.53-3.22,6.65c-11,22.81-18.13,57.23-19.46,94.45l-.1,2.89H54.31Zm77.37,124.69a119.35,119.35,0,0,1-77.37-98.14l-.37-3.34h61.91l.1,2.9c1.33,37.22,8.42,71.65,19.46,94.45l3.22,6.65Zm40.38,7.08c-7.44,0-16.65-12.18-23.46-31.05-7.29-20.17-11.7-45.9-12.75-74.4l-.12-3.11h72.66l-.12,3.11c-1,28.5-5.46,54.23-12.75,74.4C189.07,426.32,179.86,438.5,172.43,438.5Zm113.21-83.44a119.61,119.61,0,0,1-72.76,76.22l-7,2.56,3.22-6.68c11-22.8,18.07-57.18,19.39-94.32l.11-2.9h40.67l.71,2a41.89,41.89,0,0,0,14.55,19.82l1.7,1.27Zm23.95-14.86a22,22,0,1,1,22-22A22.07,22.07,0,0,1,309.59,340.2Zm116.47,0a22,22,0,1,1,22-22A22.06,22.06,0,0,1,426.06,340.2ZM448.1,212l-96.6,17.4V195.54l96.6-17.8Z" style="fill:#fff"/></svg>