<svg id="Layer_1" data-name="Layer 1" xmlns="http://www.w3.org/2000/svg" viewBox="0 0 500 500"><path d="M452.22,65.92a78.63,78.63,0,0,0-106-33.45c-2.32,1.23-4.59,2.54-6.75,4-2.2-1.41-4.44-2.72-6.75-4A78.63,78.63,0,0,0,240.5,157.56l75.43,76.13a33,33,0,0,0,46.86,0l75.46-76.06A78.63,78.63,0,0,0,452.22,65.92Zm-32.49,73.33-75.47,76.06a6.88,6.88,0,0,1-9.8,0L259,139.21A52.54,52.54,0,0,1,330.84,62.6a13,13,0,0,0,17.12,0,52.54,52.54,0,0,1,71.77,76.65Z" style="fill:#fff"/><path d="M71.13,243.46h129a13,13,0,1,0,0-26.1H84.18V43.69a13.05,13.05,0,0,0-26.1,0V230.41A13,13,0,0,0,71.13,243.46Z" style="fill:#fff"/><path d="M406.41,301.28a13,13,0,1,0,0-26.09H290.17a13,13,0,0,0-13.05,13V456.49a13,13,0,0,0,13.05,13.05H406.41a13,13,0,1,0,0-26.09H303.22v-58h66.4a13.05,13.05,0,0,0,0-26.1h-66.4V301.28Z" style="fill:#fff"/><path d="M225.21,275.84A13.06,13.06,0,0,0,208,282.49l-70.13,143.1L74.93,283A13.06,13.06,0,1,0,51,293.53L125.3,461.75A13,13,0,0,0,137,469.54h.26a13.08,13.08,0,0,0,11.74-7.3L231.41,294c.16-.3.31-.61.45-.92A13.05,13.05,0,0,0,225.21,275.84Z" style="fill:#fff"/></svg>