<svg id="Layer_1" data-name="Layer 1" xmlns="http://www.w3.org/2000/svg" viewBox="0 0 500 500"><path d="M449.51,218.11a145.87,145.87,0,0,0-89.22-47.05L387,144.33l-21.25-24.74H316.44l-21.26,24.74,26.74,26.74a145.53,145.53,0,0,0-71,29.92,145.56,145.56,0,0,0-71-29.92l26.74-26.74-21.26-24.74H136.07l-21.26,24.74,26.74,26.73A146.2,146.2,0,0,0,14.73,315.8c0,80.51,65.49,146,146,146a146.47,146.47,0,0,0,90.18-31.19,146.52,146.52,0,0,0,90.19,31.19c80.51,0,146-65.5,146-146A145.65,145.65,0,0,0,449.51,218.11Zm-271.9-81.58,5.95,6.92-22.83,22.84-22.84-22.84,6-6.92Zm180.38,0,5.95,6.92L341.1,166.29l-22.83-22.84,6-6.92ZM160.73,186.74a129.09,129.09,0,0,1,109.63,197.2c-.49-.5-1-1-1.43-1.51l-.7-.77-.25-.29c-.6-.66-1.19-1.33-1.77-2l-1-1.18c-.55-.67-1.1-1.36-1.64-2.05l-.08-.1-.83-1.08c-.58-.77-1.15-1.56-1.72-2.35a115.22,115.22,0,0,0-.09-113.71l.08-.13-2.87-4.54a116.07,116.07,0,0,0-16.17-20.12c-2-2-4.16-4-6.35-5.85l-6.94-5.94-.22.29a115.18,115.18,0,1,0,.22,186.26l.57.68.7.83c.26.31.51.62.78.92l1.42,1.61.62.69c.25.28.49.56.74.83.55.6,1.11,1.19,1.67,1.78l.58.61.63.66c.56.58,1.12,1.15,1.69,1.71a129.06,129.06,0,1,1-77.28-232.43ZM259,315.8a97.23,97.23,0,0,1-8,39,98.3,98.3,0,0,1,0-77.92A97.23,97.23,0,0,1,259,315.8Zm82.14-98.24a98.24,98.24,0,1,1-57.83,177.62,146,146,0,0,0,0-158.76A98.84,98.84,0,0,1,341.1,217.56ZM160.73,414a98.24,98.24,0,1,1,57.83-177.62,146,146,0,0,0,0,158.76A98.84,98.84,0,0,1,160.73,414Zm70.74-166.37c.48.49,1,1,1.43,1.5l.68.75.27.31c.6.67,1.19,1.34,1.77,2l1,1.17c.56.69,1.11,1.38,1.66,2.08l.06.08.84,1.08c.58.78,1.15,1.56,1.72,2.36a115.23,115.23,0,0,0,.08,113.7l-.08.13,2.88,4.54a115.9,115.9,0,0,0,22.52,26l6.94,5.94.22-.3a115.18,115.18,0,1,0-.22-186.26c-.22-.25-.43-.51-.65-.77l-.57-.67-.83-1-1.5-1.69-.53-.6-.76-.84c-.5-.55-1-1.09-1.52-1.63l-.67-.7c-.23-.24-.45-.49-.68-.72-.56-.58-1.13-1.14-1.69-1.7a129.07,129.07,0,1,1-26.94,179.48,129.1,129.1,0,0,1-5.41-144.25Z" style="fill:#767676"/><rect x="242.44" y="28.57" width="16.94" height="46.4" style="fill:#767676"/><rect x="285.15" y="56.87" width="46.4" height="16.94" transform="translate(119.59 317.77) rotate(-65.18)" style="fill:#767676"/><rect x="185" y="42.15" width="16.94" height="46.4" transform="translate(-9.56 87.26) rotate(-24.82)" style="fill:#767676"/></svg>