<?xml version="1.0" encoding="UTF-8"?>
<svg width="40px" height="40px" viewBox="0 0 40 40" version="1.1" xmlns="http://www.w3.org/2000/svg" xmlns:xlink="http://www.w3.org/1999/xlink">
    <title>6F2EDE88-B047-49C6-B12D-59C78FA23D26</title>
    <g id="Styleguide" stroke="none" stroke-width="1" fill="none" fill-rule="evenodd">
        <g id="10.03-Icone" transform="translate(-1058.000000, -398.000000)" fill="#db2777" fill-rule="nonzero">
            <g id="icon-/-big-/big_match_manual" transform="translate(1058.000000, 398.000000)">
                <path d="M32,12.6 C34.6887547,12.6 36.8818181,14.7223067 36.9953805,17.3831104 L37,17.6 L37,32 C37,34.6887547 34.8776933,36.8818181 32.2168896,36.9953805 L32,37 L17.6,37 C14.9112453,37 12.7181819,34.8776933 12.6046195,32.2168896 L12.6,32 L12.6,27.4 L12.0458698,27.4 L12.0458698,25.4 L12.6,25.4 L12.6,17.6 C12.6,14.9112453 14.7223067,12.7181819 17.3831104,12.6046195 L17.6,12.6 L32,12.6 Z M32,14.6 L27.4,14.599 L27.4,16.8770651 L25.4,16.8770651 L25.4,14.599 L17.6,14.6 C16.0023191,14.6 14.6963391,15.84892 14.6050927,17.4237272 L14.6,17.6 L14.6,25.4 L16.0458698,25.4 L16.0458698,27.4 L14.6,27.4 L14.6,32 C14.6,33.5976809 15.84892,34.9036609 17.4237272,34.9949073 L17.6,35 L32,35 C33.5976809,35 34.9036609,33.75108 34.9949073,32.1762728 L35,32 L35,17.6 C35,16.0023191 33.75108,14.6963391 32.1762728,14.6050927 L32,14.6 Z M21.5458698,25.4 L21.5458698,27.4 L17.5458698,27.4 L17.5458698,25.4 L21.5458698,25.4 Z M6.92740924,25.2028604 C7.26622809,25.332624 7.62768406,25.4 8,25.4 L10.5458698,25.4 L10.5458698,27.4 L8,27.4 C7.38220287,27.4 6.77837786,27.2874461 6.21209894,27.0705678 L6.92740924,25.2028604 Z M25.196583,23.4888384 L27.0600658,24.2150835 C26.4377081,25.812 25.030355,26.9904816 23.3376603,27.3120368 L22.9644027,25.3471758 C23.9774166,25.1547372 24.8234358,24.4463022 25.196583,23.4888384 Z M5,21.5688048 L5,22.4 C5,23.2376546 5.34369365,24.0179459 5.94101658,24.5818913 L4.56801774,26.0361521 C3.57454356,25.0981917 3,23.7937994 3,22.4 L3,21.5688048 L5,21.5688048 Z M27.4,18.3770651 L27.4,22.3770651 L25.4,22.3770651 L25.4,18.3770651 L27.4,18.3770651 Z M5,16.0688048 L5,20.0688048 L3,20.0688048 L3,16.0688048 L5,16.0688048 Z M5,10.5688048 L5,14.5688048 L3,14.5688048 L3,10.5688048 L5,10.5688048 Z M27.3310805,7.16888512 C27.3737656,7.42363366 27.3967849,7.68242018 27.3997481,7.95456252 L27.4,11.3769915 L25.4,11.3771387 L25.3998098,7.96574769 C25.3980575,7.80806072 25.3842063,7.65234246 25.3585784,7.49939285 L27.3310805,7.16888512 Z M4.34270897,4.59054619 L5.80538386,5.95457777 C5.29045383,6.50674624 5,7.22932866 5,8 L5,9.06880475 L3,9.06880475 L3,8 C3,6.71798112 3.48579835,5.50942642 4.34270897,4.59054619 Z M22.4,3 C24.1399294,3 25.7272866,3.89680408 26.6357729,5.34227511 L24.9424493,6.40653798 C24.3962377,5.53747358 23.4449011,5 22.4,5 L22.4,3 Z M10.307852,3.00000008 L10.3086687,5.00000008 L7.93253263,5.00073878 C7.49899359,5.01024448 7.08136466,5.11144915 6.69953551,5.29550044 L5.83110906,3.4938802 C6.46915391,3.18632647 7.16778631,3.01702579 7.91020372,3.00097914 L10.307852,3.00000008 Z M15.8082603,3 L15.8082603,5 L11.8082603,5 L11.8082603,3 L15.8082603,3 Z M21.3082603,3 L21.3082603,5 L17.3082603,5 L17.3082603,3 L21.3082603,3 Z" id="Shape"></path>
            </g>
        </g>
    </g>
</svg>