<?xml version="1.0" encoding="UTF-8"?>
<svg width="40px" height="40px" viewBox="0 0 40 40" version="1.1" xmlns="http://www.w3.org/2000/svg" xmlns:xlink="http://www.w3.org/1999/xlink">
    <title>AC3C72F3-8891-4532-9E19-F7664E06CC1B</title>
    <g id="Styleguide" stroke="none" stroke-width="1" fill="none" fill-rule="evenodd">
        <g id="10.03-Icone" transform="translate(-1058.000000, -178.000000)" fill="#1D4ED8" fill-rule="nonzero">
            <g id="icon-/-big-/big_alert" transform="translate(1058.000000, 178.000000)">
                <path d="M20,2 C29.9411255,2 38,10.0588745 38,20 C38,29.9411255 29.9411255,38 20,38 C10.0588745,38 2,29.9411255 2,20 C2,10.0588745 10.0588745,2 20,2 Z M20,4 C11.163444,4 4,11.163444 4,20 C4,28.836556 11.163444,36 20,36 C28.836556,36 36,28.836556 36,20 C36,11.163444 28.836556,4 20,4 Z M20.0126425,27 C20.8340874,27 21.5,27.6715729 21.5,28.5 C21.5,29.2692538 20.9258202,29.9032607 20.1860998,29.9899084 L19.9873575,30 C19.1659126,30 18.5,29.3284271 18.5,28.5 C18.5,27.7307462 19.0741798,27.0967393 19.8139002,27.0100916 L20.0126425,27 Z M20,10 C20.5128358,10 20.9355072,10.3860402 20.9932723,10.8833789 L21,11 L21,23 C21,23.5522847 20.5522847,24 20,24 C19.4871642,24 19.0644928,23.6139598 19.0067277,23.1166211 L19,23 L19,11 C19,10.4477153 19.4477153,10 20,10 Z" id="Shape"></path>
            </g>
        </g>
    </g>
</svg>