<?xml version="1.0" encoding="UTF-8"?>
<svg width="24px" height="24px" viewBox="0 0 24 24" version="1.1" xmlns="http://www.w3.org/2000/svg" xmlns:xlink="http://www.w3.org/1999/xlink">
    <title>20C9D48C-0AB9-45E0-86D2-632AD4A70075</title>
    <g id="Styleguide" stroke="none" stroke-width="1" fill="none" fill-rule="evenodd">
        <g id="10.03-Icone" transform="translate(-858.000000, -334.000000)" fill="#1D4ED8" fill-rule="nonzero">
            <g id="icon/anagraphic/business" transform="translate(858.000000, 334.000000)">
                <path d="M21,2 C22.6568542,2 24,3.34314575 24,5 L24,19 C24,20.6568542 22.6568542,22 21,22 L3,22 C1.34314575,22 0,20.6568542 0,19 L0,5 C0,3.34314575 1.34314575,2 3,2 L21,2 Z M21,4 L3,4 C2.48716416,4 2.06449284,4.38604019 2.00672773,4.88337887 L2,5 L2,19 C2,19.5128358 2.38604019,19.9355072 2.88337887,19.9932723 L3,20 L21,20 C21.5128358,20 21.9355072,19.6139598 21.9932723,19.1166211 L22,19 L22,5 C22,4.48716416 21.6139598,4.06449284 21.1166211,4.00672773 L21,4 Z M10.7788822,12.6666667 C12.4971015,12.6666667 13.9012115,14.0115278 13.9960036,15.7060413 L14.0011045,15.8888889 L14.0011045,17 C14.0011045,17.5522847 13.5533892,18 13.0011045,18 C12.4882686,18 12.0655973,17.6139598 12.0078322,17.1166211 L12.0011045,17 L12.0011045,15.8888889 C12.0011045,15.2560626 11.5201603,14.7355669 10.9038474,14.6729769 L10.7788822,14.6666667 L7.22222222,14.6666667 C6.58939595,14.6666667 6.06890019,15.1476108 6.0063102,15.7639238 L6,15.8888889 L6,17 C6,17.5522847 5.55228475,18 5,18 C4.48716416,18 4.06449284,17.6139598 4.00672773,17.1166211 L4,17 L4,15.8888889 C4,14.1706697 5.34486113,12.7665596 7.03937459,12.6717675 L7.22222222,12.6666667 L10.7788822,12.6666667 Z M19,15 C19.5522847,15 20,15.4477153 20,16 C20,16.5522847 19.5522847,17 19,17 L17,17 C16.4477153,17 16,16.5522847 16,16 C16,15.4477153 16.4477153,15 17,15 L19,15 Z M19,11 C19.5522847,11 20,11.4477153 20,12 C20,12.5522847 19.5522847,13 19,13 L17,13 C16.4477153,13 16,12.5522847 16,12 C16,11.4477153 16.4477153,11 17,11 L19,11 Z M9,6 C10.6568542,6 12,7.34314575 12,9 C12,10.6568542 10.6568542,12 9,12 C7.34314575,12 6,10.6568542 6,9 C6,7.34314575 7.34314575,6 9,6 Z M9,7.86206897 C8.37153804,7.86206897 7.86206897,8.37153804 7.86206897,9 C7.86206897,9.62846196 8.37153804,10.137931 9,10.137931 C9.62846196,10.137931 10.137931,9.62846196 10.137931,9 C10.137931,8.37153804 9.62846196,7.86206897 9,7.86206897 Z M19,7 C19.5522847,7 20,7.44771525 20,8 C20,8.55228475 19.5522847,9 19,9 L15,9 C14.4477153,9 14,8.55228475 14,8 C14,7.44771525 14.4477153,7 15,7 L19,7 Z" id="Combined-Shape"></path>
            </g>
        </g>
    </g>
</svg>