<?xml version="1.0" encoding="UTF-8"?>
<svg width="24px" height="24px" viewBox="0 0 24 24" version="1.1" xmlns="http://www.w3.org/2000/svg" xmlns:xlink="http://www.w3.org/1999/xlink">
    <title>7816026D-7DD0-444D-AC23-5CB9C2A51855</title>
    <g id="Styleguide" stroke="none" stroke-width="1" fill="none" fill-rule="evenodd">
        <g id="10.03-Icone" transform="translate(-231.000000, -541.000000)" fill="#1D4ED8" fill-rule="nonzero">
            <g id="icon/checkbox/checkbox_on" transform="translate(231.000000, 541.000000)">
                <path d="M19,2 C20.6568542,2 22,3.34314575 22,5 L22,5 L22,19 C22,20.6568542 20.6568542,22 19,22 L19,22 L5,22 C3.34314575,22 2,20.6568542 2,19 L2,19 L2,5 C2,3.34314575 3.34314575,2 5,2 L5,2 Z M18.7071068,7.29289322 C18.3165825,6.90236893 17.6834175,6.90236893 17.2928932,7.29289322 L17.2928932,7.29289322 L9.75,14.835 L6.70710678,11.7928932 L6.61289944,11.7097046 C6.22060824,11.4046797 5.65337718,11.4324093 5.29289322,11.7928932 C4.90236893,12.1834175 4.90236893,12.8165825 5.29289322,13.2071068 L5.29289322,13.2071068 L9.04289322,16.9571068 L9.13710056,17.0402954 C9.52939176,17.3453203 10.0966228,17.3175907 10.4571068,16.9571068 L10.4571068,16.9571068 L18.7071068,8.70710678 L18.7902954,8.61289944 C19.0953203,8.22060824 19.0675907,7.65337718 18.7071068,7.29289322 Z" id="Combined-Shape"></path>
            </g>
        </g>
    </g>
</svg>