<?xml version="1.0" encoding="UTF-8"?>
<svg width="24px" height="24px" viewBox="0 0 24 24" version="1.1" xmlns="http://www.w3.org/2000/svg" xmlns:xlink="http://www.w3.org/1999/xlink">
    <title>AD62277E-749A-42C4-BAA7-21D03D01C1F2</title>
    <g id="Styleguide" stroke="none" stroke-width="1" fill="none" fill-rule="evenodd">
        <g id="10.03-Icone" transform="translate(-60.000000, -217.000000)" fill="#1D4ED8" fill-rule="nonzero">
            <g id="icon/system/confirm" transform="translate(60.000000, 217.000000)">
                <path d="M16.4770563,1.95280662 C16.9815288,2.17758643 17.2082645,2.76876221 16.9834847,3.27323469 C16.7587049,3.77770717 16.1675291,4.00444289 15.6630566,3.77966309 C12.022298,2.15743584 7.74817307,3.12311787 5.1585034,6.15302801 C2.56883372,9.18293816 2.28052159,13.5553016 4.4499162,16.8990228 C6.61931082,20.242744 10.7296264,21.7612931 14.5518738,20.631174 C18.2872519,19.5267393 20.8779014,16.1497774 20.9958557,12.2771967 L21.0000565,12.0062349 L21.0000565,11.0862349 C21.0000565,10.5339501 21.4477717,10.0862349 22.0000565,10.0862349 C22.5128923,10.0862349 22.9355636,10.472275 22.9933287,10.9696137 L23.0000565,11.0862349 L23.0000565,12.0068066 C22.9972709,16.8783611 19.7905797,21.1678409 15.118944,22.5490977 C10.4473082,23.9303545 5.4235892,22.07435 2.77210689,17.9875796 C0.120624583,13.9008092 0.473006087,8.5568095 3.63815791,4.85358598 C6.80330973,1.15036247 12.0272402,-0.029915564 16.4770563,1.95280662 Z M22.7068098,3.29877478 C23.0674738,3.65907855 23.0954869,4.22629568 22.790658,4.61873927 L22.7075165,4.71298817 L12.7075165,14.7229882 C12.3470854,15.0837797 11.7796262,15.1116678 11.387191,14.8065569 L11.2929497,14.7233416 L8.29294968,11.7233416 C7.90242539,11.3328173 7.90242539,10.6996524 8.29294968,10.3091281 C8.65343364,9.94864411 9.2206647,9.92091458 9.6129559,10.2259395 L9.70716324,10.3091281 L11.999,12.601 L21.2925964,3.29948154 C21.6829255,2.90876213 22.3160904,2.90844571 22.7068098,3.29877478 Z" id="Combined-Shape"></path>
            </g>
        </g>
    </g>
</svg>