<?xml version="1.0" encoding="UTF-8"?>
<svg width="24px" height="24px" viewBox="0 0 24 24" version="1.1" xmlns="http://www.w3.org/2000/svg" xmlns:xlink="http://www.w3.org/1999/xlink">
    <title>D94EFDA0-4925-4CC6-BF00-36BE256EA15C</title>
    <g id="Styleguide" stroke="none" stroke-width="1" fill="none" fill-rule="evenodd">
        <g id="10.03-Icone" transform="translate(-858.000000, -217.000000)" fill="#1D4ED8" fill-rule="nonzero">
            <g id="icon/anagraphic/doc" transform="translate(858.000000, 217.000000)">
                <path d="M14,1 C14.0425909,1 14.0845598,1.00266262 14.1257495,1.00783047 C14.1359475,1.00922376 14.1463778,1.01071103 14.1567725,1.01236099 C14.1883933,1.0172036 14.2193064,1.02361582 14.249662,1.03141743 C14.2598053,1.0342797 14.2698902,1.03704988 14.2799252,1.0399762 C14.3109399,1.04873224 14.3413507,1.05922617 14.3710585,1.07110396 C14.3800191,1.07496957 14.3890567,1.0787342 14.3980377,1.08263089 C14.4262995,1.09463815 14.4536613,1.10806791 14.4802859,1.12267436 C14.4906553,1.12855823 14.5012587,1.13461331 14.5117542,1.14086468 C14.5399066,1.15749759 14.5670269,1.17554946 14.5931738,1.19484452 C14.6329776,1.22420712 14.6712627,1.25704911 14.7071068,1.29289322 L14.6138331,1.21050608 C14.6177282,1.21353888 14.6216003,1.21659988 14.625449,1.21968877 L14.7071068,1.29289322 L20.7071068,7.29289322 C20.7364445,7.32223095 20.7639678,7.3533831 20.7894939,7.38616693 C20.7951656,7.39353973 20.8003651,7.40041834 20.8054709,7.40735764 C20.8244505,7.43297305 20.8425024,7.46009338 20.8592238,7.48809993 C20.8653867,7.49874131 20.8714418,7.50934473 20.8772982,7.52005033 C20.8919321,7.54633874 20.9053618,7.57370048 20.9175449,7.60172936 C20.9212658,7.61094326 20.9250304,7.61998091 20.9286618,7.62907226 C20.9407738,7.65864932 20.9512678,7.68906007 20.9602981,7.72009403 C20.9629501,7.73010978 20.9657203,7.7401947 20.9683328,7.75032594 C20.9763842,7.78069364 20.9827964,7.81160666 20.9877474,7.84300527 C20.9958186,7.89475892 21,7.9471639 21,8 L20.9921695,7.87425046 C20.9925508,7.87728905 20.9929184,7.88033187 20.9932723,7.88337887 L21,8 L21,20 C21,21.6568542 19.6568542,23 18,23 L18,23 L6,23 C4.34314575,23 3,21.6568542 3,20 L3,20 L3,4 C3,2.34314575 4.34314575,1 6,1 L6,1 L14,1 L14,1 Z M13,3 L6,3 C5.44771525,3 5,3.44771525 5,4 L5,4 L5,20 C5,20.5522847 5.44771525,21 6,21 L6,21 L18,21 C18.5522847,21 19,20.5522847 19,20 L19,20 L19,9 L14,9 C13.4871642,9 13.0644928,8.61395981 13.0067277,8.11662113 L13,8 L13,3 Z M16,16 C16.5522847,16 17,16.4477153 17,17 C17,17.5128358 16.6139598,17.9355072 16.1166211,17.9932723 L16,18 L8,18 C7.44771525,18 7,17.5522847 7,17 C7,16.4871642 7.38604019,16.0644928 7.88337887,16.0067277 L8,16 L16,16 Z M16,12 C16.5522847,12 17,12.4477153 17,13 C17,13.5128358 16.6139598,13.9355072 16.1166211,13.9932723 L16,14 L8,14 C7.44771525,14 7,13.5522847 7,13 C7,12.4871642 7.38604019,12.0644928 7.88337887,12.0067277 L8,12 L16,12 Z M10,8 C10.5522847,8 11,8.44771525 11,9 C11,9.51283584 10.6139598,9.93550716 10.1166211,9.99327227 L10,10 L8,10 C7.44771525,10 7,9.55228475 7,9 C7,8.48716416 7.38604019,8.06449284 7.88337887,8.00672773 L8,8 L10,8 Z M15,4.415 L15,7 L17.585,7 L15,4.415 Z" id="Combined-Shape"></path>
            </g>
        </g>
    </g>
</svg>