<?xml version="1.0" encoding="UTF-8"?>
<svg width="24px" height="24px" viewBox="0 0 24 24" version="1.1" xmlns="http://www.w3.org/2000/svg" xmlns:xlink="http://www.w3.org/1999/xlink">
    <title>D26EA87C-67C3-4941-A32F-733B581A6E7B</title>
    <g id="Styleguide" stroke="none" stroke-width="1" fill="none" fill-rule="evenodd">
        <g id="10.03-Icone" transform="translate(-60.000000, -334.000000)" fill="#1D4ED8" fill-rule="nonzero">
            <g id="icon/system/download" transform="translate(60.000000, 334.000000)">
                <path d="M21,14 C21.5128358,14 21.9355072,14.3860402 21.9932723,14.8833789 L22,15 L22,19 C22,20.5976809 20.75108,21.9036609 19.1762728,21.9949073 L19,22 L5,22 C3.40231912,22 2.09633912,20.75108 2.00509269,19.1762728 L2,19 L2,15 C2,14.4477153 2.44771525,14 3,14 C3.51283584,14 3.93550716,14.3860402 3.99327227,14.8833789 L4,15 L4,19 C4,19.5128358 4.38604019,19.9355072 4.88337887,19.9932723 L5,20 L19,20 C19.5128358,20 19.9355072,19.6139598 19.9932723,19.1166211 L20,19 L20,15 C20,14.4477153 20.4477153,14 21,14 Z M12,2 C12.5128358,2 12.9355072,2.38604019 12.9932723,2.88337887 L13,3 L13,12.585 L16.2928932,9.29289322 C16.6533772,8.93240926 17.2206082,8.90467972 17.6128994,9.20970461 L17.7071068,9.29289322 C18.0675907,9.65337718 18.0953203,10.2206082 17.7902954,10.6128994 L17.7071068,10.7071068 L12.7071068,15.7071068 C12.6786405,15.7355731 12.6484659,15.7623312 12.6167501,15.787214 L12.7071068,15.7071068 C12.6717127,15.7425008 12.6343256,15.774687 12.5953066,15.8036654 C12.5711307,15.8215099 12.546275,15.8382813 12.5206602,15.8539326 C12.5086131,15.8613931 12.4963944,15.8685012 12.4840621,15.8753288 C12.4642939,15.8862061 12.4438914,15.8966234 12.4230991,15.9063462 C12.4060985,15.914321 12.3887956,15.9218036 12.371336,15.9287745 C12.3515792,15.9366843 12.3317977,15.9438775 12.3117364,15.9504533 C12.2968513,15.9552713 12.2814633,15.9599023 12.265993,15.9641549 C12.2444365,15.9701664 12.2227461,15.9753602 12.2007941,15.9798348 C12.1833753,15.9832978 12.165949,15.9863719 12.1484669,15.9889822 C12.1281144,15.9920941 12.1070574,15.994564 12.085811,15.9963697 C12.0679231,15.997855 12.050591,15.9988772 12.0332468,15.9994506 C12.0224019,15.9998151 12.0112225,16 12,16 L11.9677454,15.9994829 C11.9497336,15.9989053 11.9317345,15.9978436 11.9137692,15.9962979 L12,16 C11.9493797,16 11.8996379,15.9962388 11.8510388,15.9889807 C11.834051,15.9863719 11.8166247,15.9832978 11.7992742,15.9797599 C11.7772539,15.9753602 11.7555635,15.9701664 11.7341604,15.964279 C11.7185367,15.9599023 11.7031487,15.9552713 11.6878575,15.9502619 C11.6682023,15.9438775 11.6484208,15.9366843 11.6289415,15.928896 C11.6112044,15.9218036 11.5939015,15.914321 11.5767785,15.9063266 C11.5561086,15.8966234 11.5357061,15.8862061 11.515723,15.8751242 C11.5036056,15.8685012 11.4913869,15.8613931 11.4792912,15.8540045 C11.453725,15.8382813 11.4288693,15.8215099 11.4048407,15.8036865 C11.3987914,15.7992821 11.3929267,15.7948255 11.3871006,15.7902954 C11.3515341,15.7623312 11.3213595,15.7355731 11.2928932,15.7071068 L6.29289322,10.7071068 C5.90236893,10.3165825 5.90236893,9.68341751 6.29289322,9.29289322 C6.65337718,8.93240926 7.22060824,8.90467972 7.61289944,9.20970461 L7.70710678,9.29289322 L11,12.585 L11,3 C11,2.44771525 11.4477153,2 12,2 Z" id="Combined-Shape"></path>
            </g>
        </g>
    </g>
</svg>