<?xml version="1.0" encoding="UTF-8"?>
<svg width="24px" height="24px" viewBox="0 0 24 24" version="1.1" xmlns="http://www.w3.org/2000/svg" xmlns:xlink="http://www.w3.org/1999/xlink">
    <title>DBD7620B-9E10-40FB-BDEC-5E139834C5B1</title>
    <g id="Styleguide" stroke="none" stroke-width="1" fill="none" fill-rule="evenodd">
        <g id="10.03-Icone" transform="translate(-60.000000, -412.000000)" fill="#1D4ED8" fill-rule="nonzero">
            <g id="icon/system/filter" transform="translate(60.000000, 412.000000)">
                <path d="M7,13 C7.55228475,13 8,13.4477153 8,14 C8,14.5128358 7.61395981,14.9355072 7.11662113,14.9932723 L7,15 L5,15 L5,21 C5,21.5522847 4.55228475,22 4,22 C3.48716416,22 3.06449284,21.6139598 3.00672773,21.1166211 L3,21 L3,15 L1,15 C0.44771525,15 0,14.5522847 0,14 C0,13.4871642 0.38604019,13.0644928 0.883378875,13.0067277 L1,13 L7,13 Z M4,2 C4.51283584,2 4.93550716,2.38604019 4.99327227,2.88337887 L5,3 L5,10 C5,10.5522847 4.55228475,11 4,11 C3.48716416,11 3.06449284,10.6139598 3.00672773,10.1166211 L3,10 L3,3 C3,2.44771525 3.44771525,2 4,2 Z M12,11 C12.5128358,11 12.9355072,11.3860402 12.9932723,11.8833789 L13,12 L13,21 C13,21.5522847 12.5522847,22 12,22 C11.4871642,22 11.0644928,21.6139598 11.0067277,21.1166211 L11,21 L11,12 C11,11.4477153 11.4477153,11 12,11 Z M9,9 C8.44771525,9 8,8.55228475 8,8 C8,7.48716416 8.38604019,7.06449284 8.88337887,7.00672773 L9,7 L11,7 L11,3 C11,2.44771525 11.4477153,2 12,2 C12.5128358,2 12.9355072,2.38604019 12.9932723,2.88337887 L13,3 L13,7 L15,7 C15.5522847,7 16,7.44771525 16,8 C16,8.51283584 15.6139598,8.93550716 15.1166211,8.99327227 L15,9 L9,9 Z M23,15 C23.5522847,15 24,15.4477153 24,16 C24,16.5128358 23.6139598,16.9355072 23.1166211,16.9932723 L23,17 L21,17 L21,21 C21,21.5522847 20.5522847,22 20,22 C19.4871642,22 19.0644928,21.6139598 19.0067277,21.1166211 L19,21 L19,17 L17,17 C16.4477153,17 16,16.5522847 16,16 C16,15.4871642 16.3860402,15.0644928 16.8833789,15.0067277 L17,15 L23,15 Z M20,2 C20.5128358,2 20.9355072,2.38604019 20.9932723,2.88337887 L21,3 L21,12 C21,12.5522847 20.5522847,13 20,13 C19.4871642,13 19.0644928,12.6139598 19.0067277,12.1166211 L19,12 L19,3 C19,2.44771525 19.4477153,2 20,2 Z" id="Combined-Shape" transform="translate(12.000000, 12.000000) rotate(-270.000000) translate(-12.000000, -12.000000) "></path>
            </g>
        </g>
    </g>
</svg>