<?xml version="1.0" encoding="UTF-8"?>
<svg width="24px" height="24px" viewBox="0 0 24 24" version="1.1" xmlns="http://www.w3.org/2000/svg" xmlns:xlink="http://www.w3.org/1999/xlink">
    <title>94D38C44-A9F9-4CB3-A9B0-89DB1F012DCA</title>
    <g id="Styleguide" stroke="none" stroke-width="1" fill="none" fill-rule="evenodd">
        <g id="10.03-Icone" transform="translate(-60.000000, -490.000000)" fill="#1D4ED8" fill-rule="nonzero">
            <g id="icon/system/logout" transform="translate(60.000000, 490.000000)">
                <path d="M9,2 C9.55228475,2 10,2.44771525 10,3 C10,3.51283584 9.61395981,3.93550716 9.11662113,3.99327227 L9,4 L5,4 C4.48716416,4 4.06449284,4.38604019 4.00672773,4.88337887 L4,5 L4,19 C4,19.5128358 4.38604019,19.9355072 4.88337887,19.9932723 L5,20 L9,20 C9.55228475,20 10,20.4477153 10,21 C10,21.5128358 9.61395981,21.9355072 9.11662113,21.9932723 L9,22 L5,22 C3.40231912,22 2.09633912,20.75108 2.00509269,19.1762728 L2,19 L2,5 C2,3.40231912 3.24891996,2.09633912 4.82372721,2.00509269 L5,2 L9,2 Z M16.6128994,6.20970461 L16.7071068,6.29289322 L21.7071068,11.2928932 C21.7425008,11.3282873 21.774687,11.3656744 21.8036654,11.4046934 L21.8753288,11.5159379 L21.8753288,11.5159379 L21.9287745,11.628664 L21.9287745,11.628664 L21.9641549,11.734007 L21.9641549,11.734007 L21.9930928,11.8819045 L21.9930928,11.8819045 L22,12 L22,12 L21.9972121,12.0752385 L21.9972121,12.0752385 L21.9797599,12.2007258 L21.9797599,12.2007258 L21.9502619,12.3121425 L21.9502619,12.3121425 L21.9063266,12.4232215 L21.9063266,12.4232215 L21.8540045,12.5207088 L21.8540045,12.5207088 L21.7803112,12.625449 L21.7803112,12.625449 L21.7071068,12.7071068 L16.7071068,17.7071068 C16.3165825,18.0976311 15.6834175,18.0976311 15.2928932,17.7071068 C14.9324093,17.3466228 14.9046797,16.7793918 15.2097046,16.3871006 L15.2928932,16.2928932 L18.585,13 L9,13 C8.44771525,13 8,12.5522847 8,12 C8,11.4871642 8.38604019,11.0644928 8.88337887,11.0067277 L9,11 L18.585,11 L15.2928932,7.70710678 C14.9324093,7.34662282 14.9046797,6.77939176 15.2097046,6.38710056 L15.2928932,6.29289322 C15.6533772,5.93240926 16.2206082,5.90467972 16.6128994,6.20970461 Z" id="Shape"></path>
            </g>
        </g>
    </g>
</svg>