<?xml version="1.0" encoding="UTF-8"?>
<svg width="24px" height="24px" viewBox="0 0 24 24" version="1.1" xmlns="http://www.w3.org/2000/svg" xmlns:xlink="http://www.w3.org/1999/xlink">
    <title>D8EF3733-709C-451B-99C3-DB4F3A6318B8</title>
    <g id="Styleguide" stroke="none" stroke-width="1" fill="none" fill-rule="evenodd">
        <g id="10.03-Icone" transform="translate(-60.000000, -685.000000)" fill="#1D4ED8" fill-rule="nonzero">
            <g id="icon/system/search" transform="translate(60.000000, 685.000000)">
                <path d="M11,2 C15.9705627,2 20,6.02943725 20,11 C20,13.124779 19.2636898,15.0775836 18.0323074,16.6171757 L21.7071068,20.2928932 C22.0976311,20.6834175 22.0976311,21.3165825 21.7071068,21.7071068 C21.3466228,22.0675907 20.7793918,22.0953203 20.3871006,21.7902954 L20.2928932,21.7071068 L16.6171757,18.0323074 C15.0775836,19.2636898 13.124779,20 11,20 C6.02943725,20 2,15.9705627 2,11 C2,6.02943725 6.02943725,2 11,2 Z M11,4 C7.13400675,4 4,7.13400675 4,11 C4,14.8659932 7.13400675,18 11,18 C12.8904747,18 14.6059153,17.25059 15.8654514,16.0326404 C15.8886352,16.0004394 15.9147502,15.9710363 15.9428932,15.9428932 L16.0326404,15.8654514 C17.25059,14.6059153 18,12.8904747 18,11 C18,7.13400675 14.8659932,4 11,4 Z" id="Shape"></path>
            </g>
        </g>
    </g>
</svg>