<?xml version="1.0" encoding="UTF-8"?>
<svg width="24px" height="24px" viewBox="0 0 24 24" version="1.1" xmlns="http://www.w3.org/2000/svg" xmlns:xlink="http://www.w3.org/1999/xlink">
    <title>F9C92F84-E856-45BD-B81E-DA51FB37CBFE</title>
    <g id="Styleguide" stroke="none" stroke-width="1" fill="none" fill-rule="evenodd">
        <g id="10.03-Icone" transform="translate(-60.000000, -724.000000)" fill="#1D4ED8" fill-rule="nonzero">
            <g id="icon/system/settings" transform="translate(60.000000, 724.000000)">
                <path d="M12,0 C13.5976809,0 14.9036609,1.24891996 14.9949073,2.82372721 L15,3 L15,3.08601169 C15.0010253,3.34508314 15.1558067,3.57880297 15.4037653,3.68513742 C15.6164744,3.77901441 15.8604403,3.75133449 16.040108,3.62366677 L16.1128932,3.56289322 L16.3172635,3.36763594 C16.8626928,2.88939884 17.5651246,2.62342669 18.295,2.62342669 C19.0912277,2.62342669 19.8547952,2.93995553 20.4167133,3.5025 C20.9800445,4.06520477 21.2965733,4.82877226 21.2965733,5.625 C21.2965733,6.35487543 21.0306012,7.05730717 20.5526671,7.60243363 L20.4171068,7.74710678 L20.3648626,7.79926496 C20.1790548,7.98921731 20.1275746,8.27313857 20.2348626,8.51623466 L20.2606625,8.5806561 L20.2606625,8.5806561 L20.2818868,8.64655191 L20.294,8.706 L20.338646,8.76793506 C20.4191434,8.86396119 20.5256628,8.93475069 20.6444167,8.97150196 L20.7355607,8.99254572 L20.83,9 L21,9 C22.6568542,9 24,10.3431458 24,12 C24,13.5976809 22.75108,14.9036609 21.1762728,14.9949073 L21,15 L20.9139883,15 C20.6549169,15.0010253 20.421197,15.1558067 20.3148626,15.4037653 C20.2209856,15.6164744 20.2486655,15.8604403 20.3763332,16.040108 L20.4371068,16.1128932 L20.6323641,16.3172635 C21.1106012,16.8626928 21.3765733,17.5651246 21.3765733,18.295 C21.3765733,19.0912277 21.0600445,19.8547952 20.4975,20.4167133 C19.9347952,20.9800445 19.1712277,21.2965733 18.375,21.2965733 C17.6451246,21.2965733 16.9426928,21.0306012 16.3975664,20.5526671 L16.2528932,20.4171068 L16.200735,20.3648626 C16.0107827,20.1790548 15.7268614,20.1275746 15.4739314,20.2391398 C15.2655723,20.3284399 15.1210229,20.5185441 15.0874543,20.7355607 L15.08,20.83 L15.08,21 C15.08,22.6568542 13.7368542,24 12.08,24 C10.4823191,24 9.17633912,22.75108 9.08509269,21.1762728 L9.08,21 L9.08027346,20.9333846 C9.07403212,20.6665579 8.90531385,20.4306648 8.59623466,20.3148626 C8.38352558,20.2209856 8.13955973,20.2486655 7.95989202,20.3763332 L7.88710678,20.4371068 L7.68273651,20.6323641 C7.13730717,21.1106012 6.43487543,21.3765733 5.705,21.3765733 C4.90877226,21.3765733 4.14520477,21.0600445 3.58328666,20.4975 C3.01995553,19.9347952 2.70342669,19.1712277 2.70342669,18.375 C2.70342669,17.6451246 2.96939884,16.9426928 3.44733289,16.3975664 L3.58289322,16.2528932 L3.63513742,16.200735 C3.82094519,16.0107827 3.87242541,15.7268614 3.76086017,15.4739314 C3.67156012,15.2655723 3.48145587,15.1210229 3.26443934,15.0874543 L3.17,15.08 L3,15.08 C1.34314575,15.08 0,13.7368542 0,12.08 C0,10.4823191 1.24891996,9.17633912 2.82372721,9.08509269 L3,9.08 L3.06661541,9.08027346 C3.33344206,9.07403212 3.56933519,8.90531385 3.68513742,8.59623466 C3.77901441,8.38352558 3.75133449,8.13955973 3.62366677,7.95989202 L3.56289322,7.88710678 L3.36763594,7.68273651 C2.88939884,7.13730717 2.62342669,6.43487543 2.62342669,5.705 C2.62342669,4.90877226 2.93995553,4.14520477 3.5025,3.58328666 C4.06520477,3.01995553 4.82877226,2.70342669 5.625,2.70342669 C6.35487543,2.70342669 7.05730717,2.96939884 7.60243363,3.44733289 L7.74710678,3.58289322 L7.79926496,3.63513742 C7.98921731,3.82094519 8.27313857,3.87242541 8.51623466,3.76513742 L8.5806561,3.73933752 L8.5806561,3.73933752 L8.64655191,3.71811318 L8.706,3.705 L8.76793506,3.66135396 C8.86396119,3.58085655 8.93475069,3.4743372 8.97150196,3.35558331 L8.99254572,3.26443934 L9,3.17 L9,3 C9,1.34314575 10.3431458,0 12,0 Z M12,2 C11.4871642,2 11.0644928,2.38604019 11.0067277,2.88337887 L11,3 L11,3.17398831 C10.9957795,4.2302027 10.3647479,5.18306046 9.39393144,5.59913983 C9.31094462,5.6347069 9.22371791,5.65878907 9.13465976,5.67089194 L9,5.68 L8.967942,5.72251349 C8.18583979,5.94150549 7.34367459,5.78830241 6.68368577,5.30399436 L6.53472482,5.18637207 L6.39289322,5.05710678 L6.3325,4.99671334 C6.14493174,4.8089363 5.89040925,4.70342669 5.625,4.70342669 C5.35959075,4.70342669 5.10506826,4.8089363 4.91671334,4.9975 C4.7289363,5.18506826 4.62342669,5.43959075 4.62342669,5.705 C4.62342669,5.92617437 4.69669725,6.1397885 4.83001573,6.31362348 L4.91710678,6.41289322 L4.98486258,6.48073504 C5.69504132,7.20675484 5.92389315,8.26948715 5.60882133,9.16784883 L5.46625808,9.52187365 C5.07533536,10.387363 4.24808932,10.978232 3.28445624,11.0686549 L3.09,11.08 L3,11.08 C2.44771525,11.08 2,11.5277153 2,12.08 C2,12.5928358 2.38604019,13.0155072 2.88337887,13.0732723 L3,13.08 L3.17398831,13.080008 C4.2302027,13.0842205 5.18306046,13.7152521 5.59486258,14.6762347 C6.0065378,15.6090196 5.8448387,16.6892403 5.18637207,17.4652752 L5.05710678,17.6071068 L4.99671334,17.6675 C4.8089363,17.8550683 4.70342669,18.1095908 4.70342669,18.375 C4.70342669,18.6404092 4.8089363,18.8949317 4.9975,19.0832867 C5.18506826,19.2710637 5.43959075,19.3765733 5.705,19.3765733 C5.92617437,19.3765733 6.1397885,19.3033027 6.31362348,19.1699843 L6.41289322,19.0828932 L6.48073504,19.0151374 C7.20675484,18.3049587 8.26948715,18.0761068 9.16784883,18.3911787 L9.52187365,18.5337419 C10.387363,18.9246646 10.978232,19.7519107 11.0686549,20.7155438 L11.08,20.91 L11.08,21 C11.08,21.5522847 11.5277153,22 12.08,22 C12.5928358,22 13.0155072,21.6139598 13.0732723,21.1166211 L13.08,21 L13.080008,20.8260117 C13.0842205,19.7697973 13.7152521,18.8169395 14.6762347,18.4051374 C15.6090196,17.9934622 16.6892403,18.1551613 17.4652752,18.8136279 L17.6071068,18.9428932 L17.6675,19.0032867 C17.8550683,19.1910637 18.1095908,19.2965733 18.375,19.2965733 C18.6404092,19.2965733 18.8949317,19.1910637 19.0832867,19.0025 C19.2710637,18.8149317 19.3765733,18.5604092 19.3765733,18.295 C19.3765733,18.0738256 19.3033027,17.8602115 19.1699843,17.6863765 L19.0828932,17.5871068 L19.0151374,17.519265 C18.2576134,16.7448438 18.0477325,15.5873187 18.4808602,14.6060686 C18.8724643,13.692359 19.7395538,13.0796352 20.7241071,13.0071931 L20.91,13 L21,13 C21.5522847,13 22,12.5522847 22,12 C22,11.4871642 21.6139598,11.0644928 21.1166211,11.0067277 L21,11 L20.8260117,11 C19.7697973,10.9957795 18.8169395,10.3647479 18.4008602,9.39393144 C18.3652931,9.31094462 18.3412109,9.22371791 18.3291081,9.13465976 L18.32,9 L18.2774865,8.967942 C18.0584945,8.18583979 18.2116976,7.34367459 18.6960056,6.68368577 L18.8136279,6.53472482 L18.9428932,6.39289322 L19.0032867,6.3325 C19.1910637,6.14493174 19.2965733,5.89040925 19.2965733,5.625 C19.2965733,5.35959075 19.1910637,5.10506826 19.0025,4.91671334 C18.8149317,4.7289363 18.5604092,4.62342669 18.295,4.62342669 C18.0738256,4.62342669 17.8602115,4.69669725 17.6863765,4.83001573 L17.5871068,4.91710678 L17.519265,4.98486258 C16.7448438,5.74238657 15.5873187,5.9522675 14.6060686,5.51913983 C13.692359,5.12753572 13.0796352,4.26044625 13.0071931,3.27589288 L13,3.09 L13,3 C13,2.44771525 12.5522847,2 12,2 Z M12,8 C14.209139,8 16,9.790861 16,12 C16,14.209139 14.209139,16 12,16 C9.790861,16 8,14.209139 8,12 C8,9.790861 9.790861,8 12,8 Z M12,10 C10.8954305,10 10,10.8954305 10,12 C10,13.1045695 10.8954305,14 12,14 C13.1045695,14 14,13.1045695 14,12 C14,10.8954305 13.1045695,10 12,10 Z" id="Shape"></path>
            </g>
        </g>
    </g>
</svg>