<?xml version="1.0" encoding="utf-8"?>
<!-- Generator: Adobe Illustrator 23.1.0, SVG Export Plug-In . SVG Version: 6.00 Build 0)  -->
<svg version="1.1" id="Layer_1" xmlns="http://www.w3.org/2000/svg" xmlns:xlink="http://www.w3.org/1999/xlink" x="0px" y="0px"
	 viewBox="0 0 1180.6 214.5" style="enable-background:new 0 0 1180.6 214.5;" xml:space="preserve">
<style type="text/css">
	.st0{display:none;}
	.st1{display:inline;}
	.st2{fill-rule:evenodd;clip-rule:evenodd;fill:#ED1D24;}
	.st3{fill:#ED1D24;}
</style>
<g id="Layer_6" class="st0">
	<rect x="-38.5" y="194.7" class="st1" width="345" height="90.6"/>
</g>
<g id="Layer_5">
	<g>
		<path class="st2" d="M266.1,150.6c-1.5,1.3-2.5,1.9-3.2,2.7c-7.5,8.2-15.1,16.3-22.3,24.7c-2.7,3.2-4.3,2.9-6.9,0.1
			c-2.8-3.1-6.1-5.8-9.5-9c5.5-6.3,10.4-11.8,15.2-17.3c4.8-5.4,9.7-10.8,15.3-17.1c-18.6,0-120.8,0.4-147.3,0.5
			c2.9,2.2,5.8,4.4,8.7,6.6c11.9,9.1,23.5,18.5,35.9,27.3c18.4,13,40.1,23.1,65.3,30c13.2,3.6,27.1,5.5,41.4,6.1
			c2.4,0.1,4.9,0.2,7.3,0.3C266.1,185.9,266.1,171.6,266.1,150.6z"/>
		<path class="st2" d="M241.4,81.9c-3.9,0.2-7.6,1.1-8.9,5.3c-1.2,4,1.4,6.8,4.2,9.1c5.6,4.7,16,8.9,26.4,10.5
			C263.7,88.6,253.1,81.3,241.4,81.9z"/>
		<path class="st2" d="M226.7,113.7c-2.2-1.8-3.3-2.7-4.4-3.6c-8.8-7.4-12.8-18.8-9.7-28c3.6-10.8,12.7-17.3,24.9-18.1
			c10.3-0.7,19.4,2.4,28.1,9.1c0-14.9,0-24,0-38.1c-13.8-1.1-27.5-3.8-41.1-8.2c-8-2.6-16.2-4.9-24.4-7.3c-2.1-0.6-4.5-0.9-6.7-1.3
			c-2.4,0-4.7,0-7.1,0c-16.8,2.1-29.9,8.4-42.5,15.3c-27.3,14.9-55.3,29.2-85.6,41.5c-13.3,5.4-27.1,10.4-40.6,15.6c0,1,0,2.1,0,3.2
			c4.6,1.3,9.4,2.4,13.9,3.9c14.2,4.8,28,10,40.8,16.1C93.3,113.7,216.8,113.7,226.7,113.7z"/>
		<path class="st2" d="M298.1,134.4c10.6,11.9,20.4,23,31,35c-4.1,3.7-7.8,7.3-11.9,10.4c-0.7,0.5-3.4-0.4-4.3-1.5
			c-7.7-8.2-15.2-16.6-22.7-25c-0.7-0.8-1.4-1.6-2.9-3.2c0,21,0,35.4,0,55.4c6.3-0.1,12.7-0.4,19-0.9c19.1-1.4,36.7-5.7,53.3-11.9
			c22.7-8.5,41.8-19.8,58.4-32.8c9.4-7.4,18.9-14.7,28.3-22.1c1.4-1.1,2.8-2.2,4.3-3.3C411.5,134.6,334.7,134.4,298.1,134.4z"/>
		<path class="st2" d="M539.9,92.6c-0.2-0.9,0.3-1.8-1.6-2.5c-9.7-3.6-19.4-7.1-28.8-10.9c-31.7-12.8-61.7-27-90.1-42.7
			c-8.9-4.9-18.8-9.2-28.5-13.5c-5.9-2.6-12.7-3.9-19.7-4.8c-2.3,0-4.7,0-7.1,0c-13.8,2.1-25.5,7.4-38.4,10.9
			c-13,3.6-26,5.6-38.9,6.2c0,13.8,0,22.7,0,36.9c5.9-2.6,11.2-5.4,16.8-7.1c7.5-2.3,15.2-1.8,22.5,1.4c17.2,7.5,20.4,28.3,6.5,41.8
			c-1.7,1.6-3.5,3-5.9,5c1.8,0.2,3,0.4,4.1,0.4c20.6,0,128-0.4,155.3-0.3c7.4-3.5,15.1-6.7,23.3-9.6c9.3-3.3,19-6.4,28.5-9.5
			C539,93.8,540.1,93.7,539.9,92.6z"/>
		<path class="st2" d="M323.1,87.3c-1.3-4.2-5-5.1-8.9-5.3c-11.7-0.6-22.3,6.7-21.6,25c10.3-1.7,20.8-5.8,26.4-10.5
			C321.7,94,324.4,91.3,323.1,87.3z"/>
	</g>
</g>
<g>
	<g>
		<path class="st3" d="M1125.3,64.5h-6.9v-2.3h16.6v2.3h-6.9V83h-2.8L1125.3,64.5L1125.3,64.5z"/>
		<path class="st3" d="M1137.3,62.2h3.8l6.6,17.4l6.6-17.4h3.8V83h-2.6V65.7h-0.1l-6.5,17.3h-2.4l-6.5-17.3h-0.1V83h-2.6V62.2z"/>
	</g>
	<g>
		<path class="st3" d="M604.3,114.4c0,21.8,16.7,38.5,38.3,38.5c10.3,0,18.6-3.5,25-8.7V120h-28.9v-19.2h50.5v49.9
			c-9.9,12.7-26.6,21.5-47.1,21.5c-35,0-59.5-25.5-59.5-57.7c0-32.2,24.2-57.7,59.2-57.7c16.7,0,30.9,6.3,41,16l-14,14.8
			c-6.7-6.7-16.2-11.5-27.3-11.5C620.3,75.9,604.3,93.1,604.3,114.4z"/>
		<path class="st3" d="M713.3,51.9c7.5,0,13.6,5.8,13.6,13.3c0,7.5-6.1,13.3-13.6,13.3c-7.5,0-13.6-5.8-13.6-13.3
			S705.8,51.9,713.3,51.9z M723.7,170.5h-20.8V92.8h20.8V170.5z"/>
		<path class="st3" d="M792.7,74.3c-1.8-0.5-4.3-0.8-6.3-0.8c-5.1,0-9.1,1.4-11.7,4.5c-1.8,2.3-2.9,5.1-2.9,12.4v2.4h24.1v17.6
			h-24.1v60.1H751v-60.1h-20V92.8h20v-3.2c0-12.5,2.9-20,8.3-25.3s13.6-9.1,24.2-9.1c4.2,0,8,0.3,12.3,1.4L792.7,74.3z"/>
		<path class="st3" d="M854.9,170.5c-2.7,1-9,1.6-13,1.6c-12.5,0-21.7-4.2-26.9-11.2c-4-5.3-5.8-12.2-5.8-23.3v-27.3h-26.8V92.8
			h26.8V71.1h20.8v21.6h25.7v17.6h-25.7v29.7c0,4.8,0.8,7.7,2.6,9.8c2.1,2.4,5.4,3.9,10.6,3.9c3,0,7.1-0.5,8.5-0.8L854.9,170.5z"/>
	</g>
	<g>
		<path class="st3" d="M866.6,45.5h25.1v105.2h47.6v18.1h-72.7V45.5z"/>
		<path class="st3" d="M984.7,98h18.5v9h0.3c4.7-7.5,12.3-11,21.1-11c22.2,0,32.2,17.9,32.2,38.1c0,18.9-10.4,36.5-31.1,36.5
			c-8.5,0-16.6-3.7-21.2-10.7h-0.3v33.7h-19.4L984.7,98L984.7,98z M1037.2,133.6c0-11.2-4.5-22.9-17-22.9
			c-12.7,0-16.8,11.4-16.8,22.9s4.4,22.5,17,22.5C1033.1,156,1037.2,145.1,1037.2,133.6z"/>
		<path class="st3" d="M1081.4,145.8c0.1,8.5,7.3,11.9,14.9,11.9c5.6,0,12.7-2.2,12.7-9c0-5.9-8.1-7.9-22-11
			c-11.2-2.5-22.4-6.4-22.4-18.9c0-18.1,15.6-22.7,30.8-22.7c15.5,0,29.7,5.2,31.2,22.6h-18.5c-0.6-7.5-6.3-9.6-13.3-9.6
			c-4.4,0-10.8,0.8-10.8,6.6c0,7,10.9,7.9,22,10.5c11.4,2.6,22.4,6.7,22.4,19.9c0,18.6-16.2,24.6-32.3,24.6
			c-16.4,0-32.4-6.2-33.3-24.9L1081.4,145.8L1081.4,145.8z"/>
	</g>
	<path class="st3" d="M961.2,51.9c7.5,0,13.6,5.8,13.6,13.3c0,7.5-6.1,13.3-13.6,13.3c-7.5,0-13.6-5.8-13.6-13.3
		S953.6,51.9,961.2,51.9z M971.6,170.5h-20.8V92.8h20.8V170.5z"/>
</g>
</svg>
