<?xml version="1.0" encoding="UTF-8"?>
<svg width="16px" height="16px" viewBox="0 0 16 16" version="1.1" xmlns="http://www.w3.org/2000/svg" xmlns:xlink="http://www.w3.org/1999/xlink">    <title>Calendar</title>
    <defs>
        <path d="M469,555 L485,555 L485,545.4 L469,545.4 L469,555 Z M480.195733,547 L481.795733,547 L481.795733,548.6 L480.195733,548.6 L480.195733,547 Z M480.195733,551.8 L478.595733,551.8 L478.595733,550.2 L480.195733,550.2 L480.195733,551.8 Z M476.995733,547 L478.595733,547 L478.595733,548.6 L476.995733,548.6 L476.995733,547 Z M476.995733,551.8 L475.395733,551.8 L475.395733,550.2 L476.995733,550.2 L476.995733,551.8 Z M473.795733,547 L475.395733,547 L475.395733,548.6 L473.795733,548.6 L473.795733,547 Z M472.195733,550.2 L473.795733,550.2 L473.795733,551.8 L472.195733,551.8 L472.195733,550.2 Z M481.795733,540.595733 L485,540.595733 L485,543.8 L469,543.8 L469,540.595733 L472.195733,540.595733 L472.195733,539 L473.795733,539 L473.795733,540.595733 L480.195733,540.595733 L480.195733,539 L481.795733,539 L481.795733,540.595733 Z" id="path-1"></path>
    </defs>
    <g id="Page-1" stroke="none" stroke-width="1" fill="none" fill-rule="evenodd">
        <g id="Desktop-HD" transform="translate(-469.000000, -539.000000)">
            <mask id="mask-2" fill="white">
                <use xlink:href="#path-1"></use>
            </mask>
            <use id="Calendar" fill="#A9B0BB" fill-rule="nonzero" xlink:href="#path-1"></use>
        </g>
    </g>
</svg>