<?xml version="1.0" encoding="UTF-8"?>
<svg width="14px" height="16px" viewBox="0 0 16 16" version="1.1" xmlns="http://www.w3.org/2000/svg" xmlns:xlink="http://www.w3.org/1999/xlink">    <title>down</title>
    <defs>
        <path d="M477.033473,710 C476.67643,710 476.230126,709.840994 475.962343,709.602484 L469.803347,704.11677 C469.267782,703.639752 469,703.08323 469,702.526708 C469,701.970186 469.267782,701.413665 469.714086,701.016149 C470.606695,700.221118 472.213389,700.221118 473.105997,701.016149 L474.355649,702.049689 L474.355649,696.385093 C474.355649,695.03354 475.516039,694 477.033473,694 C478.550907,694 479.711297,695.03354 479.711297,696.385093 L479.711297,702.049689 L480.871688,701.016149 C481.764296,700.221118 483.37099,700.221118 484.263598,701.016149 C485.245467,701.890683 485.245467,703.242236 484.263598,704.037267 L478.104603,709.522981 C477.83682,709.840994 477.390516,710 477.033473,710 Z" id="path-1"></path>
    </defs>
    <g id="Page-1" stroke="none" stroke-width="1" fill="none" fill-rule="evenodd">
        <g id="Desktop-HD" transform="translate(-469.000000, -694.000000)">
            <mask id="mask-2" fill="white">
                <use xlink:href="#path-1"></use>
            </mask>
            <use id="down" fill="#A9B0BB" fill-rule="nonzero" xlink:href="#path-1"></use>
        </g>
    </g>
</svg>
