<?xml version="1.0" encoding="UTF-8"?>
<svg width="16px" height="16px" viewBox="0 0 16 16" version="1.1" xmlns="http://www.w3.org/2000/svg" xmlns:xlink="http://www.w3.org/1999/xlink">    <title>user settings</title>
    <defs>
        <path d="M485,920.032296 L484.118222,920.419141 C484.089778,920.496889 484.057541,920.572741 484.023407,920.646696 L484.378015,921.539852 L483.543644,922.374222 L482.646696,922.023407 C482.568948,922.059437 482.493096,922.089778 482.417244,922.118222 L482.032296,923 L480.856593,923 L480.471644,922.116326 C480.397689,922.089778 480.323733,922.057541 480.245985,922.021511 L479.349037,922.372326 L478.514667,921.537956 L478.869274,920.6448 C478.833244,920.570844 478.802904,920.494993 478.774459,920.417244 L477.888889,920.032296 L477.888889,918.856593 L478.776356,918.471644 C478.8048,918.392 478.835141,918.316148 478.869274,918.244089 L478.514667,917.345244 L479.350933,916.514667 L480.244089,916.865481 C480.319941,916.829452 480.393896,916.799111 480.471644,916.770667 L480.856593,915.888889 L482.032296,915.888889 L482.417244,916.770667 C482.496889,916.799111 482.572741,916.831348 482.648593,916.865481 L483.543644,916.514667 L484.379911,917.345244 L484.025304,918.244089 C484.057541,918.316148 484.089778,918.392 484.118222,918.471644 L485,918.856593 L485,920.032296 Z M481.444444,920.866667 C482.229511,920.866667 482.866667,920.229511 482.866667,919.444444 C482.866667,918.659378 482.229511,918.022222 481.444444,918.022222 C480.659378,918.022222 480.022222,918.659378 480.022222,919.444444 C480.022222,920.229511 480.659378,920.866667 481.444444,920.866667 Z M479.481778,914.973926 C477.760889,915.727704 476.556741,917.448593 476.552,919.449185 C476.552,920.435259 476.845926,921.350222 477.348444,922.118222 L469,922.118222 L469,921.226963 C469,917.30637 472.190519,914.115852 476.111111,914.115852 C477.291556,914.115852 478.453037,914.419259 479.481778,914.973926 Z M476.111111,914.111111 C474.148444,914.111111 472.555556,912.518222 472.555556,910.555556 C472.555556,908.592889 474.148444,907 476.111111,907 C478.073778,907 479.666667,908.592889 479.666667,910.555556 C479.666667,912.518222 478.073778,914.111111 476.111111,914.111111 Z" id="path-1"></path>
    </defs>
    <g id="Page-1" stroke="none" stroke-width="1" fill="none" fill-rule="evenodd">
        <g id="Desktop-HD" transform="translate(-469.000000, -907.000000)">
            <mask id="mask-2" fill="white">
                <use xlink:href="#path-1"></use>
            </mask>
            <use id="user-settings" fill="#A9B0BB" xlink:href="#path-1"></use>
        </g>
    </g>
</svg>