<?xml version="1.0" encoding="utf-8"?>
<!-- Generator: Adobe Illustrator 23.1.0, SVG Export Plug-In . SVG Version: 6.00 Build 0)  -->
<svg version="1.1" id="Layer_1" xmlns="http://www.w3.org/2000/svg" xmlns:xlink="http://www.w3.org/1999/xlink" x="0px" y="0px"
	 viewBox="0 0 444.26 660.26" style="enable-background:new 0 0 444.26 660.26;" xml:space="preserve" fill="#6d6d6d">
<g>
	<path d="M226.91,22.26c5.63,0.74,11.34,1.08,16.88,2.27c26.99,5.81,48.32,20.67,65.72,41.68c11.87,14.33,19.73,30.67,23.21,48.87
		c1.39,7.28,1.35,14.91,1.35,22.38c0,68.03-0.13,136.06-0.23,204.09c-0.04,23.8-9.65,44.01-24.02,62.18
		c-16.46,20.81-37.54,34.87-63.38,41.5c-11.17,2.86-22.58,2.57-33.96,2.44c-30.42-0.36-55.23-13.38-76.41-34.28
		c-13.69-13.51-23.45-29.63-28.98-47.95c-2.37-7.85-3.26-16.37-3.43-24.61c-0.59-28.47-0.74-56.95-0.74-85.43
		c0-40.92,0.52-81.85,0.37-122.77c-0.09-25.02,8.82-46.57,24.02-65.74c18.65-23.52,42.61-38.6,72.49-43.64
		c2.27-0.38,4.57-0.66,6.85-0.98C213.41,22.26,220.16,22.26,226.91,22.26z M296.81,235.23c-0.35,0-0.69,0-1.04,0
		c0-28.79,0.12-57.57-0.07-86.36c-0.06-9.26,0.27-18.77-1.63-27.72c-8.69-40.85-49.29-67.5-90.26-58.75
		c-31.97,6.83-52.85,26.58-60.52,58.73c-1.95,8.17-1.59,16.98-1.61,25.5c-0.12,58.94-0.13,117.88,0,176.83
		c0.02,8.62-0.16,17.47,1.61,25.83c8.53,40.27,48.9,66.59,89.52,58.93c35.55-6.71,63.12-38.26,62.7-73.66
		C295.12,301.45,296.31,268.34,296.81,235.23z"/>
	<path d="M121.85,642.51c0-12.75,0-25.5,0-38.7c25.74,0,51.39,0,77.39,0c0-1.48,0-2.5,0-3.53c0-24.37-0.04-48.73,0.06-73.1
		c0.01-2.64-0.64-3.47-3.39-3.84c-34.78-4.66-66.99-16.44-95.07-37.58c-35.71-26.89-60.47-61.6-71.07-105.64
		c-3.2-13.28-4.46-26.8-5.34-40.37c-0.03-0.4,0.07-0.81,0.13-1.4c12.78,0,25.5,0,38.45,0c0.59,5.91,1.06,11.78,1.79,17.61
		c4.48,36.08,20.88,65.91,47.61,90.24c23.11,21.03,50.21,34.31,81.09,38.26c55.75,7.14,104.59-7.47,143.23-49.78
		c21.65-23.71,33.37-52.11,36.44-84.07c0.39-4.07,0.76-8.15,1.14-12.27c12.99,0,25.71,0,39.18,0c-1.35,11.01-2.18,21.83-4.07,32.47
		c-11.95,67.33-63.36,122.54-129.18,143.78c-12.97,4.18-26.17,7.28-39.71,8.88c-1.64,0.19-2.42,0.61-2.42,2.44
		c0.05,25.42,0.04,50.84,0.05,76.26c0,0.4,0.16,0.8,0.31,1.52c25.6,0,51.18,0,77.05,0c0,13.16,0,25.99,0,38.81
		C250.96,642.51,186.4,642.51,121.85,642.51z"/>
</g>
</svg>
