<?xml version="1.0" encoding="utf-8"?>
<!-- Generator: Adobe Illustrator 23.1.0, SVG Export Plug-In . SVG Version: 6.00 Build 0)  -->
<svg version="1.1" id="Layer_1" xmlns="http://www.w3.org/2000/svg"
	xmlns:xlink="http://www.w3.org/1999/xlink" x="0px" y="0px"
	viewBox="0 0 612 277.28" xml:space="preserve">
<g>
	<path fill="#fff" d="M160.57,153.09c0-4.36,0-8.29,0-12.56c-1.08,0-2.06,0-3.03,0c-19.84,0-39.69,0-59.53-0.01c-1.34,0-2.7-0.02-4.02-0.23
		c-5.19-0.84-7.77-4.44-7.57-10.41c0.15-4.45,3.5-7.88,8.21-8.34c1.08-0.11,2.18-0.09,3.28-0.09c19.84,0,39.69,0,59.53,0
		c0.99,0,1.98,0,3.1,0c0-4.77,0-9.26,0-14.09c-1.04,0-2.02,0-2.99,0c-29.43,0-58.86,0-88.29-0.01c-1.42,0-2.87-0.04-4.26-0.33
		c-5.18-1.06-7.59-4.66-7.26-10.66c0.23-4.22,3.67-7.58,8.29-8.04c1.17-0.12,2.35-0.08,3.53-0.08c29.26,0,58.53,0,87.79,0
		c1,0,1.99,0,3.33,0c0-1.09,0-1.98,0-2.86c0-9.59-0.02-19.17,0.01-28.76c0.06-19,14.39-33.39,33.37-33.39
		c100.74-0.02,201.48-0.02,302.21,0c18.82,0,33.24,14.45,33.25,33.26c0.03,51.04,0.02,102.08,0,153.12
		c-0.01,18.65-14.04,32.92-32.68,33.34c-0.59,0.01-1.18,0.01-1.77,0.01c-99.98,0-199.96-0.01-299.94,0.03
		c-7.18,0-13.88-1.45-19.82-5.56c-9.42-6.52-14.45-15.55-14.61-27.05c-0.16-11.69-0.04-23.38-0.04-35.06c0-0.91,0-1.83,0-3.09
		c-1.24,0-2.3,0-3.37,0c-33.38,0-66.77,0-100.15,0c-1.18,0-2.36,0.02-3.53-0.08c-4.96-0.42-8.4-3.93-8.49-8.62
		c-0.12-5.97,2.68-9.53,8.09-10.23c1.24-0.16,2.52-0.16,3.77-0.16c33.38-0.01,66.77-0.01,100.15-0.01
		C158.23,153.09,159.31,153.09,160.57,153.09z M345.92,151.66c46.67-37.17,93.17-74.21,140.17-111.64c-92.79,0-184.85,0-277.55,0
		C254.55,77.4,300.11,114.43,345.92,151.66z M486.09,226.06c-34.83-27.74-69.08-55.02-103.41-82.36
		c-12.35,9.83-24.57,19.56-36.87,29.35c-12.17-9.89-24.21-19.67-36.27-29.46c-33.84,27.5-67.45,54.81-101.48,82.47
		C300.97,226.06,393.17,226.06,486.09,226.06z M398.19,131.34c37.28,29.69,74.28,59.16,111.35,88.68c2.64-3.36,3.38-7.03,3.38-11.01
		c-0.03-50.61-0.02-101.22-0.02-151.82c0-0.92,0.04-1.86-0.07-2.77c-0.46-4.02-1.93-7.53-5.14-10.29
		C471.15,73.23,434.8,102.19,398.19,131.34z M177.46,88.21c3.55,0,6.97,0,10.4,0c8.91,0.01,17.83-0.07,26.74,0.06
		c5.16,0.08,8.86,3.63,9.09,8.31c0.31,6.02-2.46,9.71-8.02,10.58c-1.07,0.17-2.18,0.17-3.27,0.17c-10.76,0.01-21.53,0.01-32.29,0.01
		c-0.88,0-1.77,0-2.63,0c0,4.88,0,9.37,0,14.09c1.16,0,2.15,0,3.14,0c20.1,0,40.19,0,60.29,0c1.09,0,2.19-0.02,3.28,0.1
		c4.87,0.52,8.09,4.05,8.19,8.93c0.11,5.45-2.68,9.05-7.72,9.83c-1.32,0.2-2.68,0.22-4.02,0.22c-20.01,0.01-40.02,0.01-60.04,0.01
		c-1.05,0-2.09,0-3.09,0c0,4.43,0,8.41,0,12.56c1.11,0,2.03,0,2.95,0c6.73,0,13.45-0.04,20.18,0.01c6.77,0.05,10.48,3.45,10.48,9.52
		c0,6.13-3.65,9.52-10.4,9.57c-6.64,0.04-13.29,0.01-19.93,0.01c-1.07,0-2.14,0-3.16,0c-0.15,0.51-0.28,0.75-0.28,0.98
		c0,12.78-0.09,25.56,0.07,38.34c0.05,4.07,1.88,7.57,5.05,10.46c37.26-30.28,74.42-60.48,111.77-90.84
		c-36.64-29.77-73.01-59.33-109.33-88.84c-5.05,3.32-7.56,7.84-7.58,13.69C177.28,65.99,177.31,76,177.32,86
		C177.32,86.65,177.4,87.3,177.46,88.21z"/>
</g>
</svg>