<?xml version="1.0" encoding="utf-8"?>
<!-- Generator: Adobe Illustrator 25.3.1, SVG Export Plug-In . SVG Version: 6.00 Build 0)  -->
<svg version="1.1" id="Layer_1" xmlns="http://www.w3.org/2000/svg" xmlns:xlink="http://www.w3.org/1999/xlink" x="0px" y="0px"
	 viewBox="0 0 116.4 127.7" style="enable-background:new 0 0 116.4 127.7;" xml:space="preserve" fill="#6d6d6d">
<path d="M100,80.3c3.3,0,6.1,0,9.1,0c0,7.2,0.8,14.4-0.2,21.3c-1.2,8.9-9,14.9-18.6,14.9c-21.2,0.2-42.4,0.2-63.5,0
	c-11.6-0.1-19.1-8.3-19.2-19.9c0-5.3,0-10.7,0-16.3c3,0,5.7,0,9.4,0c0,4.8,0,9.7,0,14.7c0,9,3.3,12.3,12.4,12.3c19.5,0,39,0,58.5,0
	c9.2,0,12.2-3.1,12.2-12.4C100,90.2,100,85.4,100,80.3z"/>
<path d="M88.1,66.2c-2.5-2.5-6.6-2.5-9.1,0L64.6,80.6V25.5c0-3.5-2.9-6.4-6.4-6.4s-6.4,2.9-6.4,6.4v55.1L37.4,66.2
	c-2.5-2.5-6.6-2.5-9.1,0h0c-2.5,2.5-2.5,6.6,0,9.1l25.3,25.3c2.5,2.5,6.6,2.5,9.1,0l25.3-25.3C90.6,72.7,90.6,68.7,88.1,66.2z"/>
</svg>
