<?xml version="1.0" encoding="utf-8"?>
<!-- Generator: Adobe Illustrator 23.1.0, SVG Export Plug-In . SVG Version: 6.00 Build 0)  -->
<svg version="1.1" id="Layer_1" xmlns="http://www.w3.org/2000/svg" xmlns:xlink="http://www.w3.org/1999/xlink" x="0px" y="0px"
	 viewBox="0 0 340.8 327.6" style="enable-background:new 0 0 340.8 327.6;" xml:space="preserve" fill="#6d6d6d">
<style type="text/css">
	.st0{fill:#FFFFFF;}
</style>
<g>
	<path d="M125.41,206.63c-12.7,0-24.57,0.01-36.44,0c-15.19-0.02-24.41-9.26-24.42-24.46c-0.01-19.16-0.01-38.33,0.01-57.49
		c0.01-13.84,9.34-23.31,23.21-23.56c2.86-0.05,5.73-0.01,9.39-0.01c-9.33-9.84-12.48-20.7-8.11-33.07
		c2.75-7.79,8.11-13.5,15.63-16.91c9.12-4.13,18.27-3.83,27.08,0.94c8.71,4.71,13.55,12.36,15.66,22.52
		c3.46-14.65,11.7-23.85,26.18-25.87c12.61-1.76,22.71,3.21,29.61,13.98c7.42,11.58,5.99,22.09-5.13,38.46
		c3.77,0,7.2-0.1,10.62,0.02c9.99,0.33,18.66,7.33,20.99,17.05c0.6,2.49,0.69,5.1,1.07,8.01c1.01-0.46,1.89-0.83,2.75-1.26
		c7.68-3.83,15.37-7.64,23.02-11.52c16.74-8.5,34.07,2.04,34.11,20.8c0.02,13.17,0.03,26.35,0,39.52
		c-0.04,18.24-17.06,28.79-33.51,20.75c-7.8-3.81-15.53-7.76-23.3-11.63c-0.96-0.48-1.95-0.88-3.17-1.43
		c-0.19,2.02-0.28,3.7-0.51,5.35c-1.62,11.65-10.79,19.73-22.6,19.8c-11.28,0.07-22.56,0.01-33.84,0.01c-1.17,0-2.33,0-4.23,0
		c2.2,2.85,3.97,5.19,5.8,7.49c12.5,15.68,25.03,31.35,37.5,47.06c0.97,1.22,1.85,2.67,2.23,4.15c0.86,3.37-0.88,6.85-3.82,8.33
		c-3.25,1.63-6.94,0.9-9.41-2.16c-9.57-11.89-19.08-23.84-28.59-35.78c-6.53-8.19-13.04-16.4-19.57-24.6
		c-0.5-0.62-1.01-1.24-1.54-1.83c-3.07-3.44-6.39-3.5-9.35,0.11c-6.06,7.42-11.99,14.94-17.97,22.43
		c-10.27,12.87-20.53,25.75-30.8,38.61c-3.51,4.4-8,5.28-11.61,2.3c-3.53-2.91-3.59-7.42-0.2-11.67
		c13.62-17.09,27.24-34.18,40.85-51.28C123.66,208.95,124.29,208.1,125.41,206.63z M147.03,191.55
		C147.03,191.55,147.03,191.56,147.03,191.55c19.76,0.01,39.52,0.01,59.28,0.01c6.17,0,8.92-2.75,8.92-8.99
		c0-19.06-0.01-38.12-0.04-57.18c-0.01-6.69-2.54-9.2-9.25-9.2c-39.02-0.01-78.04-0.01-117.06,0c-6.59,0-9.25,2.66-9.26,9.26
		c-0.02,18.96-0.02,37.92-0.01,56.88c0,6.53,2.73,9.21,9.33,9.22C108.31,191.56,127.67,191.55,147.03,191.55z M275.56,153.93
		c0-6.78,0.07-13.55-0.02-20.33c-0.08-6.48-5.57-9.87-11.4-7c-10.55,5.19-21.02,10.55-31.57,15.73c-1.71,0.84-2.23,1.9-2.19,3.72
		c0.11,5.08,0.15,10.17-0.02,15.25c-0.07,2.21,0.66,3.39,2.65,4.36c10.21,4.98,20.35,10.09,30.5,15.18
		c6.69,3.35,12.02,0.09,12.06-7.46C275.59,166.88,275.57,160.41,275.56,153.93z M132.32,78.82c0.15-8.35-6.44-15.23-14.7-15.35
		c-8.39-0.12-15.22,6.41-15.38,14.69c-0.16,8.33,6.46,15.24,14.72,15.34C125.36,93.62,132.17,87.11,132.32,78.82z M192.56,78.74
		c0.14-8.36-6.38-15.14-14.72-15.29c-8.17-0.15-15.06,6.42-15.21,14.5c-0.16,8.55,6.16,15.35,14.42,15.54
		C185.64,93.7,192.41,87.26,192.56,78.74z M147.48,82.96c-1.55,6.83-4.64,12.71-10.15,17.95c6.99,0,13.16,0,20.14,0
		C152.1,95.61,148.82,89.85,147.48,82.96z"/>
	<path class="st0" d="M147.48,82.96c1.34,6.88,4.62,12.65,10,17.95c-6.99,0-13.15,0-20.14,0C142.84,95.67,145.93,89.79,147.48,82.96
		z"/>
</g>
</svg>
