<?xml version="1.0" encoding="UTF-8"?>
<svg width="24px" height="24px" viewBox="0 0 24 24" version="1.1" xmlns="http://www.w3.org/2000/svg" xmlns:xlink="http://www.w3.org/1999/xlink">
    <title>4A2A8B9C-3D66-4072-B96C-D561E2D5C1CD</title>
    <g id="Styleguide" stroke="none" stroke-width="1" fill="none" fill-rule="evenodd">
        <g id="10.03-Icone" transform="translate(-463.000000, -256.000000)" fill="#1D4ED8" fill-rule="nonzero">
            <g id="icon/menu/anagraphic" transform="translate(463.000000, 256.000000)">
                <path d="M19,1 C20.6568542,1 22,2.34314575 22,4 L22,20 C22,21.6568542 20.6568542,23 19,23 L7,23 C5.34314575,23 4,21.6568542 4,20 L4,19 L3,19 C2.44771525,19 2,18.5522847 2,18 C2,17.4477153 2.44771525,17 3,17 L4,17 L4,15 L3,15 C2.44771525,15 2,14.5522847 2,14 C2,13.4477153 2.44771525,13 3,13 L4,13 L4,11 L3,11 C2.44771525,11 2,10.5522847 2,10 C2,9.44771525 2.44771525,9 3,9 L4,9 L4,7 L3,7 C2.44771525,7 2,6.55228475 2,6 C2,5.44771525 2.44771525,5 3,5 L4,5 L4,4 C4,2.34314575 5.34314575,1 7,1 L19,1 Z M19,21 C19.5128358,21 19.9355072,20.6139598 19.9932723,20.1166211 L20,20 L20,4 C20,3.48716416 19.6139598,3.06449284 19.1166211,3.00672773 L19,3 L7,3 C6.48716416,3 6.06449284,3.38604019 6.00672773,3.88337887 L6,4 L6,5 C6.55228475,5 7,5.44771525 7,6 C7,6.55228475 6.55228475,7 6,7 L6,9 C6.55228475,9 7,9.44771525 7,10 C7,10.5522847 6.55228475,11 6,11 L6,13 C6.55228475,13 7,13.4477153 7,14 C7,14.5522847 6.55228475,15 6,15 L6,17 C6.55228475,17 7,17.4477153 7,18 C7,18.5522847 6.55228475,19 6,19 L6,20 C6,20.5128358 6.38604019,20.9355072 6.88337887,20.9932723 L7,21 L19,21 Z M11,6 L11,18 C11,18.5522847 10.5522847,19 10,19 C9.44771525,19 9,18.5522847 9,18 L9,6 C9,5.44771525 9.44771525,5 10,5 C10.5522847,5 11,5.44771525 11,6 Z" id="Shape"></path>
            </g>
        </g>
    </g>
</svg> 