<svg width="40" height="40" viewBox="0 0 40 40" fill="none" xmlns="http://www.w3.org/2000/svg">
    <circle cx="20" cy="20" r="19" fill="white" stroke="url(#paint0_linear_201_1073)" stroke-width="2"/>
    <path d="M26.6666 27.5V25.8333C26.6666 24.9493 26.3155 24.1014 25.6903 23.4763C25.0652 22.8512 24.2174 22.5 23.3333 22.5H16.6666C15.7826 22.5 14.9347 22.8512 14.3096 23.4763C13.6845 24.1014 13.3333 24.9493 13.3333 25.8333V27.5"
          stroke="#FF003F" stroke-width="2" stroke-linecap="round" stroke-linejoin="round"/>
    <path d="M20 19.1667C21.841 19.1667 23.3334 17.6743 23.3334 15.8333C23.3334 13.9924 21.841 12.5 20 12.5C18.1591 12.5 16.6667 13.9924 16.6667 15.8333C16.6667 17.6743 18.1591 19.1667 20 19.1667Z"
          stroke="#FF003F" stroke-width="2" stroke-linecap="round" stroke-linejoin="round"/>
    <defs>
        <linearGradient id="paint0_linear_201_1073" x1="20" y1="0" x2="20" y2="40" gradientUnits="userSpaceOnUse">
            <stop stop-color="#EC007F"/>
            <stop offset="1" stop-color="#FF003F"/>
        </linearGradient>
    </defs>
</svg>
