<?xml version="1.0" encoding="UTF-8"?>
<svg width="24px" height="24px" viewBox="0 0 24 24" version="1.1" xmlns="http://www.w3.org/2000/svg" xmlns:xlink="http://www.w3.org/1999/xlink">
    <!-- Generator: Sketch 50.2 (55047) - http://www.bohemiancoding.com/sketch -->
    <title>4</title>
    <desc>Created with Sketch.</desc>
    <defs></defs>
    <g id="Page-1" stroke="none" stroke-width="1" fill="none" fill-rule="evenodd">
        <g id="4" fill="#000000" fill-rule="nonzero">
            <path d="M7.2,16.8 L16.8,16.8 L16.8,7.2 L7.2,7.2 L7.2,16.8 Z M9.6,9.6 L14.4,9.6 L14.4,14.4 L9.6,14.4 L9.6,9.6 Z M21.6,19.904 L21.6,18.0032 L24,18.0032 L24,24 L18.0032,24 L18.0032,21.6 L19.904,21.6 L17.152,18.848 L18.848,17.152 L21.6,19.904 Z M5.152,17.152 L6.848,18.848 L4.096,21.6 L6.0032,21.6 L6.0032,24 L0,24 L0,18.0032 L2.4,18.0032 L2.4,19.904 L5.152,17.152 Z M18.0032,0 L24,0 L24,6.0032 L21.6,6.0032 L21.6,4.096 L18.848,6.848 L17.152,5.152 L19.904,2.4 L18.0032,2.4 L18.0032,0 Z M6.0032,2.4 L4.096,2.4 L6.848,5.152 L5.152,6.848 L2.4,4.096 L2.4,6.0032 L0,6.0032 L0,0 L6.0032,0 L6.0032,2.4 Z" id="Shape"></path>
        </g>
    </g>
</svg>