<?xml version="1.0" standalone="no"?>
<!DOCTYPE svg PUBLIC "-//W3C//DTD SVG 20010904//EN"
 "http://www.w3.org/TR/2001/REC-SVG-20010904/DTD/svg10.dtd">
<svg version="1.0" xmlns="http://www.w3.org/2000/svg"
 width="114.000000pt" height="114.000000pt" viewBox="0 0 114.000000 114.000000"
 preserveAspectRatio="xMidYMid meet">
<metadata>
Created by potrace 1.14, written by Peter Selinger 2001-2017
</metadata>
<g transform="translate(0.000000,114.000000) scale(0.100000,-0.100000)"
fill="#000000" stroke="none">
<path d="M122 994 c-20 -14 -22 -23 -22 -124 0 -99 2 -111 23 -135 22 -26 40
-33 666 -251 182 -64 195 -67 220 -53 25 14 26 18 29 115 2 91 0 103 -20 135
-13 18 -39 42 -58 52 -47 23 -778 277 -799 277 -9 0 -27 -7 -39 -16z"/>
<path d="M281 439 c-88 -29 -133 -50 -153 -69 -27 -28 -28 -31 -28 -139 0
-108 1 -111 26 -128 31 -20 29 -21 274 67 96 34 227 80 289 101 121 41 142 52
125 69 -11 11 -334 125 -379 134 -21 4 -69 -7 -154 -35z"/>
</g>
</svg>
