<svg xmlns="http://www.w3.org/2000/svg" viewBox="0 0 60 60" preserveAspectRatio="xMidYMid meet" focusable="false"
     class="style-scope gl-icon" style="pointer-events: none; display: block; width: 100%; height: 100%;">
    <g class="style-scope gl-icon">
        <g fill="none" fill-rule="evenodd" class="style-scope gl-icon">
            <path d="M28.4863253 59.9692983c-6.6364044-.569063-11.5630204-2.3269561-16.3219736-5.8239327C4.44376366 48.4721168 3e-7 39.6467924 3e-7 29.9869344c0-14.8753747 10.506778-27.18854591 25.2744118-29.61975392 6.0281072-.9924119 12.7038532.04926445 18.2879399 2.85362966C57.1386273 10.0389054 63.3436516 25.7618627 58.2050229 40.3239688 54.677067 50.3216743 45.4153135 57.9417536 34.81395 59.5689067c-2.0856252.3201125-5.0651487.5086456-6.3276247.4003916z"
                  fill="#0077B5" fill-rule="nonzero" class="style-scope gl-icon"></path>
            <g fill="#FFF" class="style-scope gl-icon">
                <path d="M17.88024691 22.0816337c2.14182716 0 3.87817284-1.58346229 3.87817284-3.53891365C21.75841975 16.58553851 20.02207407 15 17.88024691 15 15.73634568 15 14 16.58553851 14 18.54272005c0 1.95545136 1.73634568 3.53891365 3.88024691 3.53891365M14.88888889 44.8468474h6.95851852V24.77777778h-6.95851852zM31.6137778 33.6848316c0-2.3014877 1.0888889-4.552108 3.6925432-4.552108 2.6036543 0 3.2438518 2.2506203 3.2438518 4.4970883v10.960701h6.9274074V33.1816948c0-7.9263084-4.6853333-9.29280591-7.5676049-9.29280591-2.8798518 0-4.4682469.9740923-6.2961975 3.33440621v-2.70185178h-6.9471111V44.5905129h6.9471111V33.6848316z"
                      class="style-scope gl-icon"></path>
            </g>
        </g>
    </g>
</svg>
