<svg xmlns="http://www.w3.org/2000/svg" viewBox="0 0 60 60" preserveAspectRatio="xMidYMid meet" focusable="false"
     class="style-scope gl-icon"
     style="pointer-events: none; display: block; width: 100%; height: 100%;">
    <g class="style-scope gl-icon">
        <path d="M28.4863253 59.9692983c-6.6364044-.569063-11.5630204-2.3269561-16.3219736-5.8239327C4.44376366 48.4721168 3e-7 39.6467924 3e-7 29.9869344c0-14.8753747 10.506778-27.18854591 25.2744118-29.61975392 6.0281072-.9924119 12.7038532.04926445 18.2879399 2.85362966C57.1386273 10.0389054 63.3436516 25.7618627 58.2050229 40.3239688 54.677067 50.3216743 45.4153135 57.9417536 34.81395 59.5689067c-2.0856252.3201125-5.0651487.5086456-6.3276247.4003916z"
              fill="#03A9F4" fill-rule="nonzero" class="style-scope gl-icon"></path>
        <path d="M23.95 34.128L23.401 41.803C23.6948 41.8057 23.9853 41.7405 24.2498 41.6125C24.5143 41.4845 24.7457 41.2971 24.926 41.065L28.588 37.565L36.175 43.122C37.567 43.898 38.547 43.489 38.922 41.842L43.901 18.503C44.342 16.446 43.157 15.642 41.801 16.146L12.533 27.357C10.533 28.133 10.565 29.246 12.193 29.751L19.677 32.079L37.062 21.203C37.88 20.661 38.624 20.961 38.012 21.503L23.95 34.128Z"
              fill="#F4F4F4"/>
    </g>
</svg>
