<svg width="34" height="24" viewBox="0 0 34 24" fill="none" xmlns="http://www.w3.org/2000/svg">
<rect x="33.25" y="1.4165" width="21.1667" height="32.5" rx="1.25" transform="rotate(90 33.25 1.4165)" stroke="white" stroke-width="1.5"/>
<line x1="20.1787" y1="8.01147" x2="28.393" y2="8.01147" stroke="white" stroke-width="1.5" stroke-linecap="round"/>
<line x1="20.1787" y1="12.8687" x2="28.393" y2="12.8687" stroke="white" stroke-width="1.5" stroke-linecap="round"/>
<circle cx="10.5242" cy="7.9524" r="3.29762" stroke="white" stroke-width="1.5"/>
<path d="M12.6211 15.1627C12.8254 14.9591 13.0116 14.757 13.1641 14.5846C14.7209 15.544 16.6422 17.1555 17.9866 19.1256C18.0106 19.1608 18.0132 19.1834 18.0135 19.1948C18.0138 19.2092 18.0101 19.2289 17.9968 19.2518C17.9704 19.2971 17.9112 19.3451 17.8118 19.3451H17.8006H17.7893H17.778H17.7667H17.7554H17.744H17.7326H17.7212H17.7097H17.6982H17.6867H17.6751H17.6636H17.6519H17.6403H17.6287H17.617H17.6052H17.5935H17.5817H17.5699H17.5581H17.5463H17.5344H17.5225H17.5105H17.4986H17.4866H17.4746H17.4625H17.4505H17.4384H17.4262H17.4141H17.4019H17.3897H17.3775H17.3653H17.353H17.3407H17.3284H17.316H17.3036H17.2912H17.2788H17.2664H17.2539H17.2414H17.2289H17.2163H17.2037H17.1911H17.1785H17.1659H17.1532H17.1405H17.1278H17.1151H17.1023H17.0895H17.0767H17.0639H17.051H17.0381H17.0252H17.0123H16.9994H16.9864H16.9734H16.9604H16.9473H16.9343H16.9212H16.9081H16.895H16.8818H16.8687H16.8555H16.8423H16.829H16.8158H16.8025H16.7892H16.7759H16.7626H16.7492H16.7358H16.7224H16.709H16.6956H16.6821H16.6686H16.6551H16.6416H16.6281H16.6145H16.6009H16.5873H16.5737H16.5601H16.5464H16.5327H16.5191H16.5053H16.4916H16.4779H16.4641H16.4503H16.4365H16.4227H16.4088H16.395H16.3811H16.3672H16.3533H16.3394H16.3254H16.3115H16.2975H16.2835H16.2695H16.2554H16.2414H16.2273H16.2132H16.1991H16.185H16.1709H16.1567H16.1426H16.1284H16.1142H16.1H16.0858H16.0715H16.0573H16.043H16.0287H16.0144H16.0001H15.9857H15.9714H15.957H15.9426H15.9283H15.9138H15.8994H15.885H15.8705H15.8561H15.8416H15.8271H15.8126H15.7981H15.7835H15.769H15.7544H15.7399H15.7253H15.7107H15.6961H15.6814H15.6668H15.6522H15.6375H15.6228H15.6081H15.5934H15.5787H15.564H15.5493H15.5345H15.5198H15.505H15.4902H15.4754H15.4606H15.4458H15.431H15.4161H15.4013H15.3864H15.3716H15.3567H15.3418H15.3269H15.312H15.297H15.2821H15.2672H15.2522H15.2373H15.2223H15.2073H15.1923H15.1773H15.1623H15.1473H15.1323H15.1172H15.1022H15.0872H15.0721H15.057H15.0419H15.0269H15.0118H14.9967H14.9816H14.9664H14.9513H14.9362H14.921H14.9059H14.8907H14.8756H14.8604H14.8452H14.8301H14.8149H14.7997H14.7845H14.7693H14.754H14.7388H14.7236H14.7084H14.6931H14.6779H14.6626H14.6474H14.6321H14.6168H14.6016H14.5863H14.571H14.5557H14.5404H14.5251H14.5098H14.4945H14.4792H14.4639H14.4486H14.4332H14.4179H14.4026H14.3872H14.3719H14.3566H14.3412H14.3259H14.3105H14.2951H14.2798H14.2644H14.249H14.2337H14.2183H14.2029H14.1876H14.1722H14.1568H14.1414H14.126H14.1106H14.0952H14.0798H14.0644H14.0491H14.0337H14.0183H14.0029H13.9875H13.9721H13.9566H13.9412H13.9258H13.9104H13.895H13.8796H13.8642H13.8488H13.8334H13.818H13.8026H13.7872H13.7718H13.7564H13.741H13.7255H13.7101H13.6947H13.6793H13.6639H13.6485H13.6331H13.6177H13.6023H13.5869H13.5715H13.5562H13.5408H13.5254H13.51H13.4946H13.4792H13.4638H13.4485H13.4331H13.4177H13.4023H13.387H13.3716H13.3562H13.3409H13.3255H13.3102H13.2948H13.2795H13.2642H13.2488H13.2335H13.2182H13.2028H13.1875H13.1722H13.1569H13.1416H13.1263H13.111H13.0957H13.0804H13.0651H13.0498H13.0346H13.0193H13.004H12.9888H12.9735H12.9583H12.943H12.9278H12.9126H12.8974H12.8821H12.8669H12.8517H12.8365H12.8214H12.8062H12.791H12.7758H12.7607H12.7455H12.7304H12.7152H12.7001H12.685H12.6699H12.6547H12.6396H12.6246H12.6095H12.5944H12.5793H12.5643H12.5492H12.5342H12.5191H12.5041H12.4891H12.4741H12.4591H12.4441H12.4291H12.4142H12.3992H12.3843H12.3693H12.3544H12.3395H12.3246H12.3097H12.2948H12.2799H12.265H12.2502H12.2353H12.2205H12.2057H12.1908H12.176H12.1613H12.1465H12.1317H12.1169H12.1022H12.0875H12.0727H12.058H12.0433H12.0287H12.014H11.9993H11.9847H11.97H11.9554H11.9408H11.9262H11.9116H11.897H11.8825H11.8679H11.8534H11.8389H11.8244H11.8099H11.7954H11.781H11.7665H11.7521H11.7377H11.7232H11.7089H11.6945H11.6801H11.6658H11.6514H11.6371H11.6228H11.6085H11.5943H11.58H11.5658H11.5515H11.5373H11.5231H11.509H11.4948H11.4806H11.4665H11.4524H11.4383H11.4242H11.4102H11.3961H11.3821H11.3681H11.3541H11.3401H11.3261H11.3122H11.2983H11.2843H11.2705H11.2566H11.2427H11.2289H11.2151H11.2013H11.1875H11.1737H11.16H11.1462H11.1325H11.1188H11.1052H11.0915H11.0779H11.0643H11.0507H11.0371H11.0235H11.01H10.9965H10.983H10.9695H10.9561H10.9426H10.9292H10.9158H10.9024H10.8891H10.8757H10.8624H10.8491H10.8359H10.8226H10.8094H10.7962H10.783H10.7698H10.7567H10.7436H10.7305H10.7174H10.7043H10.6913H10.6783H10.6653H10.6523H10.6394H10.6265H10.6136H10.6007H10.5878H10.575H10.5622H10.5494H10.5366H10.5239H10.5112H10.4984H10.4856H10.4728H10.46H10.4471H10.4343H10.4214H10.4084H10.3955H10.3825H10.3695H10.3565H10.3435H10.3304H10.3174H10.3043H10.2911H10.278H10.2648H10.2516H10.2384H10.2252H10.2119H10.1987H10.1854H10.1721H10.1587H10.1454H10.132H10.1186H10.1052H10.0918H10.0783H10.0648H10.0513H10.0378H10.0243H10.0107H9.99714H9.98354H9.96992H9.95629H9.94264H9.92897H9.91528H9.90157H9.88784H9.87409H9.86033H9.84654H9.83274H9.81892H9.80508H9.79123H9.77735H9.76346H9.74955H9.73562H9.72168H9.70772H9.69374H9.67974H9.66573H9.6517H9.63765H9.62358H9.6095H9.59541H9.58129H9.56716H9.55302H9.53885H9.52468H9.51048H9.49627H9.48205H9.46781H9.45355H9.43928H9.42499H9.41069H9.39637H9.38204H9.36769H9.35333H9.33895H9.32456H9.31015H9.29573H9.2813H9.26685H9.25238H9.23791H9.22342H9.20891H9.1944H9.17986H9.16532H9.15076H9.13619H9.1216H9.10701H9.0924H9.07777H9.06314H9.04849H9.03383H9.01915H9.00447H8.98977H8.97506H8.96034H8.9456H8.93086H8.9161H8.90133H8.88655H8.87176H8.85696H8.84214H8.82732H8.81248H8.79764H8.78278H8.76791H8.75303H8.73814H8.72324H8.70833H8.69341H8.67848H8.66355H8.6486H8.63364H8.61867H8.60369H8.5887H8.57371H8.5587H8.54368H8.52866H8.51363H8.49859H8.48353H8.46848H8.45341H8.43833H8.42325H8.40816H8.39306H8.37795H8.36283H8.34771H8.33258H8.31744H8.30229H8.28714H8.27198H8.25681H8.24164H8.22645H8.21127H8.19607H8.18087H8.16566H8.15045H8.13523H8.12H8.10477H8.08953H8.07428H8.05903H8.04377H8.02851H8.01325H7.99797H7.9827H7.96741H7.95212H7.93683H7.92153H7.90623H7.89092H7.87561H7.8603H7.84497H7.82965H7.81432H7.79899H7.78365H7.76831H7.75297H7.73762H7.72227H7.70691H7.69156H7.6762H7.66083H7.64547H7.6301H7.61472H7.59935H7.58397H7.56859H7.55321H7.53782H7.52244H7.50705H7.49166H7.47626H7.46087H7.44547H7.43008H7.41468H7.39928H7.38388H7.36847H7.35307H7.33767H7.32226H7.30685H7.29145H7.27604H7.26063H7.24523H7.22982H7.21441H7.199H7.1836H7.16819H7.15278H7.13737H7.12197H7.10656H7.09116H7.07576H7.06035H7.04495H7.02955H7.01415H6.99875H6.98336H6.96796H6.95257H6.93718H6.92179H6.9064H6.89102H6.87564H6.86026H6.84488H6.8295H6.81413H6.79876H6.78339H6.76803H6.75267H6.73731H6.72195H6.7066H6.69125H6.67591H6.66057H6.64523H6.6299H6.61457H6.59924H6.58392H6.56861H6.55329H6.53799H6.52268H6.50739H6.49209H6.4768H6.46152H6.44624H6.43097H6.4157H6.40044H6.38518H6.36993H6.35468H6.33944H6.32421H6.30898H6.29376H6.27854H6.26334H6.24813H6.23294H6.21775H6.20257H6.18739H6.17222H6.15706H6.14191H6.12676H6.11162H6.09649H6.08136H6.06625H6.05114H6.03604H6.02094H6.00586H5.99078H5.97571H5.96065H5.9456H5.93056H5.91552H5.9005H5.88548H5.87048H5.85548H5.84049H5.82551H5.81054H5.79558H5.78063H5.76569H5.75076H5.73584H5.72093H5.70603H5.69114H5.67626H5.66139H5.64653H5.63168H5.61684H5.60202H5.5872H5.5724H5.5576H5.54282H5.52805H5.51329H5.49855H5.48381H5.46909H5.45438H5.43968H5.42499H5.41031H5.39565H5.381H5.36636H5.35174H5.33713H5.32253H5.30794H5.29337H5.27881H5.26426H5.24973H5.23521H5.2207H5.20621H5.19173H5.17727H5.16282H5.14838H5.13396H5.11955H5.10516H5.09078H5.07642H5.06207H5.04773H5.03341H5.01911H5.00482H4.99055H4.97629H4.96204H4.94782H4.93361H4.91941H4.90523H4.89106H4.87692H4.86278H4.84867H4.83457H4.82049H4.80642H4.79237H4.77834H4.76432H4.75033H4.73634H4.72238H4.70843H4.6945H4.68059H4.6667H4.65282H4.63896H4.62512H4.6113H4.5975H4.58371H4.56994H4.55619H4.54246H4.52875H4.51506H4.50139H4.48773H4.47409H4.46048H4.44688H4.4333H4.41974H4.4062H4.39269H4.37919H4.36571H4.35225H4.33881H4.32539H4.31199H4.29861H4.28526H4.27192H4.2586H4.24531H4.23203H4.21878H4.20555H4.19234H4.17915H4.16598H4.15283H4.13971H4.12661H4.11352H4.10047H4.08743H4.07441H4.06142H4.04845H4.03551H4.02258H4.00968H3.9968H3.98394H3.97111H3.9583H3.94551H3.93275H3.92001H3.90729H3.8946H3.88193H3.86929H3.85667H3.84407H3.8315H3.81895H3.80643H3.79393H3.78145H3.769H3.75657H3.74417H3.7318H3.71945H3.70712H3.69482H3.68255H3.6703H3.65808H3.64588H3.63371H3.62156H3.60944H3.59735H3.58528H3.57324H3.56123H3.54924H3.53728H3.52534H3.51343H3.50155H3.4897H3.47787H3.46608H3.4543H3.44256H3.43084H3.41915H3.40749H3.39586H3.38425H3.37268H3.36113H3.34961H3.33812H3.32665H3.31522H3.30381H3.29244H3.28109H3.26977H3.25848H3.24722H3.23599C3.13661 19.3451 3.07742 19.2971 3.05099 19.2518C3.03769 19.2289 3.03403 19.2092 3.03433 19.1948C3.03456 19.1834 3.03722 19.1608 3.06121 19.1256C4.4056 17.1555 6.32694 15.544 7.88368 14.5846C8.03622 14.757 8.22245 14.9591 8.4267 15.1627C8.69542 15.4304 9.0124 15.7179 9.33709 15.9434C9.63095 16.1476 10.059 16.3939 10.5239 16.3939C10.9888 16.3939 11.4169 16.1476 11.7107 15.9434C12.0354 15.7179 12.3524 15.4304 12.6211 15.1627Z" stroke="white" stroke-width="1.5"/>
</svg>
