<svg width="34" height="27" viewBox="0 0 34 27" fill="none" xmlns="http://www.w3.org/2000/svg">
<path d="M29.0417 26.9168C27.0888 26.9168 25.5 25.328 25.5 23.3752C25.5 21.4223 27.0888 19.8335 29.0417 19.8335C30.9945 19.8335 32.5833 21.4223 32.5833 23.3752C32.5833 25.328 30.9945 26.9168 29.0417 26.9168ZM29.0417 21.2502C27.8701 21.2502 26.9167 22.2036 26.9167 23.3752C26.9167 24.5467 27.8701 25.5002 29.0417 25.5002C30.2133 25.5002 31.1667 24.5467 31.1667 23.3752C31.1667 22.2036 30.2133 21.2502 29.0417 21.2502Z" fill="white"/>
<path d="M9.20866 26.9169H6.37533C5.98362 26.9169 5.66699 26.6003 5.66699 26.2086V2.12524C5.66699 0.953661 6.62041 0.000244141 7.79199 0.000244141C8.96358 0.000244141 9.91699 0.953661 9.91699 2.12524V26.2086C9.91699 26.6003 9.60037 26.9169 9.20866 26.9169ZM7.08366 25.5002H8.50033V2.12524C8.50033 1.73424 8.18299 1.41691 7.79199 1.41691C7.40099 1.41691 7.08366 1.73424 7.08366 2.12524V25.5002Z" fill="white"/>
<path d="M19.1253 26.9168C16.3919 26.9168 14.167 24.6919 14.167 21.9585C14.167 19.225 16.3919 17.0001 19.1253 17.0001C21.8588 17.0001 24.0837 19.225 24.0837 21.9585C24.0837 24.6919 21.8588 26.9168 19.1253 26.9168ZM19.1253 18.4168C17.1725 18.4168 15.5837 20.0056 15.5837 21.9585C15.5837 23.9113 17.1725 25.5001 19.1253 25.5001C21.0782 25.5001 22.667 23.9113 22.667 21.9585C22.667 20.0056 21.0782 18.4168 19.1253 18.4168Z" fill="white"/>
<path d="M25.5011 14.8752C25.4444 14.8752 25.3864 14.8681 25.329 14.8539C24.9493 14.759 24.7184 14.3744 24.8133 13.9954L26.23 8.32874C26.3249 7.94837 26.7088 7.71604 27.0885 7.81308C27.4681 7.90799 27.6991 8.29262 27.6041 8.67158L26.1875 14.3382C26.1067 14.6605 25.8184 14.8752 25.5011 14.8752Z" fill="white"/>
<path d="M19.1252 13.4583C18.9438 13.4583 18.7625 13.3889 18.6244 13.2507L17.2077 11.8341C16.9308 11.5571 16.9308 11.1094 17.2077 10.8325C17.4847 10.5555 17.9323 10.5555 18.2093 10.8325L19.626 12.2491C19.9029 12.5261 19.9029 12.9738 19.626 13.2507C19.4878 13.3889 19.3065 13.4583 19.1252 13.4583Z" fill="white"/>
<path d="M12.0415 19.125C11.8602 19.125 11.6789 19.0556 11.5407 18.9174C11.2638 18.6405 11.2638 18.1928 11.5407 17.9158L17.9157 11.5408C18.1927 11.2639 18.6404 11.2639 18.9173 11.5408C19.1943 11.8178 19.1943 12.2655 18.9173 12.5424L12.5423 18.9174C12.4042 19.0556 12.2229 19.125 12.0415 19.125Z" fill="white"/>
<path d="M19.1245 18.4168C18.9432 18.4168 18.7619 18.3474 18.6237 18.2093C18.3468 17.9323 18.3468 17.4847 18.6237 17.2077L22.1654 13.666C22.2979 13.5329 22.4778 13.4585 22.6662 13.4585H30.4579C30.8496 13.4585 31.1662 13.7751 31.1662 14.1668C31.1662 14.5585 30.8496 14.8752 30.4579 14.8752H22.9594L19.6253 18.2093C19.4872 18.3474 19.3059 18.4168 19.1245 18.4168Z" fill="white"/>
<path d="M9.20833 26.9168H0.708333C0.316625 26.9168 0 26.6002 0 26.2085C0 25.8167 0.316625 25.5001 0.708333 25.5001H9.20833C9.60004 25.5001 9.91667 25.8167 9.91667 26.2085C9.91667 26.6002 9.60004 26.9168 9.20833 26.9168Z" fill="white"/>
<path d="M6.37533 19.8335H2.12533C1.73362 19.8335 1.41699 19.5169 1.41699 19.1252C1.41699 18.7335 1.73362 18.4169 2.12533 18.4169H6.37533C6.76703 18.4169 7.08366 18.7335 7.08366 19.1252C7.08366 19.5169 6.76703 19.8335 6.37533 19.8335Z" fill="white"/>
<path d="M26.2977 23.3751H22.8057V24.7918H26.2977V23.3751Z" fill="white"/>
<path d="M33.2913 24.7918H31.7847V23.3752H32.583V16.646L30.033 14.7335C29.8545 14.5996 29.7497 14.3892 29.7497 14.1668V6.37516C29.7497 5.20358 28.7963 4.25016 27.6247 4.25016H24.7913C18.1514 4.25016 12.7497 9.65191 12.7497 16.2918V23.3752H15.4435V24.7918H12.0413C11.6496 24.7918 11.333 24.4752 11.333 24.0835V16.2918C11.333 8.87062 17.3701 2.8335 24.7913 2.8335H27.6247C29.5775 2.8335 31.1663 4.42229 31.1663 6.37516V13.8127L33.7163 15.7252C33.8948 15.8583 33.9997 16.0687 33.9997 16.2918V24.0835C33.9997 24.4752 33.683 24.7918 33.2913 24.7918Z" fill="white"/>
</svg>
