<svg width="15" height="15" viewBox="0 0 15 15" fill="none" xmlns="http://www.w3.org/2000/svg">
<path d="M6.12586 12.1357C7.45619 12.1357 8.68295 11.7096 9.68667 10.9995L13.4626 14.7396C13.6378 14.9132 13.8688 15 14.1158 15C14.6336 15 15 14.6055 15 14.1005C15 13.8638 14.9203 13.6349 14.7451 13.4692L10.9931 9.74487C11.7817 8.7191 12.2517 7.44871 12.2517 6.06786C12.2517 2.73014 9.49549 0 6.12586 0C2.76421 0 0 2.72225 0 6.06786C0 9.40558 2.75624 12.1357 6.12586 12.1357ZM6.12586 10.8259C3.49708 10.8259 1.32236 8.67175 1.32236 6.06786C1.32236 3.46397 3.49708 1.30984 6.12586 1.30984C8.75465 1.30984 10.9294 3.46397 10.9294 6.06786C10.9294 8.67175 8.75465 10.8259 6.12586 10.8259Z" fill="#F5F5F5"/>
</svg>
