<svg width="24" height="28" viewBox="0 0 24 28" fill="none" xmlns="http://www.w3.org/2000/svg">
<path d="M22.9847 20.3183L22.9845 20.318C22.9244 20.2521 22.8594 20.1825 22.7904 20.1086C22.2907 19.5733 21.5791 18.8111 20.9896 17.5927C20.3171 16.2024 19.8171 14.2605 19.8171 11.375C19.8171 7.48922 17.1555 4.38634 13.5576 3.62337L12.9632 3.49732V2.88969V1.75C12.9632 1.18277 12.5169 0.75 12 0.75C11.4831 0.75 11.0368 1.18277 11.0368 1.75V2.88969V3.49732L10.4424 3.62337C6.84451 4.38634 4.18288 7.48922 4.18288 11.375C4.18288 14.2605 3.68294 16.2024 3.01035 17.5927C2.42093 18.8111 1.70932 19.5733 1.20962 20.1086C1.14063 20.1825 1.07568 20.252 1.01565 20.3179L22.9847 20.3183ZM22.9847 20.3183C23.1734 20.525 23.2515 20.7626 23.25 20.9951L23.25 20.9955M22.9847 20.3183L23.25 20.9955M23.25 20.9955C23.2467 21.5398 22.8348 22 22.2803 22H1.71967C1.16561 22 0.753633 21.5401 0.750021 20.9951L23.25 20.9955ZM14.5765 25.25C14.2573 26.4121 13.2146 27.25 12 27.25C10.7854 27.25 9.74275 26.4121 9.42346 25.25H14.5765ZM0.750021 20.9951C0.748528 20.7629 0.826408 20.5256 1.01554 20.318L0.750021 20.9951Z" stroke="white" stroke-width="1.5"/>
</svg>
