<svg width="41" height="24" viewBox="0 0 41 24" fill="none" xmlns="http://www.w3.org/2000/svg">
<path d="M7.39844 2.00704C7.39844 1.80535 7.46215 1.65013 7.53074 1.56096C7.56411 1.51758 7.59333 1.49626 7.61001 1.48709C7.62419 1.4793 7.63009 1.47946 7.63107 1.47949C7.63111 1.47949 7.63114 1.47949 7.63117 1.47949H16.7468L16.7469 1.47949C16.7479 1.47946 16.7538 1.4793 16.7679 1.48709C16.7846 1.49626 16.8138 1.51758 16.8472 1.56096C16.9158 1.65013 16.9795 1.80535 16.9795 2.00704V10.533C16.9795 10.7347 16.9158 10.8899 16.8472 10.9791C16.8138 11.0225 16.7846 11.0438 16.7679 11.053C16.7531 11.0611 16.7474 11.0606 16.7468 11.0606H7.63117L7.63107 11.0606C7.63009 11.0606 7.62419 11.0608 7.61001 11.053C7.59333 11.0438 7.56411 11.0225 7.53074 10.9791C7.46215 10.8899 7.39844 10.7347 7.39844 10.533V2.00704Z" stroke="white" stroke-width="1.5"/>
<mask id="path-2-inside-1_213_974" fill="white">
<rect x="22.4668" y="0.729736" width="11.0811" height="11.0811" rx="1"/>
</mask>
<rect x="22.4668" y="0.729736" width="11.0811" height="11.0811" rx="1" stroke="white" stroke-width="3" mask="url(#path-2-inside-1_213_974)"/>
<rect x="0.75" y="14.7769" width="39.5" height="8.47297" rx="4.23649" stroke="white" stroke-width="1.5"/>
<circle cx="7.75723" cy="19.0136" r="2.21622" fill="white"/>
<circle cx="19.9457" cy="19.0136" r="2.21622" fill="white"/>
<circle cx="32.1352" cy="19.0136" r="2.21622" fill="white"/>
</svg>
