<svg width="34" height="34" viewBox="0 0 34 34" fill="none" xmlns="http://www.w3.org/2000/svg">
<path d="M27.4147 6.04541H6.48659C5.93691 6.04541 5.49139 6.49218 5.49139 7.04061C5.49139 7.58904 5.93691 8.03581 6.48659 8.03581H27.4147C28.8102 8.03581 29.9472 9.17157 29.9472 10.5709V23.4307C29.9472 24.8275 28.8102 25.9632 27.4147 25.9632H6.58574C5.1902 25.9632 4.05318 24.8275 4.05318 23.4307V10.4717C4.05318 9.9208 3.60641 9.47528 3.05547 9.47528C2.50704 9.47528 2.06152 9.9208 2.06152 10.4717V23.4307C2.06152 25.9268 4.09083 27.9549 6.58574 27.9549H27.4147C29.9096 27.9549 31.9389 25.9268 31.9389 23.4307V10.5709C31.9389 8.07346 29.9096 6.04541 27.4147 6.04541ZM24.0702 20.184C23.4653 20.184 22.9758 19.6934 22.9758 19.0922C22.9758 18.54 22.529 18.0945 21.9794 18.0945C21.4297 18.0945 20.9842 18.54 20.9842 19.0922C20.9842 20.4413 21.8626 21.5808 23.0737 21.9975V22.561C23.0737 23.1107 23.5205 23.5587 24.0702 23.5587C24.6211 23.5587 25.0654 23.1107 25.0654 22.561V21.9975C26.2777 21.5808 27.1549 20.4413 27.1549 19.0922C27.1549 17.3879 25.7719 16.0037 24.0702 16.0037C23.4653 16.0037 22.9758 15.513 22.9758 14.9106C22.9758 14.307 23.4653 13.8163 24.0702 13.8163C24.6726 13.8163 25.1632 14.307 25.1632 14.9106C25.1632 15.4603 25.6088 15.9071 26.1597 15.9071C26.7094 15.9071 27.1549 15.4603 27.1549 14.9106C27.1549 13.559 26.2777 12.422 25.0654 12.0041V11.4381C25.0654 10.8884 24.6211 10.4416 24.0702 10.4416C23.5205 10.4416 23.0737 10.8884 23.0737 11.4381V12.0041C21.8626 12.422 20.9842 13.559 20.9842 14.9106C20.9842 16.6124 22.3684 17.9954 24.0702 17.9954C24.6726 17.9954 25.1632 18.4861 25.1632 19.0922C25.1632 19.6934 24.6726 20.184 24.0702 20.184ZM7.04004 22.9764H16.9996C17.5493 22.9764 17.9948 22.5284 17.9948 21.9799C17.9948 21.4315 17.5493 20.9847 16.9996 20.9847H7.04004C6.49036 20.9847 6.04484 21.4315 6.04484 21.9799C6.04484 22.5284 6.49036 22.9764 7.04004 22.9764ZM7.04004 13.0168H16.9996C17.5493 13.0168 17.9948 12.5701 17.9948 12.0216C17.9948 11.4707 17.5493 11.0252 16.9996 11.0252H7.04004C6.49036 11.0252 6.04484 11.4707 6.04484 12.0216C6.04484 12.5701 6.49036 13.0168 7.04004 13.0168ZM7.04004 17.9954H16.9996C17.5493 17.9954 17.9948 17.5498 17.9948 16.9989C17.9948 16.4492 17.5493 16.0037 16.9996 16.0037H7.04004C6.49036 16.0037 6.04484 16.4492 6.04484 16.9989C6.04484 17.5498 6.49036 17.9954 7.04004 17.9954Z" fill="white"/>
</svg>
