<svg width="25" height="26" viewBox="0 0 25 26" fill="none" xmlns="http://www.w3.org/2000/svg">
<path d="M21.298 14.1755L21.2464 14.5933L21.5761 14.855L24.2157 16.9499L21.735 21.2987L18.6388 20.0342L18.2348 19.8692L17.8917 20.1388C17.2825 20.6177 16.6142 21.0127 15.8918 21.3183L15.5001 21.4839L15.4412 21.9051L14.9734 25.25H10.0201L9.55237 21.9051L9.49346 21.4839L9.10178 21.3183C8.38226 21.0139 7.71226 20.6126 7.09823 20.136L6.75594 19.8704L6.35482 20.0342L3.25858 21.2987L0.777919 16.9499L3.41745 14.855L3.74714 14.5933L3.69554 14.1755C3.64594 13.774 3.61127 13.3855 3.61127 13C3.61127 12.6145 3.64594 12.226 3.69554 11.8244L3.74714 11.4067L3.41745 11.145L0.777919 9.0501L3.25858 4.70129L6.35482 5.96583L6.75877 6.1308L7.10183 5.86118C7.71109 5.38235 8.37937 4.98733 9.10178 4.68175L9.49346 4.51606L9.55237 4.09488L10.0201 0.75H14.9799L15.4476 4.09488L15.5065 4.51606L15.8982 4.68175C16.6177 4.9861 17.2877 5.38744 17.9018 5.86399L18.2441 6.12965L18.6452 5.96583L21.7414 4.70129L24.222 9.05001L21.5768 11.1445L21.2464 11.4061L21.298 11.8244C21.3476 12.226 21.3823 12.6145 21.3823 13C21.3823 13.3855 21.3476 13.774 21.298 14.1755ZM7.25021 13C7.25021 15.9213 9.58828 18.3 12.4968 18.3C15.4053 18.3 17.7434 15.9213 17.7434 13C17.7434 10.0787 15.4053 7.7 12.4968 7.7C9.58828 7.7 7.25021 10.0787 7.25021 13Z" stroke="white" stroke-width="1.5"/>
</svg>
