<svg width="33" height="31" viewBox="0 0 33 31" fill="none" xmlns="http://www.w3.org/2000/svg">
<path d="M27.7841 29.9998C19.8995 29.8298 2.65197 28.9798 2.15918 23.8799C2.15918 19.8 8.39682 19.29 11.5221 19.29C14.9716 19.29 15.9572 14.7002 11.5221 14.1902C9.05819 13.6802 5.1159 13.6802 4.13033 13.6802" stroke="#FEFEFE" stroke-width="1.5" stroke-linecap="round"/>
<path d="M29.2589 21.5231L26.4623 26.7603L23.6656 21.5231C22.5379 19.4113 24.0682 16.8594 26.4623 16.8594C28.8563 16.8594 30.3866 19.4113 29.2589 21.5231Z" stroke="#FEFEFE" stroke-width="1.5"/>
<path d="M9.33407 5.41374L6.53745 10.6509L3.74083 5.41375C2.61312 3.30189 4.14336 0.750007 6.53745 0.750006C8.93154 0.750006 10.4618 3.30189 9.33407 5.41374Z" stroke="#FEFEFE" stroke-width="1.5"/>
<ellipse cx="26.4621" cy="19.9753" rx="1.24528" ry="1.28875" fill="#FEFEFE"/>
<ellipse cx="6.53728" cy="3.8659" rx="1.24528" ry="1.28875" fill="#FEFEFE"/>
</svg>
