<svg width="36" height="33" viewBox="0 0 36 33" fill="none" xmlns="http://www.w3.org/2000/svg">
<path d="M30.8389 22.7738L27.723 28.3132L24.607 22.7738C23.2665 20.3906 24.9886 17.446 27.723 17.446C30.4573 17.446 32.1794 20.3906 30.8389 22.7738Z" stroke="white" stroke-width="1.5"/>
<circle cx="27.7235" cy="20.8038" r="1.64338" fill="white"/>
<path d="M11.2315 6.07796L8.11553 11.6174L4.99959 6.07796C3.65906 3.69481 5.38122 0.75017 8.11553 0.750169C10.8498 0.750169 12.572 3.6948 11.2315 6.07796Z" stroke="white" stroke-width="1.5"/>
<circle cx="8.11701" cy="4.10798" r="1.64338" fill="white"/>
<path d="M29.007 32.1542C21.3597 31.973 4.63128 31.0668 4.15332 25.6301C4.15332 21.2807 10.2032 20.737 13.2345 20.737C16.5802 20.737 17.5361 15.8439 13.2345 15.3003C10.8447 14.7566 7.02105 14.7566 6.06514 14.7566" stroke="white" stroke-width="1.5" stroke-linecap="round" stroke-dasharray="4 4"/>
</svg>
