<?xml version="1.0" encoding="UTF-8"?>
<svg width="16px" height="16px" viewBox="0 0 16 16" version="1.1" xmlns="http://www.w3.org/2000/svg" xmlns:xlink="http://www.w3.org/1999/xlink">    <title>contabilita</title>
    <defs>
        <path d="M477,938 C481.411733,938 485,941.588267 485,946 C485,950.411733 481.411733,954 477,954 C472.588267,954 469,950.411733 469,946 C469,941.588267 472.588267,938 477,938 Z M478.130667,941.989333 L479.730667,941.989333 L479.730667,940.389333 L478.130667,940.389333 C475.903467,940.389333 473.9792,941.6992 473.078933,943.589333 L471.730667,943.589333 L471.730667,945.185067 L472.592533,945.185067 C472.554133,945.445333 472.528533,945.714133 472.528533,945.982933 C472.528533,946.256 472.554133,946.520533 472.592533,946.7808 L471.730667,946.7808 L471.730667,948.385067 L473.078933,948.385067 C473.9792,950.270933 475.101333,951.585067 477.3328,951.585067 L479.734933,951.585067 L479.734933,949.985067 L478.130667,949.985067 C476.829333,949.985067 475.6816,949.349333 474.952,948.385067 L478.130667,948.385067 L478.130667,946.785067 L474.2096,946.785067 C474.1584,946.5248 474.128533,946.260267 474.128533,945.9872 C474.128533,945.714133 474.1584,945.445333 474.2096,945.189333 L478.130667,945.189333 L478.130667,943.589333 L474.952,943.589333 C475.6816,942.6208 476.829333,941.989333 478.130667,941.989333 Z" id="path-1"></path>
    </defs>
    <g id="Page-1" stroke="none" stroke-width="1" fill="none" fill-rule="evenodd">
        <g id="Desktop-HD" transform="translate(-469.000000, -938.000000)">
            <mask id="mask-2" fill="white">
                <use xlink:href="#path-1"></use>
            </mask>
            <use id="contabilita" fill="#FFFFFF" xlink:href="#path-1"></use>
        </g>
    </g>
</svg>