<?xml version="1.0" encoding="UTF-8"?>
<svg width="16px" height="16px" viewBox="0 0 16 16" version="1.1" xmlns="http://www.w3.org/2000/svg" xmlns:xlink="http://www.w3.org/1999/xlink">    <title>Alarm</title>
    <defs>
        <path d="M483.351478,671.027134 C483.351478,673.339265 482.154245,675.332482 480.318489,676.448683 L481.755168,677.883799 L480.637751,679 L479.041441,677.405427 L474.891036,677.405427 L473.294726,679 L472.177309,677.883799 L473.613988,676.448683 C471.778232,675.332482 470.580999,673.339265 470.580999,671.027134 C470.580999,667.519073 473.454357,664.648841 476.966239,664.648841 C480.47812,664.648841 483.351478,667.519073 483.351478,671.027134 Z M476.966239,675.810853 C479.60015,675.810853 481.755168,673.65818 481.755168,671.027134 C481.755168,668.396088 479.60015,666.243414 476.966239,666.243414 C474.332327,666.243414 472.177309,668.396088 472.177309,671.027134 C472.177309,673.65818 474.332327,675.810853 476.966239,675.810853 Z M480.657475,664.194092 L481.786226,663.065342 L484.999666,666.278782 L483.870915,667.407532 L480.657475,664.194092 Z M469.000117,666.216605 L472.217057,662.999666 L473.344579,664.127188 L470.12764,667.344128 L469.000117,666.216605 Z M477.764393,667.837987 L477.764393,670.229847 L479.360703,670.229847 L479.360703,671.82442 L476.168084,671.82442 L476.168084,667.837987 L477.764393,667.837987 Z" id="path-1"></path>
    </defs>
    <g id="Page-1" stroke="none" stroke-width="1" fill="none" fill-rule="evenodd">
        <g id="Desktop-HD" transform="translate(-469.000000, -663.000000)">
            <mask id="mask-2" fill="white">
                <use xlink:href="#path-1"></use>
            </mask>
            <use id="Alarm" fill="#FFFFFF" fill-rule="nonzero" xlink:href="#path-1"></use>
        </g>
    </g>
</svg>