<?xml version="1.0" encoding="UTF-8"?>
<svg width="14px" height="16px" viewBox="0 0 16 16" version="1.1" xmlns="http://www.w3.org/2000/svg" xmlns:xlink="http://www.w3.org/1999/xlink">    <title>Contract</title>
    <defs>
        <path d="M484.296,879.899733 C485.234667,880.834133 485.234667,882.357333 484.296,883.296 L479.5984,887.997867 L476.197867,887.997867 L476.197867,884.605867 L480.904,879.899733 C481.8384,878.965333 483.357333,878.965333 484.296,879.899733 Z M472.2,879.2 L478.6,879.2 L478.6,880.8 L472.2,880.8 L472.2,879.2 Z M480.2,889.597867 L480.259733,889.597867 L481.8,888.0576 L481.8,892 L469,892 L469,876 L481.8,876 L481.8,877.6768 C481.215467,877.796267 480.677867,878.052267 480.2,878.414933 L480.2,877.6 L470.6,877.6 L470.6,890.4 L480.2,890.4 L480.2,889.597867 Z M472.2,885.6 L474.597867,885.6 L474.597867,887.2 L472.2,887.2 L472.2,885.6 Z M474.597867,883.940267 L474.597867,884 L472.2,884 L472.2,882.4 L476.138133,882.4 L474.597867,883.940267 Z" id="path-1"></path>
    </defs>
    <g id="Page-1" stroke="none" stroke-width="1" fill="none" fill-rule="evenodd">
        <g id="Desktop-HD" transform="translate(-469.000000, -876.000000)">
            <mask id="mask-2" fill="white">
                <use xlink:href="#path-1"></use>
            </mask>
            <use id="Contract" fill="#FFFFFF" fill-rule="nonzero" xlink:href="#path-1"></use>
        </g>
    </g>
</svg>
