<?xml version="1.0" encoding="UTF-8"?>
<svg width="16px" height="16px" viewBox="0 0 16 16" version="1.1" xmlns="http://www.w3.org/2000/svg" xmlns:xlink="http://www.w3.org/1999/xlink">    <title>Mese solare</title>
    <defs>
        <path d="M477,520.24 C474.68,520.24 472.76,518.32 472.76,516 C472.76,513.68 474.68,511.76 477,511.76 C479.32,511.76 481.24,513.68 481.24,516 C481.24,518.32 479.32,520.24 477,520.24 Z M477,513.36 C478.44,513.36 479.64,514.56 479.64,516 C479.64,517.44 478.44,518.64 477,518.64 C475.56,518.64 474.36,517.44 474.36,516 C474.36,514.56 475.56,513.36 477,513.36 Z M476.2,508 L477.8,508 L477.8,510.4 L476.2,510.4 L476.2,508 Z M476.2,521.6 L477.8,521.6 L477.8,524 L476.2,524 L476.2,521.6 Z M482.07932,509.77732 L483.21068,510.90868 L481.51364,512.60572 L480.38228,511.47436 L482.07932,509.77732 Z M471.897,522.22276 L470.76564,521.0914 L472.46268,519.39436 L473.59404,520.52572 L471.897,522.22276 Z M473.5942,511.4746 L472.46284,512.60596 L470.7658,510.90892 L471.89716,509.77756 L473.5942,511.4746 Z M480.38212,520.52548 L481.51348,519.39412 L483.21052,521.09116 L482.07916,522.22252 L480.38212,520.52548 Z M482.6,515.2 L485,515.2 L485,516.8 L482.6,516.8 L482.6,515.2 Z M469,515.2 L471.4,515.2 L471.4,516.8 L469,516.8 L469,515.2 Z" id="path-1"></path>
    </defs>
    <g id="Page-1" stroke="none" stroke-width="1" fill="none" fill-rule="evenodd">
        <g id="Desktop-HD" transform="translate(-469.000000, -508.000000)">
            <mask id="mask-2" fill="white">
                <use xlink:href="#path-1"></use>
            </mask>
            <use id="Mese-solare" fill="#FFFFFF" fill-rule="nonzero" xlink:href="#path-1"></use>
        </g>
    </g>
</svg>