<?xml version="1.0" encoding="UTF-8"?>
<svg width="16px" height="16px" viewBox="0 0 16 16" version="1.1" xmlns="http://www.w3.org/2000/svg" xmlns:xlink="http://www.w3.org/1999/xlink">    <title>Net</title>
    <defs>
        <path d="M485,800.599147 C485,801.925373 483.930208,803 482.600426,803 C481.283431,803 480.200852,801.929638 480.200852,800.599147 C480.200852,799.558635 480.870005,798.671642 481.799148,798.343284 L481.799148,795 L477.801279,795 L477.801279,798.343284 C478.734683,798.671642 479.399574,799.558635 479.399574,800.599147 C479.399574,801.925373 478.329782,803 477,803 C475.683005,803 474.600426,801.929638 474.600426,800.599147 C474.600426,799.558635 475.269579,798.671642 476.198721,798.343284 L476.198721,795 L472.200852,795 L472.200852,798.343284 C473.134257,798.671642 473.799148,799.558635 473.799148,800.599147 C473.799148,801.925373 472.729355,803 471.399574,803 C470.082579,803 469,801.929638 469,800.599147 C469,799.558635 469.669153,798.671642 470.598295,798.343284 L470.598295,793.400853 L476.194459,793.400853 L476.194459,791.656716 C475.265317,791.336887 474.596164,790.449893 474.596164,789.400853 C474.596164,788.083156 475.674481,787 476.995738,787 C478.321257,787 479.395312,788.078891 479.395312,789.400853 C479.395312,790.449893 478.730421,791.336887 477.797017,791.656716 L477.797017,793.400853 L483.401705,793.400853 L483.401705,798.343284 C484.335109,798.671642 485,799.558635 485,800.599147 Z" id="path-1"></path>
    </defs>
    <g id="Page-1" stroke="none" stroke-width="1" fill="none" fill-rule="evenodd">
        <g id="Desktop-HD" transform="translate(-469.000000, -787.000000)">
            <mask id="mask-2" fill="white">
                <use xlink:href="#path-1"></use>
            </mask>
            <use id="Net" fill="#FFFFFF" fill-rule="nonzero" xlink:href="#path-1"></use>
        </g>
    </g>
</svg>