<?xml version="1.0" encoding="UTF-8"?>
<svg width="16px" height="16px" viewBox="0 0 16 16" version="1.1" xmlns="http://www.w3.org/2000/svg" xmlns:xlink="http://www.w3.org/1999/xlink">    <title>No net 2</title>
    <defs>
        <path d="M477.790664,580.827166 L480.488665,580.827166 L480.488665,578.264375 L481.972393,578.264375 L481.972393,580.873388 L481.972393,582.326832 L477.774122,582.326832 C477.402132,584.414507 475.594196,586 473.422111,586 C470.981106,586 469,583.997614 469,581.530388 C469,580.541113 469.3066,579.623353 469.913903,578.842661 C470.739363,577.710359 472.018827,577.060775 473.422111,577.060775 C474.83129,577.060775 476.11665,577.710359 476.959799,578.860539 C477.397536,579.438419 477.679618,580.108644 477.790664,580.827166 Z M473.422111,584.537239 C475.064241,584.537239 476.396985,583.190179 476.396985,581.530409 C476.396985,580.868906 476.190727,580.247495 475.80201,579.734329 C475.234801,578.960571 474.370104,578.523579 473.422111,578.523579 C472.478084,578.523579 471.617353,578.960571 471.062044,579.722302 C470.653494,580.247495 470.447236,580.864897 470.447236,581.530409 C470.447236,583.190179 471.77998,584.537239 473.422111,584.537239 Z M472.681049,579.278862 L474.184827,579.278862 L474.184827,581.560786 L472.681049,581.560786 L472.681049,579.278862 Z M473.434943,583.838657 C473.018579,583.838657 472.681049,583.497502 472.681049,583.076665 C472.681049,582.655828 473.018579,582.314672 473.434943,582.314672 C473.851307,582.314672 474.188837,582.655828 474.188837,583.076665 C474.188837,583.497502 473.851307,583.838657 473.434943,583.838657 Z M481.242559,573.700527 C479.16935,573.700527 477.481109,575.406904 477.481109,577.502383 L477.481109,578.264375 L485,578.264375 L485,577.502383 C485,575.406904 483.311758,573.700527 481.242559,573.700527 Z M479.113209,576.74039 C479.421985,575.856803 480.260091,575.220459 481.238549,575.220459 C482.217008,575.220459 483.055113,575.856803 483.363889,576.74039 L479.113209,576.74039 Z M478.984887,572.281924 C478.984887,573.538401 479.995426,574.563848 481.242559,574.563848 C482.485683,574.563848 483.500232,573.542454 483.500232,572.281924 C483.500232,571.021394 482.489693,570 481.242559,570 C479.995426,570.004053 478.984887,571.025447 478.984887,572.281924 Z M481.992444,572.281924 C481.992444,572.699399 481.655597,573.043916 481.238549,573.043916 C480.825512,573.043916 480.484655,572.703452 480.484655,572.281924 C480.484655,571.864449 480.821502,571.519932 481.238549,571.519932 C481.655597,571.523985 481.992444,571.864449 481.992444,572.281924 Z" id="path-1"></path>
    </defs>
    <g id="Page-1" stroke="none" stroke-width="1" fill="none" fill-rule="evenodd">
        <g id="Desktop-HD" transform="translate(-469.000000, -570.000000)">
            <mask id="mask-2" fill="white">
                <use xlink:href="#path-1"></use>
            </mask>
            <use id="No-net-2" fill="#FFFFFF" fill-rule="nonzero" xlink:href="#path-1"></use>
        </g>
    </g>
</svg>