<?xml version="1.0" encoding="UTF-8"?>
<svg width="16px" height="16px" viewBox="0 0 16 16" version="1.1" xmlns="http://www.w3.org/2000/svg" xmlns:xlink="http://www.w3.org/1999/xlink">    <title>Numbers</title>
    <defs>
        <path d="M480.952655,613.304318 L483.620223,610.842334 L485,612.335758 L479.935408,617 L474.870815,612.335758 L476.250592,610.842334 L478.91816,613.304318 L478.91816,601 L480.952655,601 L480.952655,613.304318 Z M471.478187,613.297417 C472.035509,612.880773 472.40886,612.572349 472.565776,612.355911 C472.722692,612.139473 472.798444,611.933856 472.798444,611.739062 C472.798444,611.533446 472.722692,611.349473 472.565776,611.203378 C472.40886,611.057282 472.214068,610.981529 471.9814,610.981529 C471.73791,610.981529 471.537707,611.057282 471.380791,611.208789 C471.223876,611.360295 471.121069,611.630843 471.06696,612.020432 L469.151505,611.863514 C469.227257,611.32783 469.36253,610.905775 469.562732,610.602762 C469.762935,610.305159 470.049713,610.072488 470.412242,609.91016 C470.780183,609.747831 471.283395,609.666667 471.927291,609.666667 C472.598241,609.666667 473.123098,609.747831 473.496449,609.899338 C473.8698,610.056255 474.161989,610.288926 474.378424,610.608173 C474.589449,610.922008 474.697667,611.279131 474.697667,611.674131 C474.697667,612.090774 474.573216,612.491185 474.329726,612.875362 C474.080825,613.25954 473.637132,613.681595 472.987825,614.136115 C472.603652,614.401251 472.34393,614.585224 472.214068,614.693443 C472.084207,614.796251 471.927291,614.936936 471.754143,615.110086 L474.740954,615.110086 L474.740954,616.668441 L469,616.668441 C469.064931,616.100291 469.265134,615.564607 469.600609,615.066799 C469.936084,614.56358 470.558336,613.979197 471.478187,613.297417 Z M471.045316,608.474478 L471.045316,603.480168 L470.028069,603.480168 L470.028069,601.45106 L473.0744,601.45106 L473.0744,608.474478 L471.045316,608.474478 Z" id="path-1"></path>
    </defs>
    <g id="Page-1" stroke="none" stroke-width="1" fill="none" fill-rule="evenodd">
        <g id="Desktop-HD" transform="translate(-469.000000, -601.000000)">
            <mask id="mask-2" fill="white">
                <use xlink:href="#path-1"></use>
            </mask>
            <use id="Numbers" fill="#FFFFFF" fill-rule="nonzero" xlink:href="#path-1"></use>
        </g>
    </g>
</svg>