<?xml version="1.0" encoding="UTF-8"?>
<svg width="16px" height="16px" viewBox="0 0 16 16" version="1.1" xmlns="http://www.w3.org/2000/svg" xmlns:xlink="http://www.w3.org/1999/xlink">    <title>lente</title>
    <defs>
        <path d="M479.517095,297.458448 C477.567507,295.508859 474.408036,295.508859 472.458448,297.458448 C470.508859,299.408036 470.508859,302.567507 472.458448,304.517095 C474.408036,306.466683 477.567507,306.466683 479.517095,304.517095 C481.466683,302.567507 481.466683,299.408036 479.517095,297.458448 M484.708011,309.708011 C484.317694,310.09733 483.6858,310.09733 483.295483,309.708011 L480.151984,306.563514 C477.414774,308.609933 473.533566,308.416272 471.046918,305.928625 C468.317694,303.200399 468.317694,298.776142 471.046918,296.046918 C473.775143,293.317694 478.200399,293.317694 480.928625,296.046918 C483.416272,298.533566 483.609933,302.414774 481.563514,305.151984 L484.708011,308.296481 C485.09733,308.6858 485.09733,309.317694 484.708011,309.708011" id="path-1"></path>
    </defs>
    <g id="Page-1" stroke="none" stroke-width="1" fill="none" fill-rule="evenodd">
        <g id="Desktop-HD" transform="translate(-469.000000, -294.000000)">
            <mask id="mask-2" fill="white">
                <use xlink:href="#path-1"></use>
            </mask>
            <use id="lente" fill="#FFFFFF" xlink:href="#path-1"></use>
        </g>
    </g>
</svg>