<?xml version="1.0" encoding="UTF-8"?>
<svg width="16px" height="16px" viewBox="0 0 16 16" version="1.1" xmlns="http://www.w3.org/2000/svg" xmlns:xlink="http://www.w3.org/1999/xlink">    <title>Settings</title>
    <defs>
        <path d="M478.325153,493 L475.679114,493 L474.81275,491.011733 C474.646306,490.952 474.479861,490.879467 474.304881,490.7984 L472.28621,491.587733 L470.408376,489.7104 L471.206455,487.7008 C471.129635,487.5344 471.057082,487.363733 470.993065,487.1888 L469,486.322667 L469,483.677333 L470.993065,482.8112 C471.057082,482.636267 471.125367,482.4656 471.202187,482.2992 L470.404108,480.2768 L472.28621,478.408 L474.296346,479.197333 C474.467058,479.120533 474.63777,479.048 474.808482,478.984 L475.679114,477 L478.325153,477 L479.191518,478.984 C479.370766,479.048 479.541478,479.120533 479.71219,479.197333 L481.722326,478.408 L483.604428,480.2768 L482.806348,482.2992 C482.883169,482.461333 482.951454,482.632 483.015471,482.8112 L485,483.677333 L485,486.322667 L483.019739,487.1888 C482.955722,487.363733 482.887437,487.5344 482.806348,487.7008 L483.604428,489.7104 L481.726594,491.587733 L479.707922,490.802667 C479.532942,490.883733 479.36223,490.956267 479.191518,491.016 L478.325153,493 Z M476.724727,491.4 L477.279541,491.4 L478.017871,489.706133 L478.372099,489.599467 C478.666578,489.509867 478.97386,489.386133 479.306748,489.215467 L479.626834,489.049067 L481.333956,489.718933 L481.726594,489.3264 L481.048013,487.6112 L481.227261,487.282667 C481.380902,487.001067 481.504668,486.706667 481.602827,486.373867 L481.709523,486.019733 L483.403841,485.2816 L483.403841,484.726933 L481.71379,483.9888 L481.607095,483.634667 C481.504668,483.2976 481.376634,482.9904 481.231528,482.7216 L481.052281,482.393067 L481.730862,480.669333 L481.338224,480.281067 L479.622566,480.9552 L479.298213,480.780267 C479.003734,480.6224 478.70072,480.498667 478.376367,480.400533 L478.022139,480.293867 L477.279541,478.6 L476.724727,478.6 L475.986396,480.293867 L475.632169,480.400533 C475.312083,480.4944 475.021872,480.613867 474.718858,480.780267 L474.394505,480.9552 L472.678848,480.281067 L472.28621,480.669333 L472.964791,482.393067 L472.785543,482.7216 C472.640437,482.9904 472.512403,483.2976 472.409976,483.634667 L472.303281,483.9888 L470.600427,484.722667 L470.600427,485.273067 L472.303281,486.0112 L472.409976,486.3696 C472.508136,486.698133 472.631902,486.9968 472.785543,487.2784 L472.964791,487.606933 L472.281942,489.322133 L472.67458,489.714667 L474.377434,489.0448 L474.697519,489.2112 C475.051747,489.3904 475.33769,489.509867 475.627901,489.5952 L475.982129,489.701867 L476.724727,491.4 Z M477.002134,488.2 C475.235263,488.2 473.80128,486.7664 473.80128,485 C473.80128,483.2336 475.235263,481.8 477.002134,481.8 C478.769005,481.8 480.202987,483.2336 480.202987,485 C480.202987,486.7664 478.769005,488.2 477.002134,488.2 Z M477.002134,483.4 C476.118698,483.4 475.401707,484.1168 475.401707,485 C475.401707,485.8832 476.118698,486.6 477.002134,486.6 C477.885569,486.6 478.602561,485.8832 478.602561,485 C478.602561,484.1168 477.885569,483.4 477.002134,483.4 Z" id="path-1"></path>
    </defs>
    <g id="Page-1" stroke="none" stroke-width="1" fill="none" fill-rule="evenodd">
        <g id="Desktop-HD" transform="translate(-469.000000, -477.000000)">
            <mask id="mask-2" fill="white">
                <use xlink:href="#path-1"></use>
            </mask>
            <use id="Settings" fill="#FFFFFF" fill-rule="nonzero" xlink:href="#path-1"></use>
        </g>
    </g>
</svg>