<?xml version="1.0" encoding="UTF-8"?>
<svg width="16px" height="16px" viewBox="0 0 16 16" version="1.1" xmlns="http://www.w3.org/2000/svg" xmlns:xlink="http://www.w3.org/1999/xlink">    <title>Star</title>
    <defs>
        <path d="M484.033254,393.316305 C484.033254,393.316305 484.033254,393.316305 484.033254,393.316305 L479.437005,393.218675 L477.930761,388.694764 C477.789719,388.272456 477.425809,388 477.001606,388 C477.001606,388 477.001606,388 477.00053,388 C476.57525,388 476.210263,388.273592 476.071374,388.694764 L474.564055,393.217539 L469.966729,393.316305 C469.540373,393.325387 469.180769,393.60806 469.049417,394.036044 C468.918065,394.464027 469.053724,394.915851 469.395024,395.188307 L473.049198,398.078615 L471.722756,402.652476 C471.597864,403.081595 471.739983,403.530013 472.083437,403.795658 C472.260008,403.931886 472.463497,404 472.666985,404 C472.860783,404 473.054581,403.938697 473.224693,403.814957 L476.999453,401.0745 L480.776366,403.814957 C481.12628,404.068114 481.575246,404.061303 481.919776,403.793387 C482.262153,403.528878 482.402118,403.079325 482.278303,402.652476 L480.950784,398.078615 L484.606035,395.187172 C484.946259,394.915851 485.081918,394.464027 484.950566,394.036044 C484.82029,393.60806 484.45961,393.325387 484.033254,393.316305 Z M479.624848,397.285614 C479.466199,397.410332 479.399547,397.627105 479.456811,397.826061 L480.645276,401.92 L477.274204,399.471159 C477.19441,399.412759 477.100535,399.384054 477.007598,399.384054 C476.914661,399.384054 476.821724,399.412759 476.740991,399.471159 L473.36992,401.91901 L474.557446,397.826061 C474.615649,397.626115 474.548997,397.410332 474.390347,397.285614 L471.124417,394.702156 L475.227717,394.614061 C475.422978,394.610102 475.59571,394.477464 475.660484,394.283458 L477.008537,390.24 L478.35659,394.283458 C478.421364,394.478454 478.594095,394.610102 478.790295,394.614061 L482.892657,394.702156 L479.624848,397.285614 Z" id="path-1"></path>
    </defs>
    <g id="Page-1" stroke="none" stroke-width="1" fill="none" fill-rule="evenodd">
        <g id="Desktop-HD" transform="translate(-469.000000, -388.000000)">
            <mask id="mask-2" fill="white">
                <use xlink:href="#path-1"></use>
            </mask>
            <use id="Star" fill="#FFFFFF" fill-rule="nonzero" xlink:href="#path-1"></use>
        </g>
    </g>
</svg>