<svg width="96" height="64" viewBox="0 0 96 64" fill="none" xmlns="http://www.w3.org/2000/svg">
    <g id="Frame 1" clip-path="url(#clip0_1_2)">
        <rect width="96" height="64" fill="white"/>
        <g id="video 1">
            <path id="Vector" fill-rule="evenodd" clip-rule="evenodd"
                  d="M82.0181 63.0869H15.6902C11.8345 63.0869 8.70834 59.9608 8.70834 56.1051V7.23188C8.70834 3.37614 11.8345 0.25 15.6902 0.25H82.0181C85.8739 0.25 89 3.37614 89 7.23188V56.1051C89 59.9608 85.8739 63.0869 82.0181 63.0869ZM27.9085 3.74094H15.6902C13.7632 3.74094 12.1993 5.30488 12.1993 7.23188V10.7228H27.9085V3.74094ZM47.1087 3.74094H31.3995V10.7228H47.1087V3.74094ZM66.3089 3.74094H50.5996V10.7228H66.3089V3.74094ZM85.5091 7.23188C85.5091 5.30488 83.9451 3.74094 82.0181 3.74094H69.7998V10.7228H85.5091V7.23188ZM85.5091 14.2138H12.1993V49.1232H85.5091V14.2138ZM85.5091 52.6141H69.7998V59.596H66.3089V52.6141H50.5996V59.596H47.1087V52.6141H31.3995V59.596H27.9085V52.6141H12.1993V56.1051C12.1993 58.0321 13.7632 59.596 15.6902 59.596H82.0181C83.9451 59.596 85.5091 58.0321 85.5091 56.1051V52.6141ZM44.7017 41.7311C44.4015 41.9737 44.0332 42.1413 43.6178 42.1413C42.6525 42.1413 41.8723 41.3611 41.8723 40.3958V22.9411C41.8723 21.9776 42.6525 21.1956 43.6178 21.1956C43.9895 21.1956 44.3159 21.3388 44.6005 21.5378L58.1645 30.0417C58.8383 30.2808 59.327 30.9109 59.327 31.6685C59.327 32.2357 59.039 32.7175 58.6201 33.0352L44.7017 41.7311Z"
                  fill="black"/>
        </g>
    </g>
    <defs>
        <clipPath id="clip0_1_2">
            <rect width="96" height="64" fill="white"/>
        </clipPath>
    </defs>
</svg>
