<svg id="Capa_1" enable-background="new 0 0 504.5 504.5" height="512" viewBox="0 0 504.5 504.5" width="512" xmlns="http://www.w3.org/2000/svg"><g><path d="m297.348 442.972c-.771-4.632-2.779-9-9.385-12.096-11.414 5.624-22.507 11.655-33.374 17.582-2.169 1.183-4.331 2.362-6.49 3.534.169 5.774 2.991 9.942 8.449 12.48 1.744-.949 3.485-1.897 5.223-2.845 11.594-6.324 23.439-12.782 35.577-18.655z" fill="#b2e5fb"/><path d="m248.099 451.991c2.522 4.279 5.344 8.447 8.449 12.48-37.042 20.149-75.642 40.029-123.43 40.029-45.309 0-84.035-31.948-86.328-71.218-.241-4.136 2.915-7.684 7.05-7.925 4.135-.249 7.683 2.914 7.924 7.05.841 14.405 8.63 28.79 21.37 39.465 13.565 11.368 31.316 17.628 49.983 17.628 43.624 0 78.642-17.765 114.982-37.509zm169.317-32.827c-14.212-9.653-46.648-22.439-104.211.388-8.619 3.418-17.012 7.268-25.242 11.324 2.646 4.19 5.785 8.246 9.385 12.096 7.028-3.401 14.153-6.608 21.386-9.477 17.671-7.008 61.839-21.224 90.254-1.923 10.307 7 13.979 15.706 13.979 21.519 0 22.798-19.321 36.409-51.683 36.409-27.547 0-55.303-10.186-76.149-27.945-20.438-17.412-32.161-40.317-32.161-62.843 0-4.143-3.358-7.5-7.5-7.5s-7.5 3.357-7.5 7.5c0 56.354 57.622 105.788 123.31 105.788 49.165 0 66.683-26.557 66.683-51.409 0-12.504-7.682-25.187-20.551-33.927z" fill="#d3effd"/><path d="m221.834 373.017c-2.149 3.712-3.579 7.062-3.579 9.411 0 9.532 21.114 16.284 37.22 16.284s37.22-6.752 37.22-16.284c0-2.349-1.43-5.698-3.579-9.411z" fill="#ff9a9f"/><path d="m289.115 373.017c-6.574-11.354-19.912-26.114-19.912-26.114h-27.457s-13.338 14.76-19.912 26.114c6.706 5.906 21.578 9.695 33.641 9.695s26.934-3.788 33.64-9.695z" fill="#ff8086"/><path d="m347.087 0c-38.109 0-71.714 19.272-91.612 48.598-19.898-29.326-53.504-48.598-91.613-48.598-27.725 0-53.066 10.199-72.481 27.048-14.511 18.741-30.154 45.821-30.154 83.587 0 113.573 145.471 229.254 194.248 229.254 26.377 0 82.819-32.807 131.561-74.086 39.147-42.365 70.687-97.135 70.687-155.167-.001-61.103-49.534-110.636-110.636-110.636z" fill="#ffb3b7"/><path d="m68.227 110.635c0-37.766 8.643-64.846 23.155-83.587-23.373 20.285-38.155 50.21-38.155 83.587 0 126.907 150.805 238.254 202.248 238.254 27.919 0 85.099-32.805 131.561-83.086-48.742 41.279-105.184 66.086-131.561 66.086-48.777 0-187.248-107.68-187.248-221.254z" fill="#ff9a9f"/><path d="m371.815 206.748c-.852 0-1.718-.146-2.564-.454-3.893-1.417-5.899-5.721-4.483-9.613l9.393-25.806c.039-.105.08-.21.123-.314 3.884-9.34 3.653-13.684 2.775-15.682-.261-.595-1.056-2.404-5.502-4.022-6.739-2.454-11.75.667-14.886 9.278l-.791 2.158c-.241.684-.496 1.378-.762 2.08l-.999 2.729c-.007.02-.014.038-.021.058l-8.239 22.639c-1.417 3.892-5.723 5.896-9.613 4.482-3.893-1.417-5.899-5.721-4.483-9.613l9.141-25.115c.016-.042.031-.084.047-.126.038-.098.075-.195.112-.292l.7-1.913c.146-.414.285-.822.417-1.223 4.764-14.395.24-16.042-3.064-17.244-3.062-1.117-6.047-.783-8.874.983-3.415 2.135-6.371 6.263-8.321 11.623-.031.083-.063.166-.096.248l-9.462 25.999c-1.417 3.891-5.724 5.894-9.613 4.482-3.893-1.417-5.899-5.721-4.483-9.613l18.475-50.76c1.417-3.892 5.721-5.897 9.613-4.482 2.785 1.014 4.605 3.506 4.896 6.268 4.276-.783 8.7-.406 12.996 1.156 5.398 1.965 10.876 5.618 13.429 12.391 5.646-2.568 12.184-2.772 19.01-.288 6.949 2.529 11.695 6.596 14.106 12.087 3.058 6.962 2.234 15.645-2.593 27.313l-9.336 25.65c-1.108 3.044-3.985 4.936-7.048 4.936zm-232.577-.215c-3.063 0-5.939-1.892-7.048-4.937l-18.475-50.759c-1.417-3.893.59-8.196 4.483-9.613 2.783-1.013 5.78-.275 7.778 1.653 2.773-3.347 6.404-5.904 10.7-7.467 5.396-1.965 11.942-2.688 18.25.859 2.675-5.598 7.552-9.956 14.378-12.44 6.948-2.528 13.197-2.465 18.574.191 6.818 3.367 11.769 10.549 15.572 22.592l9.335 25.648c1.417 3.893-.59 8.196-4.483 9.613-3.892 1.411-8.196-.591-9.613-4.482l-9.392-25.805c-.038-.106-.074-.213-.108-.32-3.029-9.652-5.998-12.831-7.955-13.798-.583-.288-2.354-1.164-6.8.456-6.742 2.454-8.572 8.064-5.439 16.677l.783 2.165c.256.684.51 1.385.76 2.101l.981 2.711c.001.004.002.007.003.01l8.257 22.687c1.417 3.893-.59 8.196-4.483 9.613-3.892 1.414-8.196-.591-9.613-4.482l-9.141-25.115c-.015-.042-.03-.084-.044-.125-.032-.094-.064-.187-.097-.28l-.699-1.932c-.155-.413-.311-.815-.467-1.207-5.603-14.088-10.128-12.442-13.431-11.24-3.062 1.114-5.136 3.286-6.166 6.457-1.244 3.831-.855 8.893 1.096 14.252.03.083.059.166.085.249l9.464 26.001c1.417 3.893-.59 8.196-4.483 9.613-.844.308-1.71.454-2.562.454zm116.195-23.525c-19.028 0-34.508-15.48-34.508-34.508s15.48-34.508 34.508-34.508 34.508 15.48 34.508 34.508-15.48 34.508-34.508 34.508zm0-54.016c-10.757 0-19.508 8.751-19.508 19.508s8.751 19.508 19.508 19.508 19.508-8.751 19.508-19.508-8.751-19.508-19.508-19.508z" fill="#8c5e5e"/></g></svg>