<svg id="Layer_1" enable-background="new 0 0 497 497" height="512" viewBox="0 0 497 497" width="512" xmlns="http://www.w3.org/2000/svg"><g><g><g><path d="m497 248.5c0 15.522-33.323 27.574-36.225 42.245-2.99 15.117 23.131 38.971 17.363 52.879-5.868 14.151-41.263 12.517-49.683 25.096-8.485 12.675 6.507 44.75-4.239 55.496s-42.822-4.246-55.496 4.239c-12.578 8.421-10.944 43.815-25.095 49.683-13.908 5.767-37.762-20.354-52.879-17.364-14.672 2.903-26.724 36.226-42.246 36.226s-27.574-33.323-42.245-36.225c-15.117-2.99-38.971 23.131-52.879 17.363-14.151-5.868-12.517-41.263-25.096-49.683-12.675-8.485-44.75 6.507-55.496-4.239s4.246-42.822-4.239-55.496c-8.421-12.578-43.815-10.944-49.683-25.095-5.767-13.908 20.354-37.762 17.364-52.879-2.903-14.672-36.226-26.724-36.226-42.246s33.323-27.574 36.225-42.245c2.99-15.117-23.131-38.971-17.363-52.879 5.868-14.151 41.263-12.517 49.683-25.096 8.485-12.675-6.507-44.75 4.239-55.496s42.822 4.246 55.496-4.239c12.578-8.421 10.944-43.815 25.095-49.683 13.908-5.767 37.762 20.354 52.879 17.364 14.672-2.903 26.724-36.226 42.246-36.226s27.574 33.323 42.245 36.225c15.117 2.99 38.971-23.131 52.879-17.363 14.151 5.868 12.517 41.263 25.096 49.683 12.675 8.485 44.75-6.507 55.496 4.239s-4.246 42.822 4.239 55.496c8.421 12.578 43.815 10.944 49.683 25.095 5.767 13.908-20.354 37.762-17.364 52.879 2.903 14.672 36.226 26.724 36.226 42.246z" fill="#9dc4fc"/><path d="m497 248.5c0 15.522-33.323 27.574-36.225 42.245-2.99 15.117 23.131 38.971 17.363 52.879-5.868 14.151-41.263 12.517-49.683 25.096-8.485 12.675 6.507 44.75-4.239 55.496s-42.822-4.246-55.496 4.239c-12.578 8.421-10.944 43.815-25.095 49.683-13.908 5.767-37.762-20.354-52.879-17.364-14.672 2.903-26.724 36.226-42.246 36.226s-27.574-33.323-42.245-36.225c-15.117-2.99-38.971 23.131-52.879 17.363-14.151-5.868-12.517-41.263-25.096-49.683-12.675-8.485-44.75 6.507-55.496-4.239s4.246-42.822-4.239-55.496c-8.421-12.578-43.815-10.944-49.683-25.095-5.767-13.908 20.354-37.762 17.364-52.879-2.903-14.672-36.226-26.724-36.226-42.246s33.323-27.574 36.225-42.245c2.99-15.117-23.131-38.971-17.363-52.879 5.868-14.151 41.263-12.517 49.683-25.096 8.485-12.675-6.507-44.75 4.239-55.496s42.822 4.246 55.496-4.239c12.578-8.421 10.944-43.815 25.095-49.683 13.908-5.767 37.762 20.354 52.879 17.364 14.672-2.903 26.724-36.226 42.246-36.226s27.574 33.323 42.245 36.225c15.117 2.99 38.971-23.131 52.879-17.363 14.151 5.868 12.517 41.263 25.096 49.683 12.675 8.485 44.75-6.507 55.496 4.239s-4.246 42.822 4.239 55.496c8.421 12.578 43.815 10.944 49.683 25.095 5.767 13.908-20.354 37.762-17.364 52.879 2.903 14.672 36.226 26.724 36.226 42.246z" fill="#ffd52b"/><g fill="#fcca00"><path d="m338.72 68.545c6.949 4.652 19.728 2.25 31.627.899-.568-.268-1.119-.558-1.627-.899-12.578-8.421-10.945-43.815-25.096-49.683-6.332-2.626-14.726 1.361-23.417 6.198 7.46 12.201 8.335 36.671 18.513 43.485z"/><path d="m260.745 36.225c5.818 1.151 12.932-2.014 20.274-6.011-10.637-10.399-20.546-30.214-32.519-30.214-5.327 0-10.245 3.925-15 9.197 9.102 10.092 17.609 25.122 27.245 27.028z"/><path d="m497 248.5c0-15.522-33.323-27.574-36.225-42.245-2.99-15.117 23.131-38.97 17.364-52.879-5.868-14.151-41.262-12.517-49.683-25.095-8.485-12.675 6.507-44.75-4.239-55.496-6.388-6.388-20.315-3.681-33.222-2.217 1.211.574 2.3 1.295 3.222 2.217 10.746 10.746-4.246 42.822 4.239 55.496 8.421 12.578 43.815 10.944 49.683 25.095 5.767 13.908-20.354 37.762-17.364 52.879 2.902 14.671 36.225 26.723 36.225 42.245s-33.323 27.574-36.225 42.245c-2.99 15.117 23.131 38.971 17.363 52.879-5.868 14.151-41.262 12.517-49.683 25.096-8.486 12.675 6.507 44.75-4.24 55.496-.922.922-2.011 1.643-3.222 2.217 12.907 1.464 26.833 4.172 33.222-2.217 10.746-10.746-4.246-42.822 4.24-55.496 8.421-12.578 43.815-10.944 49.683-25.096 5.768-13.909-20.354-37.763-17.363-52.879 2.902-14.671 36.225-26.723 36.225-42.245z"/><path d="m338.719 428.456c-10.178 6.814-11.053 31.283-18.513 43.485 8.691 4.837 17.085 8.823 23.417 6.198 14.151-5.868 12.517-41.262 25.095-49.683.508-.34 1.059-.63 1.627-.898-11.899-1.352-24.677-3.754-31.626.898z"/><path d="m260.745 460.775c-9.636 1.906-18.143 16.936-27.245 27.028 4.755 5.272 9.673 9.197 15 9.197 11.973 0 21.882-19.815 32.519-30.214-7.342-3.996-14.456-7.162-20.274-6.011z"/></g></g><circle cx="248.5" cy="248.5" fill="#fff" r="178.629"/><path d="m248.5 69.871c-5.053 0-10.053.221-15 .632 91.633 7.62 163.629 84.395 163.629 177.997s-71.996 170.376-163.629 177.997c4.947.411 9.947.632 15 .632 98.654 0 178.629-79.975 178.629-178.629s-79.975-178.629-178.629-178.629z" fill="#e9f0f5"/></g><g><g fill="#4d69cf"><path d="m231.729 186.748c4.143 0 7.5-3.358 7.5-7.5s-3.357-7.5-7.5-7.5h-24.281c-4.143 0-7.5 3.358-7.5 7.5v57.625c0 4.142 3.357 7.5 7.5 7.5h24.281c4.143 0 7.5-3.358 7.5-7.5s-3.357-7.5-7.5-7.5h-16.781v-13.813h14.991c4.143 0 7.5-3.358 7.5-7.5s-3.357-7.5-7.5-7.5h-14.991v-13.813h16.781z"/><path d="m188.025 221.15c0-7.203-3.307-13.648-8.482-17.898 2.053-3.231 3.259-7.051 3.259-11.154 0-11.514-9.367-20.882-20.882-20.882h-16.893c-4.143 0-7.5 3.358-7.5 7.5v26.779.043 31.333c0 1.995.795 3.908 2.208 5.315 1.406 1.4 3.309 2.185 5.292 2.185h.033s15.529-.069 19.81-.069c12.769.002 23.155-10.385 23.155-23.152zm-26.104-34.933c3.243 0 5.882 2.639 5.882 5.882s-2.639 5.882-5.882 5.882c-1.234 0-3.555.007-6.087.016h-3.305v-11.779h9.392zm-9.393 26.791c1.1-.004 2.229-.008 3.319-.012h9.023c4.496 0 8.154 3.658 8.154 8.154s-3.658 8.154-8.154 8.154c-2.276 0-7.726.02-12.343.038v-16.334z"/><path d="m271.035 172.449c-8.115 2.444-13.857 8.844-14.985 16.703-1.06 7.378 2.139 14.477 8.348 18.524.331.216.679.405 1.04.566.337.15 8.353 3.718 17.379 7.048 1.947.718 8.24 3.393 7.479 7.661-.564 3.157-4.434 6.422-9.933 6.422-5.717 0-11.216-2.302-14.709-6.157-2.783-3.071-7.526-3.302-10.594-.521-3.069 2.781-3.303 7.524-.521 10.594 6.384 7.044 15.796 11.084 25.824 11.084 12.368 0 22.755-7.9 24.698-18.786 1.465-8.201-2.246-18.909-17.053-24.371-7.104-2.62-13.721-5.473-15.793-6.38-1.468-1.199-1.417-2.859-1.317-3.554.141-.983.858-3.385 4.464-4.472 8.066-2.429 15.574 3.484 15.792 3.658 3.17 2.628 7.873 2.209 10.527-.949 2.665-3.17 2.256-7.901-.915-10.567-.554-.463-13.729-11.327-29.731-6.503z"/><path d="m357.972 172.166h-32.117c-4.143 0-7.5 3.358-7.5 7.5s3.357 7.5 7.5 7.5h8.494v49.708c0 4.142 3.357 7.5 7.5 7.5s7.5-3.358 7.5-7.5v-49.708h8.623c4.143 0 7.5-3.358 7.5-7.5s-3.358-7.5-7.5-7.5z"/><path d="m222.998 331.292c3.87 1.474 8.204-.468 9.679-4.339l3.599-9.45h24.733l3.558 9.428c1.133 3.004 3.987 4.854 7.018 4.854.88 0 1.775-.156 2.647-.485 3.875-1.463 5.831-5.79 4.368-9.665l-21.64-57.34c-.025-.069-.053-.137-.08-.205-1.366-3.32-4.565-5.463-8.155-5.463-.002 0-.006 0-.008 0-3.593.003-6.793 2.154-8.153 5.479-.023.057-.046.113-.067.17l-21.838 57.337c-1.474 3.872.469 8.205 4.339 9.679zm25.701-46.407 6.649 17.618h-13.359z"/><path d="m210.117 296.065c0-21.364-12.173-35.718-30.29-35.718h-15.984c-1.991 0-3.901.792-5.309 2.202-1.406 1.41-2.195 3.321-2.191 5.313v.043.002 55.46c0 .49.051.968.14 1.431.125 1.81.895 3.522 2.191 4.808 1.404 1.395 3.304 2.177 5.283 2.177h.028c.483-.002 11.883-.046 16.44-.125 17.205-.301 29.692-15.27 29.692-35.593zm-29.953 20.595c-2.015.035-5.504.064-8.732.084-.021-6.645-.048-16-.048-20.741 0-3.968-.016-13.738-.027-20.656h8.471c14.188 0 15.29 15.857 15.29 20.718-.001 10.121-4.625 20.414-14.954 20.595z"/><path d="m316.366 260.347h-15.983c-1.991 0-3.901.792-5.309 2.202-1.406 1.41-2.195 3.321-2.191 5.313v.043.002 55.46c0 .49.051.968.14 1.431.125 1.81.895 3.522 2.191 4.808 1.404 1.395 3.304 2.177 5.283 2.177h.028c.483-.002 11.883-.046 16.439-.125 17.205-.301 29.692-15.27 29.692-35.593.001-21.364-12.172-35.718-30.29-35.718zm.337 56.313c-2.015.035-5.503.064-8.731.084-.021-6.645-.048-16-.048-20.741 0-3.968-.016-13.738-.027-20.656h8.47c14.188 0 15.291 15.857 15.291 20.718-.001 10.121-4.625 20.414-14.955 20.595z"/></g><path d="m207.861 132.072c26.232-8.392 55.066-8.22 81.191.486.787.262 1.586.387 2.372.387 3.141 0 6.067-1.988 7.114-5.131 1.31-3.93-.814-8.177-4.744-9.486-29.122-9.704-61.263-9.897-90.504-.542-3.945 1.262-6.12 5.483-4.858 9.429 1.263 3.944 5.485 6.118 9.429 4.857z" fill="#ffd52b"/><path d="m289.139 364.928c-26.233 8.392-55.065 8.22-81.191-.486-3.932-1.311-8.178.814-9.486 4.744-1.31 3.93.814 8.177 4.744 9.486 14.842 4.946 30.467 7.421 46.094 7.421 15.035 0 30.071-2.292 44.41-6.878 3.945-1.262 6.12-5.483 4.858-9.429-1.262-3.945-5.481-6.117-9.429-4.858z" fill="#ffd52b"/></g></g></svg>