<svg id="Capa_1" enable-background="new 0 0 512 512" height="512" viewBox="0 0 512 512" width="512" xmlns="http://www.w3.org/2000/svg"><g><g><path d="m256 117.64c-4.267 0-7.726-3.459-7.726-7.726v-25.069c0-4.268 3.459-7.726 7.726-7.726s7.726 3.459 7.726 7.726v25.068c.001 4.268-3.459 7.727-7.726 7.727z" fill="#e8f9fc"/></g><path d="m240.376 192.809c4.117-3.812 9.605-6.156 15.624-6.156s11.508 2.344 15.624 6.156c1.501 1.39 3.341 2.288 5.278 2.677v-71.257c0-9.96-8.074-18.034-18.034-18.034h-5.737c-9.96 0-18.034 8.074-18.034 18.034v71.26c1.909-.38 3.744-1.259 5.279-2.68z" fill="#00d2fc"/><g><path d="m256 124.228c0-7.248 4.285-13.48 10.451-16.346-2.308-1.073-4.87-1.688-7.583-1.688h-5.737c-9.96 0-18.034 8.074-18.034 18.034v71.26c1.908-.379 3.743-1.258 5.278-2.679 4.117-3.812 9.605-6.156 15.624-6.156v-62.425z" fill="#00c2fb"/></g><path d="m56.869 304.788h398.263v97.18h-398.263z" fill="#ffb640"/><path d="m56.869 304.788h61.695v97.18h-61.695z" fill="#ffa90f"/><path d="m85.212 251.905h339.442v56.804h-339.442z" fill="#fee17d"/><path d="m85.212 251.905h33.352v56.804h-33.352z" fill="#ffce65"/><path d="m56.869 399.291v52.394c0 8.537 6.921 16.488 15.458 16.488h367.347c8.537 0 15.458-7.951 15.458-16.488v-52.394z" fill="#fee17d"/><path d="m118.564 399.291h-61.695v52.394c0 8.537 6.921 16.488 15.458 16.488h46.237z" fill="#ffce65"/><path d="m481.201 467.143h-450.401c-2.793 0-5.057 2.264-5.057 5.057 0 21.981 17.819 39.8 39.8 39.8h380.916c21.981 0 39.8-17.819 39.8-39.8-.001-2.793-2.265-5.057-5.058-5.057z" fill="#e8f9fc"/><path d="m107.136 472.2c0-2.793 2.264-5.057 5.057-5.057h-81.393c-2.793 0-5.058 2.264-5.058 5.057 0 21.981 17.819 39.8 39.8 39.8h81.393c-21.98 0-39.799-17.819-39.799-39.8z" fill="#d9e7ec"/><path d="m443.279 184.734c-7.017-.771-13.496 1.667-18.192 6.015-4.27 3.954-10.848 3.778-14.929 0-4.117-3.812-9.605-6.156-15.624-6.156s-11.508 2.344-15.624 6.156c-4.271 3.954-10.849 3.779-14.93 0-4.117-3.812-9.605-6.156-15.624-6.156s-11.508 2.344-15.624 6.156c-4.271 3.954-10.849 3.779-14.93 0-4.117-3.812-9.605-6.156-15.624-6.156s-11.508 2.344-15.624 6.156c-4.271 3.954-10.849 3.779-14.93 0-4.117-3.812-9.605-6.156-15.624-6.156s-11.508 2.344-15.624 6.156c-4.271 3.954-10.849 3.779-14.93 0-4.117-3.812-9.605-6.156-15.624-6.156s-11.508 2.344-15.624 6.156c-4.271 3.954-10.849 3.779-14.93 0-4.117-3.812-9.605-6.156-15.624-6.156s-11.508 2.344-15.624 6.156c-4.271 3.954-10.849 3.779-14.93 0-4.117-3.812-9.605-6.156-15.624-6.156s-11.508 2.344-15.624 6.156c-4.27 3.954-10.848 3.779-14.929 0-4.695-4.348-11.175-6.786-18.192-6.015-11.786 1.296-20.522 11.61-20.522 23.466v113.128c0 11.972 8.902 22.356 20.818 23.511 13.707 1.329 25.36-9.53 25.36-22.979v-37.55c0-11.972 8.902-22.356 20.818-23.511 13.707-1.329 25.36 9.53 25.36 22.979v37.55c0 11.972 8.902 22.356 20.818 23.511 13.707 1.329 25.36-9.53 25.36-22.979v-37.55c0-11.972 8.902-22.356 20.818-23.511 13.707-1.329 25.36 9.53 25.36 22.979v37.55c0 11.972 8.902 22.356 20.818 23.511 13.707 1.329 25.36-9.53 25.36-22.979v-37.55c0-11.972 8.902-22.356 20.818-23.511 13.707-1.329 25.36 9.53 25.36 22.979v37.55c0 11.972 8.902 22.356 20.818 23.511 13.707 1.329 25.36-9.53 25.36-22.979v-37.55c0-11.972 8.902-22.356 20.818-23.511 13.707-1.329 25.36 9.53 25.36 22.979v37.55c0 11.972 8.902 22.356 20.818 23.511 13.707 1.329 25.36-9.53 25.36-22.979v-113.66c0-11.856-8.736-22.171-20.522-23.466z" fill="#f27182"/><g fill="#ed5469"><path d="m462.627 260.799c-11.916 1.155-20.818 11.539-20.818 23.511v37.55c0 8.71-4.892 16.329-12.06 20.259 2.618 1.451 5.545 2.415 8.691 2.72 13.707 1.329 25.36-9.53 25.36-22.979v-61.143c-.388.019-.779.044-1.173.082z"/><path d="m277.916 260.799c-11.916 1.155-20.818 11.539-20.818 23.511v37.55c0 8.71-4.892 16.329-12.06 20.259 2.618 1.451 5.545 2.415 8.691 2.72 13.707 1.329 25.36-9.53 25.36-22.979v-37.55c0-8.81 4.831-16.746 12.127-20.791-3.9-2.138-8.471-3.188-13.3-2.72z"/><path d="m370.272 260.799c-11.916 1.155-20.818 11.539-20.818 23.511v37.55c0 8.71-4.892 16.329-12.06 20.259 2.618 1.451 5.545 2.414 8.691 2.719 13.707 1.329 25.36-9.53 25.36-22.979v-37.55c0-8.81 4.831-16.746 12.127-20.791-3.9-2.137-8.471-3.187-13.3-2.719z"/><path d="m185.56 260.799c-11.916 1.155-20.818 11.539-20.818 23.511v37.55c0 8.71-4.891 16.329-12.06 20.259 2.618 1.451 5.545 2.414 8.691 2.719 13.707 1.329 25.36-9.53 25.36-22.979v-37.55c0-8.81 4.831-16.746 12.126-20.791-3.899-2.137-8.47-3.187-13.299-2.719z"/><path d="m118.564 208.2c0-8.348 4.341-15.915 11.017-20.124-3.525-2.2-7.673-3.483-12.114-3.483-6.019 0-11.507 2.344-15.624 6.156-4.27 3.953-10.848 3.779-14.929 0-4.695-4.348-11.175-6.786-18.192-6.015-11.786 1.296-20.522 11.61-20.522 23.466v113.128c0 11.972 8.902 22.356 20.818 23.511 13.707 1.329 25.36-9.53 25.36-22.979v-37.55c0-11.972 8.902-22.356 20.818-23.511 1.14-.11 2.263-.129 3.369-.077v-52.522z"/></g><path d="m283.952 29.192-22.745-26.782c-2.728-3.213-7.686-3.213-10.415 0l-22.744 26.783c-20.228 23.819-3.298 60.406 27.952 60.406s48.18-36.587 27.952-60.407z" fill="#fee17d"/><path d="m248.951 29.192 17.5-20.608-5.244-6.175c-2.728-3.213-7.687-3.213-10.415 0l-22.744 26.783c-20.228 23.82-3.298 60.407 27.952 60.407 3.7 0 7.191-.528 10.451-1.472-24.278-7.028-35.333-37.935-17.5-58.935z" fill="#ffce65"/><path d="m271.1 56.967-12.287-14.468c-1.474-1.736-4.152-1.736-5.626 0l-12.287 14.468c-10.927 12.868-1.782 32.632 15.1 32.632s26.027-19.764 15.1-32.632z" fill="#ffb640"/><path d="m261.803 56.967 4.649-5.474-7.638-8.994c-1.474-1.736-4.152-1.736-5.626 0l-12.288 14.468c-10.927 12.868-1.782 32.632 15.1 32.632 3.967 0 7.499-1.101 10.451-2.938-9.612-5.98-13.008-19.85-4.648-29.694z" fill="#ffa90f"/></g></svg>