<svg id="Capa_1" data-name="Capa 1" xmlns="http://www.w3.org/2000/svg" xmlns:xlink="http://www.w3.org/1999/xlink" viewBox="0 0 512 512"><defs><clipPath id="clip-path"><path d="M430.7,299.8c0,171.52-174.33,171.37-174.72,171.41S81.3,471.05,81.3,299.8C81.3,142.21,177.91,0,256,0S430.7,142.21,430.7,299.8Z" style="fill:none"/></clipPath></defs><ellipse cx="256" cy="472.01" rx="127.67" ry="39.99" style="opacity:0.05"/><path d="M430.7,299.8c0,171.52-174.33,171.37-174.72,171.41S81.3,471.05,81.3,299.8C81.3,142.21,177.91,0,256,0S430.7,142.21,430.7,299.8Z" style="fill:#518ac3"/><g style="clip-path:url(#clip-path)"><path d="M47.09,386.71c0-108,69.42-158.13,135-233.34,59.78-67.5,96.43-131.14,77.14-217.92C432.63,132.14,49,232.43,50.94,398.28Z" style="fill:#ff769d"/><path d="M103.13,471.1C53,370.82,162.91,272.46,226.55,210.75c77.14-73.28,121.5-150.42,88.71-256.49a133.36,133.36,0,0,0-9.64-25.07c67.5,54,81,169.71,30.86,241.06C274.77,255.11,180.27,311,126.27,403.6,114.7,426.74,101.2,451.81,114.7,475" style="fill:#fff"/><path d="M166.65,514.9c-42.42-102.2,55.93-167.77,123.43-227.56,79.06-69.42,117.63-148.49,102.21-256.48,0-11.58-3.86-21.22-5.79-30.86,48.21,77.14,73.28,183.21,7.71,256.49S228.36,366.41,193.65,464.76c-9.64,25.07-13.5,48.22-15.43,73.29Z" style="fill:#ff769d"/><path d="M362.37,332.72c67.22-58.18,98.83-104.61,102.69-189.47,46.28,67.5-10.33,174.84-62.4,221.12-57.85,50.14-147.8,99-163.23,183.87C239.43,548.24,206.24,467.82,362.37,332.72Z" style="fill:#fff"/><path d="M193.65,113.82c-45,53.44-111.85,78.12-140.78,143.68,7.72-59.78,72.65-114.74,109.29-161C198.8,48.26,230.29,1,226.44-64.55,226.44-64.55,274,18.42,193.65,113.82Z" style="fill:#fff"/></g><path d="M430.7,299.79C430.7,471.31,256.37,471.16,256,471.2s-98.58-.12-147.57-72.59c49.45,33.94,108.73,34,109,34,.39,0,174.72.11,174.72-171.41,0-94.11-34.44-182.7-78.87-238.82C374.51,68.41,430.7,179.65,430.7,299.79Z" style="opacity:0.1"/><path d="M269,205.39c4.55-42-17-141.28-56.52-145.57S130.57,147.89,126,189.87s23.75,79.5,63.22,83.78S264.4,247.37,269,205.39Z" style="fill:#fff;opacity:0.15"/></svg>