<svg height="16" width="16" xmlns="http://www.w3.org/2000/svg"
	xmlns:xlink="http://www.w3.org/1999/xlink" x="0px" y="0px"
	viewBox="0 0 512 512" style="enable-background:new 0 0 512 512;" xml:space="preserve">
<path style="fill:#E2E2E2;" d="M511.44,461.778l-75.874-350.52l-22.779,380.011h74.862
	C503.167,491.269,514.723,476.944,511.44,461.778z"/>
<path style="fill:#BABABA;" d="M457.245,468.49V211.409l-21.679-100.151l-22.779,380.011h21.679
	C446.994,491.269,457.245,481.019,457.245,468.49z"/>
<path style="fill:#EFEFEF;" d="M413.819,88.479h-38.44H61.219h-38.44C10.251,88.479,0,98.73,0,111.258V468.49
	c0,12.528,10.251,22.779,22.779,22.779h391.04c12.529,0,22.779-10.251,22.779-22.779V111.258
	C436.599,98.73,426.348,88.479,413.819,88.479z"/>
<path style="fill:#E2E2E2;" d="M20.646,468.49V111.258c0-12.528,10.251-22.779,22.779-22.779H22.779
	C10.251,88.479,0,98.73,0,111.258V468.49c0,12.528,10.251,22.779,22.779,22.779h20.646C30.897,491.269,20.646,481.019,20.646,468.49
	z"/>
<path style="fill:#85C2EF;" d="M307.877,291.559l-27.475-35.041c-64.345-52.01-160.99-6.162-160.99,76.932
	c0,54.614,44.273,98.886,98.886,98.886s98.886-44.273,98.886-98.886C317.185,318.472,313.838,304.282,307.877,291.559z"/>
<path style="fill:#69AFEB;" d="M140.059,333.45c0-51.095,38.754-93.136,88.472-98.341c-58.794-6.058-109.118,40.06-109.118,98.341
	c0,58.528,50.611,104.43,109.21,98.351C178.861,426.639,140.059,384.577,140.059,333.45z"/>
<path style="fill:#FFA92C;" d="M202.603,374.075l-29.108-37.839c-7.353-9.556-5.564-23.261,3.991-30.613
	c9.557-7.349,23.26-5.564,30.613,3.993l12.71,16.522l60.371-70.527c7.839-9.157,21.623-10.226,30.779-2.389
	c9.158,7.841,10.228,21.621,2.388,30.78l-77.858,90.958C227.482,385.481,211.051,385.058,202.603,374.075z"/>
<path style="fill:#F2961D;" d="M312.7,253.924l-76.212,89.035c-9.003,10.517-25.437,10.099-33.885-0.886l-26.876-34.938
	c-7.986,7.604-9.107,20.166-2.232,29.101l29.108,37.839c8.426,10.956,24.855,11.435,33.885,0.886l77.859-90.958
	C321.963,275.104,321.147,261.862,312.7,253.924z"/>
<path style="fill:#FF4B4B;" d="M413.819,88.479h-38.44H61.219h-38.44C10.251,88.479,0,98.73,0,111.258v66.799h436.599v-66.799
	C436.599,98.73,426.348,88.479,413.819,88.479z"/>
<path style="fill:#C83741;" d="M43.438,88.479H22.779C10.251,88.479,0,98.73,0,111.258v66.799h20.659v-66.799
	C20.659,98.73,30.91,88.479,43.438,88.479z"/>
<g>
	<path style="fill:#FFCF65;" d="M98.573,133.268H73.219c-6.6,0-12-5.4-12-12V32.731c0-6.6,5.4-12,12-12h25.355c6.6,0,12,5.4,12,12
		v88.537C110.573,127.868,105.173,133.268,98.573,133.268z"/>
	<path style="fill:#FFCF65;" d="M363.38,133.268h-25.355c-6.6,0-12-5.4-12-12V32.731c0-6.6,5.4-12,12-12h25.355c6.6,0,12,5.4,12,12
		v88.537C375.38,127.868,369.98,133.268,363.38,133.268z"/>
	<path style="fill:#FFCF65;" d="M230.977,133.268h-25.355c-6.6,0-12-5.4-12-12V32.731c0-6.6,5.4-12,12-12h25.355c6.6,0,12,5.4,12,12
		v88.537C242.977,127.868,237.577,133.268,230.977,133.268z"/>
</g>
<g>
	<path style="fill:#FFB450;" d="M81.865,120.881V33.119c0-6.813,5.574-12.388,12.388-12.388H73.607
		c-6.813,0-12.388,5.575-12.388,12.388v87.762c0,6.813,5.574,12.388,12.388,12.388h20.646
		C87.44,133.268,81.865,127.694,81.865,120.881z"/>
	<path style="fill:#FFB450;" d="M346.672,120.881V33.119c0-6.813,5.574-12.388,12.388-12.388h-20.646
		c-6.813,0-12.388,5.575-12.388,12.388v87.762c0,6.813,5.574,12.388,12.388,12.388h20.646
		C352.246,133.268,346.672,127.694,346.672,120.881z"/>
	<path style="fill:#FFB450;" d="M214.268,120.881V33.119c0-6.813,5.575-12.388,12.388-12.388H206.01
		c-6.813,0-12.388,5.575-12.388,12.388v87.762c0,6.813,5.575,12.388,12.388,12.388h20.646
		C219.843,133.268,214.268,127.694,214.268,120.881z"/>
</g>
<g>
</g>
<g>
</g>
<g>
</g>
<g>
</g>
<g>
</g>
<g>
</g>
<g>
</g>
<g>
</g>
<g>
</g>
<g>
</g>
<g>
</g>
<g>
</g>
<g>
</g>
<g>
</g>
<g>
</g>
</svg>