<?xml version="1.0" encoding="UTF-8" standalone="no"?> <svg width="64" height="64" viewBox="0 0 64 64" fill="none" xmlns="http://www.w3.org/2000/svg">
<path d="M50.3099 46.6599L53.2099 58.3099" stroke="#AEDDF4" stroke-width="2" stroke-miterlimit="10" stroke-linecap="round"/>
<path d="M59.9999 56.6201L46.4099 60.0001" stroke="#AEDDF4" stroke-width="2" stroke-miterlimit="10" stroke-linecap="round"/>
<path d="M13.78 46.6599L10.88 58.3099" stroke="#AEDDF4" stroke-width="2" stroke-miterlimit="10" stroke-linecap="round"/>
<path d="M4.07996 56.6201L17.67 60.0001" stroke="#AEDDF4" stroke-width="2" stroke-miterlimit="10" stroke-linecap="round"/>
<path d="M12.5333 14.4009L30.0002 18.7494L24.6853 40.0977C24.1087 42.414 22.6355 44.4063 20.59 45.6364C18.5444 46.8665 16.0939 47.2336 13.7777 46.6569V46.6569C11.4614 46.0803 9.46911 44.6071 8.23903 42.5615C7.00895 40.5159 6.64185 38.0655 7.2185 35.7492L12.5333 14.4009V14.4009Z" fill="#AEDDF4"/>
<path d="M13.78 46.6601C11.4652 46.0835 9.4741 44.6116 8.24404 42.5678C7.01398 40.5239 6.64565 38.0754 7.21996 35.7601L9.87996 25.0801L11 26.4801C11.5454 27.1486 12.3265 27.5824 13.1823 27.6922C14.0381 27.802 14.9034 27.5793 15.6 27.0701L17 26.0701C17.6481 25.5951 18.4446 25.3672 19.2459 25.4278C20.0472 25.4883 20.8005 25.8331 21.37 26.4001V26.4001C21.945 26.9777 22.7104 27.3265 23.5235 27.3817C24.3367 27.4369 25.1422 27.1947 25.79 26.7001L28.54 24.6001L24.68 40.1101C24.1012 42.423 22.6284 44.4117 20.5848 45.6397C18.5412 46.8678 16.0939 47.2347 13.78 46.6601V46.6601Z" fill="#B22222"/>
<path d="M11.1 32.6001L13.04 33.0801" stroke="#E6E6E6" stroke-width="2" stroke-miterlimit="10"/>
<path d="M21.5199 32.1001L23.4599 32.5901" stroke="#E6E6E6" stroke-width="2" stroke-miterlimit="10"/>
<path d="M11.59 38.9099L13.53 39.3899" stroke="#E6E6E6" stroke-width="2" stroke-miterlimit="10"/>
<path d="M15.95 42.05L17.9 42.5401" stroke="#E6E6E6" stroke-width="2" stroke-miterlimit="10"/>
<path d="M50.3147 46.6657C47.9984 47.2424 45.548 46.8753 43.5024 45.6452C41.4568 44.4151 39.9837 42.4228 39.407 40.1065L34.0922 18.7582L51.559 14.4097L56.8738 35.758C57.4505 38.0743 57.0834 40.5247 55.8533 42.5703C54.6232 44.6159 52.6309 46.0891 50.3147 46.6657V46.6657Z" fill="#AEDDF4"/>
<path d="M50.3099 46.6601C52.6246 46.0835 54.6158 44.6116 55.8458 42.5678C57.0759 40.5239 57.4442 38.0754 56.8699 35.7601L54.2099 25.0801L53.0699 26.4801C52.5259 27.1507 51.7445 27.5861 50.888 27.696C50.0315 27.8058 49.1656 27.5817 48.4699 27.0701L47.0799 26.0701C46.4318 25.5951 45.6352 25.3672 44.8339 25.4278C44.0326 25.4883 43.2793 25.8331 42.7099 26.4001V26.4001C42.1332 26.9784 41.3661 27.3276 40.5513 27.3828C39.7365 27.438 38.9293 27.1954 38.2799 26.7001L35.5299 24.6001L39.3999 40.1101C39.9785 42.4252 41.4529 44.4157 43.4988 45.6439C45.5447 46.8722 47.9946 47.2377 50.3099 46.6601V46.6601Z" fill="#B22222"/>
<path d="M52.9899 32.6001L51.0499 33.0801" stroke="#E6E6E6" stroke-width="2" stroke-miterlimit="10"/>
<path d="M42.56 32.1001L40.62 32.5901" stroke="#E6E6E6" stroke-width="2" stroke-miterlimit="10"/>
<path d="M52.4999 38.9099L50.5599 39.3899" stroke="#E6E6E6" stroke-width="2" stroke-miterlimit="10"/>
<path d="M48.1299 42.05L46.1899 42.5401" stroke="#E6E6E6" stroke-width="2" stroke-miterlimit="10"/>
<path d="M32 3V11" stroke="#8CC63F" stroke-width="2" stroke-miterlimit="10" stroke-linecap="round"/>
<path d="M41.0799 5L36.9199 11.83" stroke="#8CC63F" stroke-width="2" stroke-miterlimit="10" stroke-linecap="round"/>
<path d="M22.84 5L27 11.83" stroke="#8CC63F" stroke-width="2" stroke-miterlimit="10" stroke-linecap="round"/>
<path d="M3.84003 57.59L10.63 59.2799L17.43 61C17.6873 61.0634 17.9592 61.0222 18.1861 60.8853C18.4129 60.7484 18.5762 60.5271 18.64 60.27C18.6807 60.1386 18.6938 60.0003 18.6786 59.8637C18.6634 59.7271 18.6202 59.5951 18.5517 59.4759C18.4832 59.3567 18.3909 59.2529 18.2805 59.1711C18.1701 59.0892 18.044 59.0309 17.91 59L12.09 57.5499L14.52 47.79C15.0001 47.8614 15.4847 47.8981 15.97 47.9C18.1972 47.8949 20.359 47.1464 22.1125 45.7733C23.8661 44.4002 25.111 42.481 25.65 40.32L30.21 22.02L31.21 18.02L11.8 13.2L9.39003 22.9L6.25003 35.5099C5.65099 37.9157 5.96694 40.4582 7.13659 42.6441C8.30624 44.83 10.2462 46.5035 12.58 47.34L10.15 57.0999L4.33003 55.65C4.20197 55.617 4.06866 55.6099 3.9378 55.6288C3.80695 55.6478 3.68116 55.6925 3.5677 55.7604C3.45424 55.8283 3.35537 55.918 3.27681 56.0243C3.19826 56.1307 3.14157 56.2516 3.11003 56.38C3.04658 56.6372 3.08782 56.9091 3.22469 57.136C3.36156 57.3628 3.58287 57.5261 3.84003 57.59ZM13.26 15.59L28.79 19.46L27.66 24L25.19 25.88C24.7342 26.2261 24.1689 26.3965 23.5977 26.3598C23.0266 26.323 22.4877 26.0817 22.08 25.68C21.3451 24.9384 20.3679 24.4858 19.3269 24.4051C18.2859 24.3243 17.2506 24.6206 16.41 25.24L15.02 26.24C14.532 26.5995 13.9243 26.7575 13.323 26.6812C12.7217 26.6048 12.1727 26.3 11.79 25.83L10.97 24.83L13.26 15.59ZM9.09003 42.0499C8.55303 41.1581 8.19714 40.1691 8.04271 39.1395C7.88828 38.11 7.93834 37.0601 8.19003 36.0499L10.36 27.31C11.0855 28.119 12.0852 28.6302 13.1658 28.7448C14.2464 28.8593 15.3311 28.569 16.21 27.93L17.6 26.93C18.0538 26.5925 18.614 26.43 19.1779 26.4722C19.7418 26.5145 20.2716 26.7587 20.67 27.16C21.4209 27.9035 22.4147 28.3513 23.4691 28.4211C24.5235 28.4909 25.5677 28.1781 26.41 27.54L26.89 27.17L23.71 39.86C23.328 41.3956 22.499 42.7835 21.3281 43.848C20.1572 44.9125 18.6968 45.6058 17.1318 45.8402C15.5668 46.0747 13.9674 45.8397 12.5359 45.165C11.1045 44.4903 9.90529 43.4063 9.09003 42.0499V42.0499Z" fill="black"/>
<path d="M11.3353 31.625L10.8518 33.5657L12.7925 34.0492L13.276 32.1085L11.3353 31.625Z" fill="black"/>
<path d="M21.7662 31.1393L21.2831 33.0801L23.2238 33.5632L23.707 31.6225L21.7662 31.1393Z" fill="black"/>
<path d="M11.8352 37.931L11.3524 39.8718L13.2933 40.3547L13.7761 38.4138L11.8352 37.931Z" fill="black"/>
<path d="M16.1971 41.0806L15.7142 43.0215L17.6551 43.5043L18.1379 41.5635L16.1971 41.0806Z" fill="black"/>
<path d="M33.87 22.05L38.43 40.3499C38.9698 42.5143 40.2178 44.436 41.9754 45.8095C43.733 47.1829 45.8994 47.9293 48.13 47.93C48.6087 47.9285 49.0867 47.8917 49.56 47.82L52 57.58L46.17 59C45.9048 59.0318 45.6631 59.1677 45.498 59.3777C45.333 59.5877 45.2582 59.8547 45.29 60.1199C45.3218 60.3852 45.4577 60.6269 45.6677 60.7919C45.8778 60.9569 46.1448 61.0318 46.41 61C46.493 61.0097 46.5769 61.0097 46.66 61L60.24 57.6199C60.3733 57.592 60.4994 57.5371 60.6107 57.4587C60.7221 57.3803 60.8162 57.2799 60.8873 57.1638C60.9585 57.0477 61.0052 56.9183 61.0246 56.7835C61.0439 56.6487 61.0356 56.5114 61 56.38C60.9362 56.1228 60.7729 55.9015 60.546 55.7646C60.3192 55.6277 60.0472 55.5865 59.79 55.65L53.94 57.0999L51.51 47.34C53.8438 46.5035 55.7838 44.83 56.9534 42.6441C58.1231 40.4582 58.439 37.9157 57.84 35.5099L52.28 13.2L32.87 18L33.87 22.05ZM50.07 45.6899C49.0503 45.9444 47.9904 45.9954 46.951 45.8401C45.9115 45.6848 44.9128 45.3262 44.012 44.7848C43.1112 44.2434 42.3259 43.5297 41.701 42.6847C41.0761 41.8397 40.6238 40.8798 40.37 39.86L37.19 27.1L37.68 27.47C38.5199 28.1094 39.5629 28.4231 40.6162 28.3533C41.6695 28.2834 42.6619 27.8347 43.41 27.09C43.8101 26.6879 44.3415 26.4434 44.9071 26.4011C45.4728 26.3589 46.0347 26.5218 46.49 26.86L47.88 27.86C48.7573 28.4983 49.8404 28.7883 50.9193 28.6737C51.9982 28.5592 52.9962 28.0483 53.72 27.24L55.9 36C56.4109 38.058 56.0838 40.2346 54.9906 42.0516C53.8974 43.8686 52.1276 45.1772 50.07 45.6899V45.6899ZM53.07 24.84L52.25 25.84C51.8641 26.3086 51.3137 26.6121 50.7114 26.6884C50.1091 26.7646 49.5005 26.6077 49.01 26.25L47.62 25.25C46.7802 24.6286 45.7444 24.331 44.7029 24.4118C43.6613 24.4927 42.6839 24.9465 41.95 25.69C41.5434 26.0936 41.0043 26.3362 40.4325 26.373C39.8607 26.4098 39.295 26.2382 38.84 25.89L36.42 24L35.3 19.49L50.82 15.62L53.07 24.84Z" fill="black"/>
<path d="M52.7448 31.6278L50.8041 32.1113L51.2876 34.052L53.2283 33.5685L52.7448 31.6278Z" fill="black"/>
<path d="M42.3151 31.1393L40.3741 31.6218L40.8566 33.5628L42.7976 33.0803L42.3151 31.1393Z" fill="black"/>
<path d="M52.262 37.9406L50.321 38.4231L50.8035 40.364L52.7445 39.8815L52.262 37.9406Z" fill="black"/>
<path d="M47.891 41.0917L45.9501 41.5742L46.4326 43.5151L48.3735 43.0327L47.891 41.0917Z" fill="black"/>
<path d="M32 12C32.2652 12 32.5196 11.8946 32.7071 11.7071C32.8946 11.5196 33 11.2652 33 11V3C33 2.73478 32.8946 2.48043 32.7071 2.29289C32.5196 2.10536 32.2652 2 32 2C31.7348 2 31.4804 2.10536 31.2929 2.29289C31.1054 2.48043 31 2.73478 31 3V11C31 11.2652 31.1054 11.5196 31.2929 11.7071C31.4804 11.8946 31.7348 12 32 12Z" fill="black"/>
<path d="M36.4001 12.6899C36.627 12.826 36.8985 12.8666 37.1553 12.8029C37.4121 12.7391 37.6331 12.5763 37.7701 12.3499L41.9301 5.51989C42.0235 5.40856 42.0916 5.27819 42.1295 5.13787C42.1674 4.99755 42.1743 4.85065 42.1497 4.7074C42.125 4.56415 42.0695 4.428 41.9868 4.30842C41.9042 4.18884 41.7965 4.08872 41.6712 4.01502C41.5459 3.94132 41.406 3.89582 41.2614 3.88169C41.1167 3.86756 40.9707 3.88513 40.8335 3.93319C40.6963 3.98125 40.5713 4.05864 40.4671 4.15996C40.3629 4.26129 40.282 4.38412 40.2301 4.51989L36.0701 11.3499C35.9424 11.5729 35.9054 11.8364 35.9669 12.0859C36.0283 12.3354 36.1834 12.5517 36.4001 12.6899V12.6899Z" fill="black"/>
<path d="M26.1501 12.3501C26.287 12.5765 26.5081 12.7394 26.7648 12.8031C27.0216 12.8668 27.2932 12.8262 27.5201 12.6901C27.6327 12.6215 27.7306 12.5312 27.8082 12.4246C27.8858 12.318 27.9415 12.197 27.9722 12.0688C28.0029 11.9405 28.0079 11.8074 27.9869 11.6772C27.966 11.547 27.9194 11.4222 27.8501 11.3101L23.6901 4.48009C23.6382 4.34432 23.5573 4.22149 23.4531 4.12017C23.3488 4.01884 23.2238 3.94146 23.0866 3.8934C22.9494 3.84534 22.8034 3.82776 22.6588 3.8419C22.5141 3.85603 22.3742 3.90153 22.249 3.97522C22.1237 4.04892 22.016 4.14905 21.9333 4.26862C21.8507 4.3882 21.7951 4.52436 21.7705 4.66761C21.7458 4.81086 21.7527 4.95776 21.7906 5.09808C21.8285 5.2384 21.8966 5.36876 21.9901 5.48009L26.1501 12.3501Z" fill="black"/>
</svg>
